<?xml version="1.0" encoding="UTF-8"?>
<svg version="1.1" xmlns="http://www.w3.org/2000/svg" width="694" height="692">
<path d="M0 0 C229.02 0 458.04 0 694 0 C694 228.36 694 456.72 694 692 C464.98 692 235.96 692 0 692 C0 463.64 0 235.28 0 0 Z " fill="#F0F0F0" transform="translate(0,0)"/>
<path d="M0 0 C3.04974531 5.88165167 5.61911058 11.82019144 8 18 C8.5878125 19.51980469 8.5878125 19.51980469 9.1875 21.0703125 C10.89922791 25.51010678 12.60318989 29.9526618 14.2890625 34.40234375 C17.04438482 41.64562973 19.97427682 48.75562763 23.3125 55.75 C24.20243394 58.66251108 23.95037192 60.10548826 23 63 C20.8125 64.96484375 20.8125 64.96484375 18 66.9375 C3.30512841 78.46849522 -2.87078848 97.18545373 -6 115 C-7.32 115 -8.64 115 -10 115 C-12.75886189 108.49906481 -14.97542912 101.95182808 -16.984375 95.18359375 C-18.17704754 91.44502405 -19.64982567 87.88980862 -21.265625 84.31640625 C-22.72609307 79.70971707 -22.45580716 76.89330063 -20.25 72.5703125 C-19.51359767 71.41310884 -18.76322997 70.26468799 -18 69.125 C-17.42765625 68.23554688 -17.42765625 68.23554688 -16.84375 67.328125 C-15.90790125 65.87755944 -14.95558369 64.43764153 -14 63 C-12.10546875 63.21875 -12.10546875 63.21875 -10 64 C-8.98828125 66.03125 -8.98828125 66.03125 -8.3125 68.5 C-7.63170957 71.51839757 -7.63170957 71.51839757 -6 74 C-5.57589844 73.43152344 -5.15179688 72.86304688 -4.71484375 72.27734375 C-1.17833377 67.62158665 2.35881842 63.50411187 6.8125 59.703125 C8.2416653 58.03163499 8.2416653 58.03163499 7.84765625 55.7109375 C6.85204673 52.52682227 5.69516193 49.46603832 4.4375 46.375 C4.18081543 45.73981445 3.92413086 45.10462891 3.65966797 44.45019531 C2.08751396 40.58241818 0.46632542 36.73699718 -1.17578125 32.8984375 C-1.54050537 32.04330566 -1.90522949 31.18817383 -2.28100586 30.30712891 C-3.0018303 28.62225606 -3.72778652 26.93956809 -4.45922852 25.25927734 C-4.95507446 24.10226318 -4.95507446 24.10226318 -5.4609375 22.921875 C-5.75790527 22.23706055 -6.05487305 21.55224609 -6.36083984 20.84667969 C-7 19 -7 19 -7 16 C-7.66 16 -8.32 16 -9 16 C-10.41377341 18.63904371 -11.37240135 21.07120629 -12 24 C-11.34 24.33 -10.68 24.66 -10 25 C-8.27333083 28.45333834 -7.61935935 31.1584574 -8 35 C-9.35546875 36.921875 -9.35546875 36.921875 -11.1875 38.75 C-14.50478572 42.27503493 -16.71871218 45.79063658 -18.859375 50.1171875 C-20 52 -20 52 -23 54 C-22.505 59.94 -22.505 59.94 -22 66 C-23.485 66.495 -23.485 66.495 -25 67 C-25.39832031 65.71802734 -25.39832031 65.71802734 -25.8046875 64.41015625 C-26.15789062 63.30542969 -26.51109375 62.20070312 -26.875 61.0625 C-27.22304688 59.96035156 -27.57109375 58.85820312 -27.9296875 57.72265625 C-28.70024295 54.87121196 -28.70024295 54.87121196 -31 54 C-32.13461204 60.84164269 -31.7542774 65.53076189 -29.5625 72.0625 C-29.2953418 72.90449951 -29.02818359 73.74649902 -28.75292969 74.61401367 C-27.85621445 77.41663135 -26.93094173 80.20857331 -26 83 C-25.65630371 84.03962891 -25.31260742 85.07925781 -24.95849609 86.15039062 C-23.23439791 91.36274395 -21.49408363 96.56910041 -19.734375 101.76953125 C-19.15509669 103.51263798 -18.57685074 105.2560884 -18 107 C-17.76474609 107.68497559 -17.52949219 108.36995117 -17.28710938 109.07568359 C-15.98135216 113.12505942 -16.11029447 114.55147236 -17 119 C-22.28 119 -27.56 119 -33 119 C-35.60012631 112.28842397 -37.8227501 105.48415571 -40 98.625 C-40.34289062 97.5525 -40.68578125 96.48 -41.0390625 95.375 C-43.09152514 88.93559431 -45.08342282 82.48115258 -47 76 C-56.93766997 75.77096279 -66.61510801 76.08345975 -76.48950195 77.28857422 C-77.23804443 77.37896973 -77.98658691 77.46936523 -78.7578125 77.5625 C-79.4089502 77.64628906 -80.06008789 77.73007813 -80.73095703 77.81640625 C-83.82348055 78.0666298 -86.89903983 78.02621189 -90 78 C-89.78794922 79.12494873 -89.57589844 80.24989746 -89.35742188 81.40893555 C-88.57015545 85.59200971 -87.78883173 89.77617574 -87.00927734 93.96069336 C-86.67137453 95.76991508 -86.33187155 97.57883872 -85.99072266 99.38745117 C-85.49999414 101.99060142 -85.01507374 104.59477749 -84.53125 107.19921875 C-84.37813354 108.00461594 -84.22501709 108.81001312 -84.06726074 109.63981628 C-83.36417636 113.45466542 -82.69362014 117.10264019 -83 121 C-84 122 -84 122 -87.59765625 122.09765625 C-89.08596867 122.0909822 -90.57426432 122.07902183 -92.0625 122.0625 C-92.82111328 122.05798828 -93.57972656 122.05347656 -94.36132812 122.04882812 C-96.24091871 122.0370068 -98.12046899 122.01907078 -100 122 C-100.47696801 120.33061196 -100.95338252 118.6610638 -101.42700195 116.99072266 C-101.9471275 115.18369083 -102.49358631 113.3842905 -103.04296875 111.5859375 C-104.10409943 107.60994582 -104.73223218 103.69254229 -105.3125 99.625 C-107.413162 85.7038265 -110.31454895 71.93542338 -113.23298645 58.16601562 C-113.65387099 56.17919906 -114.07262275 54.19194273 -114.4909668 52.20458984 C-115.02846405 49.65814667 -115.57138062 47.11283986 -116.12036133 44.56884766 C-116.3655249 43.40788574 -116.61068848 42.24692383 -116.86328125 41.05078125 C-117.08282471 40.02637939 -117.30236816 39.00197754 -117.52856445 37.9465332 C-118.01600185 34.89998634 -118.15322598 32.07992629 -118 29 C-117 28 -117 28 -113.40234375 27.90234375 C-111.91403133 27.9090178 -110.42573568 27.92097817 -108.9375 27.9375 C-108.17888672 27.94201172 -107.42027344 27.94652344 -106.63867188 27.95117188 C-104.75908129 27.9629932 -102.87953101 27.98092922 -101 28 C-99.61019429 31.9693973 -98.52900165 35.86027185 -97.7109375 39.984375 C-97.49179687 41.08394531 -97.27265625 42.18351562 -97.046875 43.31640625 C-96.82515625 44.44949219 -96.6034375 45.58257812 -96.375 46.75 C-96.14554687 47.89855469 -95.91609375 49.04710937 -95.6796875 50.23046875 C-94 58.71888951 -94 58.71888951 -94 61 C-93.1495813 60.90912109 -93.1495813 60.90912109 -92.28198242 60.81640625 C-79.1377617 59.44101742 -66.21417871 58.7253404 -53 59 C-53.24234375 58.23856689 -53.4846875 57.47713379 -53.734375 56.69262695 C-54.83031626 53.23487959 -55.91525902 49.77377654 -57 46.3125 C-57.57234375 44.51522461 -57.57234375 44.51522461 -58.15625 42.68164062 C-58.5171875 41.52470703 -58.878125 40.36777344 -59.25 39.17578125 C-59.58515625 38.11270752 -59.9203125 37.04963379 -60.265625 35.9543457 C-60.96351037 33.14679556 -61.22708786 30.87569359 -61 28 C-59.02203715 26.02203715 -55.37953454 26.7252741 -52.6875 26.6875 C-51.67139648 26.64399414 -51.67139648 26.64399414 -50.63476562 26.59960938 C-47.05046833 26.55406112 -45.33959975 26.72350697 -42.51953125 29.01953125 C-42.01808594 29.67308594 -41.51664062 30.32664063 -41 31 C-40.505 29.845 -40.01 28.69 -39.5 27.5 C-33.65146029 15.96481787 -13.80064431 -1.81587425 0 0 Z " fill="#2C3072" transform="translate(390,171)"/>
<path d="M0 0 C3.04974531 5.88165167 5.61911058 11.82019144 8 18 C8.5878125 19.51980469 8.5878125 19.51980469 9.1875 21.0703125 C10.89922791 25.51010678 12.60318989 29.9526618 14.2890625 34.40234375 C17.04438482 41.64562973 19.97427682 48.75562763 23.3125 55.75 C24.20243394 58.66251108 23.95037192 60.10548826 23 63 C20.8125 64.96484375 20.8125 64.96484375 18 66.9375 C3.30512841 78.46849522 -2.87078848 97.18545373 -6 115 C-7.32 115 -8.64 115 -10 115 C-12.75886189 108.49906481 -14.97542912 101.95182808 -16.984375 95.18359375 C-18.17704754 91.44502405 -19.64982567 87.88980862 -21.265625 84.31640625 C-22.72609307 79.70971707 -22.45580716 76.89330063 -20.25 72.5703125 C-19.51359767 71.41310884 -18.76322997 70.26468799 -18 69.125 C-17.6184375 68.53203125 -17.236875 67.9390625 -16.84375 67.328125 C-15.90790125 65.87755944 -14.95558369 64.43764153 -14 63 C-12.10546875 63.21875 -12.10546875 63.21875 -10 64 C-8.98828125 66.03125 -8.98828125 66.03125 -8.3125 68.5 C-7.63170957 71.51839757 -7.63170957 71.51839757 -6 74 C-5.57589844 73.43152344 -5.15179688 72.86304688 -4.71484375 72.27734375 C-1.17833377 67.62158665 2.35881842 63.50411187 6.8125 59.703125 C8.2416653 58.03163499 8.2416653 58.03163499 7.84765625 55.7109375 C6.85204673 52.52682227 5.69516193 49.46603832 4.4375 46.375 C4.18081543 45.73981445 3.92413086 45.10462891 3.65966797 44.45019531 C2.08751396 40.58241818 0.46632542 36.73699718 -1.17578125 32.8984375 C-1.54050537 32.04330566 -1.90522949 31.18817383 -2.28100586 30.30712891 C-3.0018303 28.62225606 -3.72778652 26.93956809 -4.45922852 25.25927734 C-4.78979248 24.48793457 -5.12035645 23.7165918 -5.4609375 22.921875 C-5.75790527 22.23706055 -6.05487305 21.55224609 -6.36083984 20.84667969 C-7 19 -7 19 -7 16 C-7.66 16 -8.32 16 -9 16 C-10.41377341 18.63904371 -11.37240135 21.07120629 -12 24 C-11.34 24.33 -10.68 24.66 -10 25 C-8.27333083 28.45333834 -7.61935935 31.1584574 -8 35 C-9.35546875 36.921875 -9.35546875 36.921875 -11.1875 38.75 C-14.50478572 42.27503493 -16.71871218 45.79063658 -18.859375 50.1171875 C-20 52 -20 52 -23 54 C-22.67 57.96 -22.34 61.92 -22 66 C-23.485 66.495 -23.485 66.495 -25 67 C-25.26554687 66.14535156 -25.53109375 65.29070312 -25.8046875 64.41015625 C-26.15789062 63.30542969 -26.51109375 62.20070312 -26.875 61.0625 C-27.22304688 59.96035156 -27.57109375 58.85820312 -27.9296875 57.72265625 C-28.70024295 54.87121196 -28.70024295 54.87121196 -31 54 C-31.66 56.31 -32.32 58.62 -33 61 C-36.23732136 56.14401797 -37.48192539 50.54832647 -39.1875 45 C-39.56841797 43.79859375 -39.94933594 42.5971875 -40.34179688 41.359375 C-40.69693359 40.20953125 -41.05207031 39.0596875 -41.41796875 37.875 C-41.74563232 36.82054687 -42.0732959 35.76609375 -42.41088867 34.6796875 C-43 32 -43 32 -42 29 C-41.67 29.66 -41.34 30.32 -41 31 C-40.505 29.845 -40.01 28.69 -39.5 27.5 C-33.65146029 15.96481787 -13.80064431 -1.81587425 0 0 Z " fill="#2D3071" transform="translate(390,171)"/>
<path d="M0 0 C5.61 0 11.22 0 17 0 C23.15631894 14.37327687 29.19870211 28.79203094 35.1100769 43.26773071 C35.78462344 44.91751695 36.46130815 46.56643063 37.14016724 48.21444702 C38.10223167 50.55195166 39.05604244 52.89266311 40.0078125 55.234375 C40.29588272 55.93031265 40.58395294 56.62625031 40.88075256 57.34327698 C42.44310058 61.21678543 43.48392625 64.85369764 44 69 C43.17822266 69.16822266 43.17822266 69.16822266 42.33984375 69.33984375 C23.18958506 74.10405445 7.33204259 88.96061746 -3.265625 105.0625 C-4.98988117 107.98286179 -6.52748489 110.94589459 -8 114 C-9.32 113.67 -10.64 113.34 -12 113 C-12.57061129 97.30818965 -6.25960119 83.66250585 3.83984375 71.84765625 C8.87745892 66.4803812 14.6803375 62.71744853 21 59 C20.38744476 53.80553158 18.73148127 49.50643439 16.6875 44.75 C16.08664749 43.3283751 15.48639324 41.90649721 14.88671875 40.484375 C14.57887451 39.75766602 14.27103027 39.03095703 13.95385742 38.28222656 C12.6058808 35.05701913 11.31593613 31.80957171 10.02416992 28.56152344 C8.99523845 25.98809103 7.94734193 23.42312115 6.89453125 20.859375 C6.20052083 19.15625 5.50651042 17.453125 4.8125 15.75 C4.27979492 14.46222656 4.27979492 14.46222656 3.73632812 13.1484375 C3.22682617 11.89160156 3.22682617 11.89160156 2.70703125 10.609375 C2.4025708 9.86655273 2.09811035 9.12373047 1.78442383 8.35839844 C1 6 1 6 0 0 Z " fill="#2E3273" transform="translate(398,178)"/>
<path d="M0 0 C5.94 0 11.88 0 18 0 C18 1.32 18 2.64 18 4 C22.62 4 27.24 4 32 4 C32 8.95 32 13.9 32 19 C31.01 19 30.02 19 29 19 C29.32355469 19.56976563 29.64710938 20.13953125 29.98046875 20.7265625 C32.10602097 25.46629964 31.53902643 30.44281254 29.875 35.25 C26.95112596 39.53834859 23.31699224 42.12200518 19 45 C15.62106454 45.48347554 12.22236312 45.41646589 8.8125 45.4375 C7.89146484 45.47037109 6.97042969 45.50324219 6.02148438 45.53710938 C-0.54344936 45.58836152 -4.96892031 44.31268017 -10 40 C-14.21319182 35.17056332 -14.40277074 30.63204131 -14.23828125 24.35546875 C-14 22 -14 22 -13 20 C-13.99 19.67 -14.98 19.34 -16 19 C-16 14.05 -16 9.1 -16 4 C-10.72 4 -5.44 4 0 4 C0 2.68 0 1.36 0 0 Z " fill="#1D1D1D" transform="translate(372,337)"/>
<path d="M0 0 C4.95 0 9.9 0 15 0 C15 17.49 15 34.98 15 53 C9.72 53 4.44 53 -1 53 C-1 52.01 -1 51.02 -1 50 C-5.29 50 -9.58 50 -14 50 C-14 47.03 -14 44.06 -14 41 C-18.95 41.495 -18.95 41.495 -24 42 C-24 44.64 -24 47.28 -24 50 C-29.28 50 -34.56 50 -40 50 C-40 48.35 -40 46.7 -40 45 C-40.60585938 45.144375 -41.21171875 45.28875 -41.8359375 45.4375 C-47.98654607 46.80009636 -53.71013545 47.24088843 -60 47 C-60.33820166 45.4176994 -60.67035939 43.83410625 -61 42.25 C-61.185625 41.36828125 -61.37125 40.4865625 -61.5625 39.578125 C-62 37 -62 37 -62 33 C-61.22624023 32.95512451 -60.45248047 32.91024902 -59.65527344 32.86401367 C-31.79665481 31.72446018 -31.79665481 31.72446018 -4.77734375 25.55078125 C-3 25 -3 25 0 25 C0 16.75 0 8.5 0 0 Z " fill="#1D1D1C" transform="translate(506,338)"/>
<path d="M0 0 C5.94 0 11.88 0 18 0 C18 1.65 18 3.3 18 5 C22.62 5 27.24 5 32 5 C32 9.95 32 14.9 32 20 C30.68 20.33 29.36 20.66 28 21 C28.495 21.99 28.495 21.99 29 23 C29.12240135 24.76770327 29.17551153 26.54060462 29.1875 28.3125 C29.20167969 29.25738281 29.21585938 30.20226562 29.23046875 31.17578125 C28.83121743 36.06830172 27.202452 39.4613766 23.625 42.8125 C18.62593912 46.55975021 13.84358958 46.66294789 7.8125 46.6875 C6.94512207 46.69434814 6.07774414 46.70119629 5.18408203 46.70825195 C-0.32990309 46.55293589 -3.63780483 45.64752332 -8 42 C-12.02763016 37.52485538 -14.28671653 34.02326487 -14.25 27.9375 C-14.25515625 27.08027344 -14.2603125 26.22304688 -14.265625 25.33984375 C-14 23 -14 23 -12 20 C-13.32 20 -14.64 20 -16 20 C-16 15.05 -16 10.1 -16 5 C-10.72 5 -5.44 5 0 5 C0 3.35 0 1.7 0 0 Z " fill="#201F1F" transform="translate(202,336)"/>
<path d="M0 0 C15.18 0 30.36 0 46 0 C46 4.62 46 9.24 46 14 C41.71 14 37.42 14 33 14 C32.35105339 19.70466403 32.35105339 19.70466403 34.8125 22.125 C39.30711363 24.76889037 44.06000933 26.37352321 49 28 C48.31113213 31.38891322 47.01283514 34.18011613 45.4375 37.25 C44.98246094 38.14203125 44.52742188 39.0340625 44.05859375 39.953125 C43.53458984 40.96632813 43.53458984 40.96632813 43 42 C36.01799218 41.00257031 32.26561092 39.11027295 27.04296875 34.36328125 C25.14785483 32.81042129 25.14785483 32.81042129 23.1171875 33.0703125 C19.11710577 34.82680595 15.49269062 37.22142492 11.77734375 39.50390625 C9 41 9 41 6 41 C6 41.66 6 42.32 6 43 C4.35 43 2.7 43 1 43 C-1.84886912 38.3468471 -3.58185357 34.32124312 -5 29 C-3.89140625 28.46890625 -2.7828125 27.9378125 -1.640625 27.390625 C-0.17687294 26.67751502 1.28665714 25.96394929 2.75 25.25 C3.47960937 24.90195312 4.20921875 24.55390625 4.9609375 24.1953125 C8.91683733 22.25332531 12.182533 20.5004893 15 17 C15.33 16.01 15.66 15.02 16 14 C10.72 14 5.44 14 0 14 C0 9.38 0 4.76 0 0 Z " fill="#1D1C1C" transform="translate(275,339)"/>
<path d="M0 0 C2.31273366 2.31273366 2.82707168 3.98366927 3.875 7.0625 C5.1657835 10.73737989 6.52528339 14.32339037 8.125 17.875 C8.61419922 18.96167969 8.61419922 18.96167969 9.11328125 20.0703125 C9.83294003 21.63644217 10.57011024 23.19451668 11.3125 24.75 C12.20243394 27.66251108 11.95037192 29.10548826 11 32 C8.8125 33.96484375 8.8125 33.96484375 6 35.9375 C-8.69487159 47.46849522 -14.87078848 66.18545373 -18 84 C-19.32 84 -20.64 84 -22 84 C-24.75886189 77.49906481 -26.97542912 70.95182808 -28.984375 64.18359375 C-30.17704754 60.44502405 -31.64982567 56.88980862 -33.265625 53.31640625 C-34.72609307 48.70971707 -34.45580716 45.89330063 -32.25 41.5703125 C-31.51359767 40.41310884 -30.76322997 39.26468799 -30 38.125 C-29.6184375 37.53203125 -29.236875 36.9390625 -28.84375 36.328125 C-27.90790125 34.87755944 -26.95558369 33.43764153 -26 32 C-24.10546875 32.21875 -24.10546875 32.21875 -22 33 C-20.98828125 35.03125 -20.98828125 35.03125 -20.3125 37.5 C-19.63170957 40.51839757 -19.63170957 40.51839757 -18 43 C-17.57589844 42.43152344 -17.15179688 41.86304688 -16.71484375 41.27734375 C-13.68541189 37.28914664 -10.70677175 33.62860685 -7 30.25 C-4.46523196 27.89784245 -4.46523196 27.89784245 -3.8125 24.625 C-4.52666696 23.04631514 -5.24828115 21.4709247 -5.984375 19.90234375 C-6.51804687 18.74412109 -6.51804687 18.74412109 -7.0625 17.5625 C-7.59810547 16.40621094 -7.59810547 16.40621094 -8.14453125 15.2265625 C-9.2296195 12.4023602 -9.30699472 9.99319853 -9 7 C-7 6 -7 6 -5.0625 6.5 C-2.82334576 7.23602403 -2.82334576 7.23602403 0 6 C0 4.02 0 2.04 0 0 Z " fill="#2E3272" transform="translate(402,202)"/>
<path d="M0 0 C0.98162109 -0.01998047 1.96324219 -0.03996094 2.97460938 -0.06054688 C11.02890151 -0.05521644 17.63355714 1.59423691 24.27734375 6.25390625 C27.33947662 10.99554689 26.40824024 17.054272 25.6875 22.4375 C22.65585994 27.26917634 18.08589123 29.03665164 12.6875 30.4375 C8.65797385 30.85528523 4.67291932 30.85739374 0.625 30.8125 C-0.42494141 30.82410156 -1.47488281 30.83570313 -2.55664062 30.84765625 C-9.26497055 30.82232587 -14.81202294 30.52200109 -20.0546875 25.90234375 C-23.51932641 21.23105474 -24.79316774 18.6008958 -24.71875 12.82421875 C-24.00799495 8.64853282 -21.63367771 5.94625655 -18.3125 3.4375 C-12.2546715 0.07815874 -6.84005642 -0.04882584 0 0 Z " fill="#1E1E1D" transform="translate(472.3125,336.5625)"/>
<path d="M0 0 C5.18755675 2.30824268 6.6598855 5.78362027 8.62890625 10.81640625 C8.94528549 11.58750229 9.26166473 12.35859833 9.58763123 13.15306091 C10.59445601 15.61701144 11.57866531 18.08929243 12.5625 20.5625 C13.227046 22.1991652 13.89304768 23.83524014 14.56054688 25.47070312 C16.39316773 29.97276765 18.20097767 34.48442093 20 39 C20.74468047 40.8659298 21.48944826 42.73182475 22.234375 44.59765625 C22.53287354 45.3455542 22.83137207 46.09345215 23.13891602 46.86401367 C24.92361697 51.2911043 26.77118341 55.69274498 28.61914062 60.09375 C28.91369141 60.80273438 29.20824219 61.51171875 29.51171875 62.2421875 C29.77428467 62.8697998 30.03685059 63.49741211 30.30737305 64.14404297 C31.92556494 68.48013558 32.41469667 72.35539728 32 77 C29.35105541 80.26441691 27.11702528 81.54085444 23.125 82.6875 C3.71549957 89.35547751 -11.85031843 105.35622013 -20.9921875 123.3203125 C-22 125 -22 125 -24 126 C-31.32364597 126.46499339 -31.32364597 126.46499339 -34 124.625 C-35 123 -35 123 -35 121 C-36.4540625 121.99 -36.4540625 121.99 -37.9375 123 C-42.46411039 125.27958797 -46.71548263 125.44908654 -51.6875 125.5 C-52.42411865 125.51804687 -53.1607373 125.53609375 -53.91967773 125.5546875 C-57.66223129 125.5139753 -59.8320779 125.10601033 -63.01953125 123.09375 C-65 121 -65 121 -65 119 C-63.90300781 118.96261719 -62.80601562 118.92523438 -61.67578125 118.88671875 C-60.22132143 118.82103347 -58.76689584 118.75458701 -57.3125 118.6875 C-56.59126953 118.66494141 -55.87003906 118.64238281 -55.12695312 118.61914062 C-50.55387195 118.38944248 -47.87917211 117.60708324 -44 115 C-43.01 115 -42.02 115 -41 115 C-40.4225 115.66 -39.845 116.32 -39.25 117 C-37.05379287 119.31290458 -37.05379287 119.31290458 -33.5 119.5625 C-29.90570991 119.35703531 -29.90570991 119.35703531 -27.98046875 116.7890625 C-26.13141525 114.18507 -24.45151808 111.55229072 -22.8125 108.8125 C-12.29388438 92.12625262 2.09467477 81.57476194 20.09375 74.296875 C23.05542932 73.18295925 23.05542932 73.18295925 25 71 C25.57557991 65.43606086 24.96856744 62.34892393 22.203125 57.3828125 C20.70575346 54.417239 19.65216842 51.38796919 18.5625 48.25 C16.62056649 42.67438724 14.49063153 37.23027239 12.18359375 31.796875 C11.08880771 29.20985583 10.03535748 26.61126305 9 24 C5.26866177 14.26194474 5.26866177 14.26194474 0.8515625 4.8359375 C0 3 0 3 0 0 Z " fill="#232321" transform="translate(422,178)"/>
<path d="M0 0 C5.94 0 11.88 0 18 0 C18 2.64 18 5.28 18 8 C33.84 8 49.68 8 66 8 C66 12.95 66 17.9 66 23 C44.22 23 22.44 23 0 23 C0 15.41 0 7.82 0 0 Z " fill="#242423" transform="translate(193,387)"/>
<path d="M0 0 C2.949375 -0.020625 5.89875 -0.04125 8.9375 -0.0625 C9.86812256 -0.071604 10.79874512 -0.08070801 11.75756836 -0.09008789 C12.48596924 -0.09258545 13.21437012 -0.09508301 13.96484375 -0.09765625 C14.7137085 -0.10289307 15.46257324 -0.10812988 16.23413086 -0.11352539 C18 0 18 0 19 1 C19 2.65 19 4.3 19 6 C35.17 6 51.34 6 68 6 C68 10.95 68 15.9 68 21 C45.56 21 23.12 21 0 21 C0 14.07 0 7.14 0 0 Z " fill="#171717" transform="translate(453,389)"/>
<path d="M0 0 C5.94 0 11.88 0 18 0 C18 3.3 18 6.6 18 10 C32.85 10 47.7 10 63 10 C63 14.95 63 19.9 63 25 C42.21 25 21.42 25 0 25 C0 16.75 0 8.5 0 0 Z " fill="#272727" transform="translate(279,385)"/>
<path d="M0 0 C21.78 0 43.56 0 66 0 C66 7.92 66 15.84 66 24 C60.72 24 55.44 24 50 24 C50 20.7 50 17.4 50 14 C33.5 14 17 14 0 14 C0 9.38 0 4.76 0 0 Z " fill="#1D1C1C" transform="translate(360,386)"/>
<path d="M0 0 C5.28 0 10.56 0 16 0 C16 16.17 16 32.34 16 49 C10.72 49 5.44 49 0 49 C0 46.36 0 43.72 0 41 C-2.31 41 -4.62 41 -7 41 C-7 36.05 -7 31.1 -7 26 C-4.69 26 -2.38 26 0 26 C0 24.35 0 22.7 0 21 C-2.31 21 -4.62 21 -7 21 C-7 16.05 -7 11.1 -7 6 C-4.69 6 -2.38 6 0 6 C0 4.02 0 2.04 0 0 Z " fill="#222121" transform="translate(243,338)"/>
<path d="M0 0 C0.66 0 1.32 0 2 0 C14.7929983 30.4611159 14.7929983 30.4611159 17 37 C17.30035156 37.83402344 17.60070312 38.66804688 17.91015625 39.52734375 C18 42 18 42 16.0859375 44.4296875 C15.19132812 45.23664063 14.29671875 46.04359375 13.375 46.875 C9.3025832 50.69575059 6.04356763 54.33319629 3 59 C0.03947516 55.63576723 -0.92289822 52.30840713 -2 48 C-2.99 48 -3.98 48 -5 48 C-5.33 48.66 -5.66 49.32 -6 50 C-6.66 50 -7.32 50 -8 50 C-8.66 50.66 -9.32 51.32 -10 52 C-10.103125 51.401875 -10.20625 50.80375 -10.3125 50.1875 C-10.81199129 47.9347485 -10.81199129 47.9347485 -12.5 46.6875 C-14.94850294 43.93293419 -15 41.60833501 -15 38 C-12.9375 35.6875 -12.9375 35.6875 -10 33 C-8.40887832 30.51590187 -6.96112554 27.97997362 -5.52734375 25.40234375 C-4 23 -4 23 -1.8359375 20.84375 C0.23385216 19.1399082 0.23385216 19.1399082 0.3125 16.5625 C0.00023507 14.00192761 -0.42525041 11.51452944 -1 9 C-1.99 8.67 -2.98 8.34 -4 8 C-3.40312566 4.65750371 -2.26396123 2.53563658 0 0 Z " fill="#F6F6F7" transform="translate(381,187)"/>
<path d="M0 0 C5.28 0 10.56 0 16 0 C16 4.95 16 9.9 16 15 C18.64 15 21.28 15 24 15 C24 19.95 24 24.9 24 30 C21.36 30 18.72 30 16 30 C16 34.62 16 39.24 16 44 C10.72 44 5.44 44 0 44 C0 29.48 0 14.96 0 0 Z " fill="#1E1E1D" transform="translate(410,338)"/>
<path d="M0 0 C4.95 0 9.9 0 15 0 C15 15.84 15 31.68 15 48 C10.05 48 5.1 48 0 48 C0 32.16 0 16.32 0 0 Z " fill="#181818" transform="translate(327,338)"/>
<path d="M0 0 C0.66 0.33 1.32 0.66 2 1 C1.505 1.433125 1.01 1.86625 0.5 2.3125 C-1.33218192 3.99740483 -1.33218192 3.99740483 -1 7 C-0.34 7.33 0.32 7.66 1 8 C2.72666917 11.45333834 3.38064065 14.1584574 3 18 C1.64453125 19.921875 1.64453125 19.921875 -0.1875 21.75 C-3.50478572 25.27503493 -5.71871218 28.79063658 -7.859375 33.1171875 C-9 35 -9 35 -12 37 C-11.67 40.96 -11.34 44.92 -11 49 C-12.485 49.495 -12.485 49.495 -14 50 C-14.26554687 49.14535156 -14.53109375 48.29070312 -14.8046875 47.41015625 C-15.15789062 46.30542969 -15.51109375 45.20070312 -15.875 44.0625 C-16.22304688 42.96035156 -16.57109375 41.85820312 -16.9296875 40.72265625 C-17.70024295 37.87121196 -17.70024295 37.87121196 -20 37 C-20.66 39.31 -21.32 41.62 -22 44 C-25.23732136 39.14401797 -26.48192539 33.54832647 -28.1875 28 C-28.56841797 26.79859375 -28.94933594 25.5971875 -29.34179688 24.359375 C-29.69693359 23.20953125 -30.05207031 22.0596875 -30.41796875 20.875 C-30.74563232 19.82054687 -31.0732959 18.76609375 -31.41088867 17.6796875 C-32 15 -32 15 -31 12 C-30.67 12.66 -30.34 13.32 -30 14 C-29.34 13.01 -28.68 12.02 -28 11 C-27.34 11 -26.68 11 -26 11 C-25.32942113 12.7902061 -24.6636531 14.58221489 -24 16.375 C-23.443125 17.87160156 -23.443125 17.87160156 -22.875 19.3984375 C-22 22 -22 22 -22 24 C-21.01 24 -20.02 24 -19 24 C-18.88785156 23.42765625 -18.77570313 22.8553125 -18.66015625 22.265625 C-15.99280688 13.11140823 -7.48806559 5.42468752 0 0 Z " fill="#EAECEF" transform="translate(379,188)"/>
<path d="M0 0 C0.495 2.97 0.495 2.97 1 6 C-8.01814321 7.14516104 -16.9280648 7.09471858 -26 7 C-25.81824219 7.7528125 -25.63648438 8.505625 -25.44921875 9.28125 C-17.57120743 42.57089783 -17.57120743 42.57089783 -20.25 49 C-22.29902077 51.34173802 -23.96114576 52.85716504 -27.11303711 53.29052734 C-29.72171868 53.33959345 -32.32832186 53.3713069 -34.9375 53.375 C-35.84435547 53.39949219 -36.75121094 53.42398438 -37.68554688 53.44921875 C-44.33726648 53.47858617 -44.33726648 53.47858617 -47.62890625 51.1015625 C-49 49 -49 49 -49 47 C-47.24623047 46.97873047 -47.24623047 46.97873047 -45.45703125 46.95703125 C-43.90881543 46.91011562 -42.36063956 46.86186831 -40.8125 46.8125 C-40.04357422 46.80669922 -39.27464844 46.80089844 -38.48242188 46.79492188 C-34.42789804 46.63830937 -32.3938957 46.26478264 -28.94921875 43.94921875 C-24.55963075 37.30765775 -27.61734514 28.38190401 -28.9375 21 C-30.10328324 14.34308936 -31.23316155 7.71589044 -32 1 C-21.32089373 0.36850058 -10.7016389 -0.17291697 0 0 Z " fill="#272726" transform="translate(339,253)"/>
<path d="M0 0 C1.32 0 2.64 0 4 0 C7.53742272 8.94821429 11.0057745 17.89642928 14.125 27 C16.00234751 32.45433848 18.13225614 37.54460255 20.828125 42.65625 C26.11243612 53.22487223 26.11243612 53.22487223 25.9140625 58.12109375 C24.56738146 60.88927144 22.65987099 61.69132257 20 63.1875 C6.46647961 71.46188034 -1.05839402 82.98483947 -5.17578125 98.1875 C-5.90733697 100.68380389 -6.65756242 102.77803436 -8 105 C-8.99 105.495 -8.99 105.495 -10 106 C-8.70413217 89.15371818 -0.3339146 70.93352431 12.5078125 59.83203125 C14.63599661 58.16083966 16.78261803 56.55011425 19 55 C18.34096179 47.42106059 15.51847738 40.92741879 12.05078125 34.21484375 C9.63074758 29.41812198 7.97623305 24.4447909 6.2890625 19.35546875 C4.78544928 14.93355247 3.01740751 10.85513116 0.79394531 6.74414062 C-0.25650938 4.4364997 -0.31196147 2.49569179 0 0 Z " fill="#E8EBF2" transform="translate(394,178)"/>
<path d="M0 0 C1.86762158 3.15161141 2.36897647 5.34878504 2 9 C0.64453125 10.921875 0.64453125 10.921875 -1.1875 12.75 C-4.50478572 16.27503493 -6.71871218 19.79063658 -8.859375 24.1171875 C-10 26 -10 26 -13 28 C-12.67 31.96 -12.34 35.92 -12 40 C-13.485 40.495 -13.485 40.495 -15 41 C-15.8427743 38.60712296 -16.67437002 36.21128981 -17.5 33.8125 C-17.73847656 33.13896484 -17.97695313 32.46542969 -18.22265625 31.77148438 C-19.47377382 28.1074972 -20.52992757 24.88136141 -20 21 C-19.29875 20.443125 -18.5975 19.88625 -17.875 19.3125 C-14.98477677 16.98775523 -13.91041445 15.36476981 -12.125 12.1875 C-5.15555556 0 -5.15555556 0 0 0 Z " fill="#1E1E1C" transform="translate(380,197)"/>
<path d="M0 0 C0.66 0 1.32 0 2 0 C1.32699643 6.35828131 0.5239621 12.67900301 -0.4375 19 C-0.55931641 19.85722656 -0.68113281 20.71445312 -0.80664062 21.59765625 C-0.93103516 22.41105469 -1.05542969 23.22445313 -1.18359375 24.0625 C-1.29243896 24.79597656 -1.40128418 25.52945312 -1.51342773 26.28515625 C-1.75428101 27.13400391 -1.75428101 27.13400391 -2 28 C-2.66 28.33 -3.32 28.66 -4 29 C-4 25.7 -4 22.4 -4 19 C-4.721875 19.33 -5.44375 19.66 -6.1875 20 C-9.01697427 21.00603529 -11.02895466 21.16977402 -14 21 C-14 19.35 -14 17.7 -14 16 C-14.7425 16.33 -15.485 16.66 -16.25 17 C-19 18 -19 18 -23 18 C-22.34 15.03 -21.68 12.06 -21 9 C-21.66 9 -22.32 9 -23 9 C-22.67 8.01 -22.34 7.02 -22 6 C-19.36 5.67 -16.72 5.34 -14 5 C-14.33 5.66 -14.66 6.32 -15 7 C-17.0625 7.625 -17.0625 7.625 -19 8 C-19 9.98 -19 11.96 -19 14 C-16.08606611 12.96995825 -13.48916025 11.84909047 -11 10 C-9.69011713 7.25448551 -9.40859733 5.06447996 -9 2 C-8.34 2 -7.68 2 -7 2 C-7 3.32 -7 4.64 -7 6 C-6.21625 5.505 -5.4325 5.01 -4.625 4.5 C-2 3 -2 3 0 3 C0 2.01 0 1.02 0 0 Z " fill="#E6E7E5" transform="translate(560,443)"/>
<path d="M0 0 C5.18755675 2.30824268 6.6598855 5.78362027 8.62890625 10.81640625 C9.10347511 11.97305031 9.10347511 11.97305031 9.58763123 13.15306091 C10.59445601 15.61701144 11.57866531 18.08929243 12.5625 20.5625 C13.227046 22.1991652 13.89304768 23.83524014 14.56054688 25.47070312 C16.80787647 30.9916539 19.01560816 36.52809583 21.22094727 42.06591797 C22.76284904 45.93583312 24.32509672 49.79203984 25.95703125 53.625 C26.26447266 54.35074219 26.57191406 55.07648438 26.88867188 55.82421875 C27.51878653 57.30825199 28.15444502 58.78994058 28.79492188 60.26953125 C29.58862427 62.15606158 30.30174199 64.07609877 31 66 C29.65827124 68.68345751 27.99819916 70.76671858 26 73 C25.01 73 24.02 73 23 73 C23.99 72.01 23.99 72.01 25 71 C25.57557991 65.43606086 24.96856744 62.34892393 22.203125 57.3828125 C20.70575346 54.417239 19.65216842 51.38796919 18.5625 48.25 C16.62056649 42.67438724 14.49063153 37.23027239 12.18359375 31.796875 C11.08880771 29.20985583 10.03535748 26.61126305 9 24 C5.26866177 14.26194474 5.26866177 14.26194474 0.8515625 4.8359375 C0 3 0 3 0 0 Z " fill="#363633" transform="translate(422,178)"/>
<path d="M0 0 C2.949375 -0.020625 5.89875 -0.04125 8.9375 -0.0625 C9.86812256 -0.071604 10.79874512 -0.08070801 11.75756836 -0.09008789 C12.48596924 -0.09258545 13.21437012 -0.09508301 13.96484375 -0.09765625 C14.7137085 -0.10289307 15.46257324 -0.10812988 16.23413086 -0.11352539 C18 0 18 0 19 1 C19 2.65 19 4.3 19 6 C35.17 6 51.34 6 68 6 C68 10.95 68 15.9 68 21 C45.56 21 23.12 21 0 21 C0 14.07 0 7.14 0 0 Z M1 1 C0.979375 2.670625 0.95875 4.34125 0.9375 6.0625 C0.92589844 7.00222656 0.91429687 7.94195312 0.90234375 8.91015625 C1.00921595 12.29159252 1.52155391 15.65087739 2 19 C23.45 19 44.9 19 67 19 C67 15.04 67 11.08 67 7 C50.83 7 34.66 7 18 7 C18 5.02 18 3.04 18 1 C12.39 1 6.78 1 1 1 Z " fill="#606060" transform="translate(453,389)"/>
<path d="M0 0 C0 1.32 0 2.64 0 4 C4.455 3.505 4.455 3.505 9 3 C8.68289063 3.70511719 8.36578125 4.41023438 8.0390625 5.13671875 C6.95461714 8.12505879 6.6035641 10.65069658 6.375 13.8125 C6.30023438 14.78832031 6.22546875 15.76414062 6.1484375 16.76953125 C6.09945313 17.50558594 6.05046875 18.24164063 6 19 C5.22269531 18.65195312 4.44539063 18.30390625 3.64453125 17.9453125 C1.04973971 16.69564654 1.04973971 16.69564654 -1.3125 17.875 C-2.1478125 18.431875 -2.1478125 18.431875 -3 19 C-3.66 17.35 -4.32 15.7 -5 14 C-5.99 14.495 -5.99 14.495 -7 15 C-6.39301257 10.87248551 -4.96189209 7.6678852 -3 4 C-4.32 4 -5.64 4 -7 4 C-7 3.34 -7 2.68 -7 2 C-4.35261084 0.5393715 -3.10551666 0 0 0 Z " fill="#E8E8E6" transform="translate(381,445)"/>
<path d="M0 0 C-0.63950198 5.49971703 -0.63950198 5.49971703 -2.53125 8.125 C-4.61814143 12.20997897 -4.3263909 15.80032642 -4.1875 20.3125 C-4.17396484 21.14845703 -4.16042969 21.98441406 -4.14648438 22.84570312 C-4.11131217 24.89741498 -4.05751048 26.94879275 -4 29 C-4.66 29 -5.32 29 -6 29 C-7.21693876 26.56612247 -7.31959896 24.58161154 -7.5625 21.875 C-7.64628906 20.96492188 -7.73007812 20.05484375 -7.81640625 19.1171875 C-7.87699219 18.41851562 -7.93757813 17.71984375 -8 17 C-10.97 20.465 -10.97 20.465 -14 24 C-14.33 23.01 -14.66 22.02 -15 21 C-13.80723745 18.74111389 -12.5887635 16.68454879 -11.1875 14.5625 C-8.9544753 11.0979992 -6.84844632 7.69689265 -5 4 C-9.455 5.485 -9.455 5.485 -14 7 C-14 6.01 -14 5.02 -14 4 C-12.42032193 3.32471777 -10.83608097 2.66010306 -9.25 2 C-8.36828125 1.62875 -7.4865625 1.2575 -6.578125 0.875 C-4 0 -4 0 0 0 Z " fill="#393938" transform="translate(351,436)"/>
<path d="M0 0 C0.66 0 1.32 0 2 0 C1.85769192 1.41702513 1.71099254 2.8336096 1.5625 4.25 C1.48128906 5.03890625 1.40007813 5.8278125 1.31640625 6.640625 C1.02365007 8.82364639 0.57935581 10.8773182 0 13 C-0.66 13 -1.32 13 -2 13 C-1.67 10.69 -1.34 8.38 -1 6 C-5.21763564 8.57054739 -5.21763564 8.57054739 -8.5625 12.125 C-10.42117505 14.54935876 -12.14147755 15.02391916 -15 16 C-15.680625 16.37125 -16.36125 16.7425 -17.0625 17.125 C-19 18 -19 18 -23 18 C-22.34 15.03 -21.68 12.06 -21 9 C-21.66 9 -22.32 9 -23 9 C-22.67 8.01 -22.34 7.02 -22 6 C-19.36 5.67 -16.72 5.34 -14 5 C-14.33 5.66 -14.66 6.32 -15 7 C-17.0625 7.625 -17.0625 7.625 -19 8 C-19 9.98 -19 11.96 -19 14 C-16.08606611 12.96995825 -13.48916025 11.84909047 -11 10 C-9.69011713 7.25448551 -9.40859733 5.06447996 -9 2 C-8.34 2 -7.68 2 -7 2 C-7 3.32 -7 4.64 -7 6 C-6.21625 5.505 -5.4325 5.01 -4.625 4.5 C-2 3 -2 3 0 3 C0 2.01 0 1.02 0 0 Z " fill="#434442" transform="translate(560,443)"/>
<path d="M0 0 C0.99 0.33 1.98 0.66 3 1 C3.22084624 7.09781001 3.01167675 12.21642935 1 18 C0.34 18 -0.32 18 -1 18 C-1.33 15.03 -1.66 12.06 -2 9 C-4.31 9.66 -6.62 10.32 -9 11 C-9.04898437 11.84304688 -9.09796875 12.68609375 -9.1484375 13.5546875 C-9.22320312 14.65039062 -9.29796875 15.74609375 -9.375 16.875 C-9.44460938 17.96554687 -9.51421875 19.05609375 -9.5859375 20.1796875 C-10 23 -10 23 -12 25 C-12.14285714 16.42857143 -12.14285714 16.42857143 -11 13 C-12.98 13.33 -14.96 13.66 -17 14 C-15.98597467 11.30348572 -15.33034366 10.18943601 -12.79296875 8.734375 C-11.93316406 8.40953125 -11.07335937 8.0846875 -10.1875 7.75 C-8.90939453 7.24726563 -8.90939453 7.24726563 -7.60546875 6.734375 C-4.93928914 5.98288809 -2.75447334 5.86153455 0 6 C0 4.02 0 2.04 0 0 Z " fill="#4F4F4D" transform="translate(474,446)"/>
<path d="M0 0 C3.41644917 5.12467375 4.10239178 10.84977258 3.8125 16.9375 C3.01146771 19.95677556 2.47598132 21.16992685 0 23 C0 22.01 0 21.02 0 20 C-0.78375 19.87625 -1.5675 19.7525 -2.375 19.625 C-5 19 -5 19 -7 17 C-6.50886719 16.46890625 -6.01773437 15.9378125 -5.51171875 15.390625 C-3.56990223 12.31984538 -3.69508306 10.35078604 -3.8125 6.75 C-3.83957031 5.67234375 -3.86664063 4.5946875 -3.89453125 3.484375 C-3.92933594 2.66453125 -3.96414063 1.8446875 -4 1 C-3.67 1.66 -3.34 2.32 -3 3 C-2.01 2.01 -1.02 1.02 0 0 Z " fill="#323231" transform="translate(316,281)"/>
<path d="M0 0 C0.78503906 0.00515625 1.57007813 0.0103125 2.37890625 0.015625 C3.55259766 0.00789063 3.55259766 0.00789063 4.75 0 C6.94140625 0.265625 6.94140625 0.265625 9.94140625 2.265625 C10.31640625 5.265625 10.31640625 5.265625 9.94140625 8.265625 C6.80729323 10.35503368 5.96690153 10.53926912 2.37890625 10.515625 C1.20134766 10.52335937 1.20134766 10.52335937 0 10.53125 C-2.05859375 10.265625 -2.05859375 10.265625 -4.05859375 8.265625 C-4.30859375 5.265625 -4.30859375 5.265625 -4.05859375 2.265625 C-2.05859375 0.265625 -2.05859375 0.265625 0 0 Z " fill="#EDEFEE" transform="translate(378.05859375,357.734375)"/>
<path d="M0 0 C2.60880189 0.07589242 3.83497043 0.18149813 6.125 1.5 C7.0625 3.3125 7.0625 3.3125 6.875 5.875 C6.0625 8.3125 6.0625 8.3125 4.0625 10.3125 C2.1875 10.578125 2.1875 10.578125 0.0625 10.5625 C-0.63875 10.56765625 -1.34 10.5728125 -2.0625 10.578125 C-3.9375 10.3125 -3.9375 10.3125 -5.9375 8.3125 C-6.1875 5.3125 -6.1875 5.3125 -5.9375 2.3125 C-3.9375 0.3125 -3.9375 0.3125 0 0 Z " fill="#E9EAEA" transform="translate(209.9375,357.6875)"/>
<path d="M0 0 C1.43859375 -0.00773437 1.43859375 -0.00773437 2.90625 -0.015625 C5.5 0.25 5.5 0.25 8.5 2.25 C8.17 3.9 7.84 5.55 7.5 7.25 C2.55 7.25 -2.4 7.25 -7.5 7.25 C-7.83 5.6 -8.16 3.95 -8.5 2.25 C-5.14802157 0.01534771 -3.92208754 -0.02108649 0 0 Z " fill="#ECEDEC" transform="translate(473.5,347.75)"/>
<path d="M0 0 C2.73764628 1.00380364 3.79257599 1.56151175 5.0625 4.24609375 C7.3485008 10.96122111 8.31439225 17.92617442 8 25 C6.68 25 5.36 25 4 25 C3.32315702 21.96050698 2.66038128 18.91810835 2 15.875 C1.80921875 15.0190625 1.6184375 14.163125 1.421875 13.28125 C0.45079667 8.77267206 -0.24359575 4.64354396 0 0 Z " fill="#2C2D2A" transform="translate(297,200)"/>
<path d="M0 0 C0 3.96 0 7.92 0 12 C-0.66 12 -1.32 12 -2 12 C-2 9.03 -2 6.06 -2 3 C-15.86 3 -29.72 3 -44 3 C-43.67 2.34 -43.34 1.68 -43 1 C-37.19759872 0.85727444 -31.39518978 0.71486574 -25.59277344 0.57275391 C-23.61783639 0.52433903 -21.64290148 0.47583674 -19.66796875 0.42724609 C-16.83333889 0.35751875 -13.99870154 0.2881032 -11.1640625 0.21875 C-10.27756012 0.19687622 -9.39105774 0.17500244 -8.47769165 0.15246582 C-2.22774341 0 -2.22774341 0 0 0 Z " fill="#121110" transform="translate(341,396)"/>
<path d="M0 0 C0.66 0.99 1.32 1.98 2 3 C1.33016899 5.53047269 0.22311298 7.62579647 -1.11328125 9.8671875 C-4.39677801 15.41761855 -6.36234307 20.87353681 -8.10546875 27.08203125 C-8.87706053 29.59897037 -9.64239286 31.75129936 -11 34 C-11.99 34.495 -11.99 34.495 -13 35 C-12.17734597 24.30549757 -7.93984174 7.93984174 0 0 Z " fill="#E4E9F2" transform="translate(397,249)"/>
<path d="M0 0 C4.95 0 9.9 0 15 0 C14.67 1.32 14.34 2.64 14 4 C10.37 3.67 6.74 3.34 3 3 C3 9.27 3 15.54 3 22 C2.01 22 1.02 22 0 22 C0 14.74 0 7.48 0 0 Z " fill="#121212" transform="translate(280,386)"/>
<path d="M0 0 C0.66 0 1.32 0 2 0 C1.34 5.28 0.68 10.56 0 16 C-0.66 16 -1.32 16 -2 16 C-2.33 17.65 -2.66 19.3 -3 21 C-0.03 20.34 2.94 19.68 6 19 C6 19.66 6 20.32 6 21 C4.58603098 21.50757862 3.16868271 22.00574925 1.75 22.5 C0.96109375 22.7784375 0.1721875 23.056875 -0.640625 23.34375 C-3 24 -3 24 -7 24 C-7 23.34 -7 22.68 -7 22 C-6.34 22 -5.68 22 -5 22 C-4.11548248 17.40050888 -3.82952891 15.08559264 -6 11 C-6.0777346 8.66796188 -6.08967728 6.33160941 -6 4 C-5.34 4 -4.68 4 -4 4 C-4 5.98 -4 7.96 -4 10 C-3.34 9.67 -2.68 9.34 -2 9 C-1.31270746 6.88153715 -1.31270746 6.88153715 -0.875 4.4375 C-0.70742187 3.61121094 -0.53984375 2.78492188 -0.3671875 1.93359375 C-0.24601563 1.29550781 -0.12484375 0.65742188 0 0 Z " fill="#7A7A79" transform="translate(217,442)"/>
<path d="M0 0 C0.33 0 0.66 0 1 0 C1.33 2.97 1.66 5.94 2 9 C3.31587941 7.87895467 4.62760353 6.75303035 5.9375 5.625 C6.66839844 4.99851562 7.39929688 4.37203125 8.15234375 3.7265625 C10.08380906 2.12252286 10.08380906 2.12252286 11 0 C11.66 0 12.32 0 13 0 C13 1.65 13 3.3 13 5 C14.65 5 16.3 5 18 5 C17.67 5.66 17.34 6.32 17 7 C14.4375 7.625 14.4375 7.625 12 8 C12 9.98 12 11.96 12 14 C11.34 14 10.68 14 10 14 C9.67 11.36 9.34 8.72 9 6 C8.45730469 6.51691406 7.91460937 7.03382813 7.35546875 7.56640625 C6.28232422 8.55447266 6.28232422 8.55447266 5.1875 9.5625 C4.12595703 10.55443359 4.12595703 10.55443359 3.04296875 11.56640625 C2.36878906 12.03949219 1.69460937 12.51257813 1 13 C0.01 12.67 -0.98 12.34 -2 12 C-1.85904936 10.3745692 -1.71207913 8.74965949 -1.5625 7.125 C-1.48128906 6.22007812 -1.40007812 5.31515625 -1.31640625 4.3828125 C-1 2 -1 2 0 0 Z " fill="#5A5B5A" transform="translate(228,450)"/>
<path d="M0 0 C3.49124426 1.74562213 3.9657738 5.898806 5.1875 9.4375 C5.47302734 10.22705078 5.75855469 11.01660156 6.05273438 11.83007812 C6.31763672 12.58611328 6.58253906 13.34214844 6.85546875 14.12109375 C7.09934326 14.8164624 7.34321777 15.51183105 7.59448242 16.22827148 C8 18 8 18 7 20 C6.67 19.01 6.34 18.02 6 17 C5.01 17 4.02 17 3 17 C3 17.66 3 18.32 3 19 C2.34 19 1.68 19 1 19 C0.3299166 16.87607494 -0.33596797 14.75082476 -1 12.625 C-1.37125 11.44164062 -1.7425 10.25828125 -2.125 9.0390625 C-3 6 -3 6 -3 4 C-2.34 4 -1.68 4 -1 4 C-0.67 2.68 -0.34 1.36 0 0 Z " fill="#E5E7EE" transform="translate(368,253)"/>
<path d="M0 0 C-1.875 3.875 -1.875 3.875 -3 5 C-1.68 5.33 -0.36 5.66 1 6 C-0.36983503 9.16115776 -0.9890638 9.9927092 -4 12 C-1.03 12 1.94 12 5 12 C-0.15400839 15.43600559 -3.77702167 16.24403837 -10 16 C-9.67 15.01 -9.34 14.02 -9 13 C-8.34 13 -7.68 13 -7 13 C-7 12.34 -7 11.68 -7 11 C-6.34 10.34 -5.68 9.68 -5 9 C-6.32 9 -7.64 9 -9 9 C-7.84826645 6.53199953 -6.95216435 4.95216435 -5 3 C-5.66 3 -6.32 3 -7 3 C-7 2.34 -7 1.68 -7 1 C-4.50935112 0.31292445 -2.62113708 0 0 0 Z " fill="#474745" transform="translate(442,459)"/>
<path d="M0 0 C0.66 0 1.32 0 2 0 C2 2.64 2 5.28 2 8 C6.58147562 7.45022293 10.64913082 6.51774506 15 5 C15.66 5 16.32 5 17 5 C17 5.66 17 6.32 17 7 C14.42138975 8.03444249 11.83825365 9.05272284 9.25 10.0625 C8.52039063 10.35705078 7.79078125 10.65160156 7.0390625 10.95507812 C6.33007812 11.22900391 5.62109375 11.50292969 4.890625 11.78515625 C4.24125977 12.04176025 3.59189453 12.29836426 2.92285156 12.56274414 C0.63367214 13.08330284 -0.79256664 12.72364304 -3 12 C-2.14285714 3.42857143 -2.14285714 3.42857143 0 0 Z " fill="#3A3A39" transform="translate(165,458)"/>
<path d="M0 0 C-0.91 6.63 -0.91 6.63 -1.5625 9.3125 C-2.24828959 13.52520747 -2.07442239 17.74138544 -2 22 C-2.99 21.67 -3.98 21.34 -5 21 C-5.33 19.02 -5.66 17.04 -6 15 C-6.33 15.66 -6.66 16.32 -7 17 C-7.66 17 -8.32 17 -9 17 C-8.46604696 12.46139912 -6.5802582 9.70912117 -4 6 C-3.67 5.01 -3.34 4.02 -3 3 C-5.31 3.33 -7.62 3.66 -10 4 C-6.95860798 0.50239917 -4.5534811 0 0 0 Z " fill="#545452" transform="translate(193,444)"/>
<path d="M0 0 C1.32 0 2.64 0 4 0 C3.65310247 6.7645019 -0.31516866 12.31516866 -5 17 C-5.99 17 -6.98 17 -8 17 C-8.33 17.66 -8.66 18.32 -9 19 C-9.25 16.25 -9.25 16.25 -9 13 C-7.125 10.875 -7.125 10.875 -5 9 C-3.90833725 7.06669397 -3.90833725 7.06669397 -3 5 C-1.625 2.25 -1.625 2.25 0 0 Z " fill="#F6F6F3" transform="translate(367,201)"/>
<path d="M0 0 C9.57 0.33 19.14 0.66 29 1 C29 1.66 29 2.32 29 3 C22.78829926 3.92159579 16.77390894 4.12177385 10.5 4.0625 C9.5821875 4.05798828 8.664375 4.05347656 7.71875 4.04882812 C5.47909609 4.03716326 3.23958455 4.02079614 1 4 C1 6.31 1 8.62 1 11 C0.67 11 0.34 11 0 11 C0 7.37 0 3.74 0 0 Z " fill="#121211" transform="translate(276,339)"/>
<path d="M0 0 C0.66 0.33 1.32 0.66 2 1 C2 2.32 2 3.64 2 5 C3.65 4.67 5.3 4.34 7 4 C7 4.66 7 5.32 7 6 C6.195625 6.226875 5.39125 6.45375 4.5625 6.6875 C3.716875 7.120625 2.87125 7.55375 2 8 C1.10613836 10.54775306 1.10613836 10.54775306 1 13 C0.34 13 -0.32 13 -1 13 C-1.33 11.68 -1.66 10.36 -2 9 C-2.928125 9.680625 -3.85625 10.36125 -4.8125 11.0625 C-5.864375 11.701875 -6.91625 12.34125 -8 13 C-8.99 12.67 -9.98 12.34 -11 12 C-11 8.7 -11 5.4 -11 2 C-10.34 2 -9.68 2 -9 2 C-9 4.64 -9 7.28 -9 10 C-7.88625 9.34 -6.7725 8.68 -5.625 8 C-2.25 6 -2.25 6 0 6 C0 4.02 0 2.04 0 0 Z " fill="#5F5F5E" transform="translate(303,448)"/>
<path d="M0 0 C0.66 0 1.32 0 2 0 C1.67 2.31 1.34 4.62 1 7 C1.56203125 6.83628906 2.1240625 6.67257812 2.703125 6.50390625 C5.13059056 5.97135003 7.26889681 5.90101319 9.75 5.9375 C10.54921875 5.94652344 11.3484375 5.95554687 12.171875 5.96484375 C12.77515625 5.97644531 13.3784375 5.98804688 14 6 C14 6.66 14 7.32 14 8 C12.10614563 8.50744423 10.20981334 9.00564574 8.3125 9.5 C7.25675781 9.7784375 6.20101563 10.056875 5.11328125 10.34375 C2.28857328 10.9391715 -0.12836708 11.12786492 -3 11 C-2.44894091 7.0507432 -1.61064629 3.65079826 0 0 Z " fill="#3E3E3D" transform="translate(354,452)"/>
<path d="M0 0 C-0.5147161 4.42655846 -1.55927352 7.29009575 -4 11 C-4.68096422 12.32608822 -5.35330586 13.65686601 -6 15 C-6 14.01 -6 13.02 -6 12 C-6.66 12 -7.32 12 -8 12 C-6.125 6.25 -6.125 6.25 -5 4 C-9.455 5.485 -9.455 5.485 -14 7 C-14 6.01 -14 5.02 -14 4 C-12.42032193 3.32471777 -10.83608097 2.66010306 -9.25 2 C-8.36828125 1.62875 -7.4865625 1.2575 -6.578125 0.875 C-4 0 -4 0 0 0 Z " fill="#40403E" transform="translate(351,436)"/>
<path d="M0 0 C0.33 0 0.66 0 1 0 C1.054348 2.0622048 1.09294961 4.12482816 1.125 6.1875 C1.14820313 7.33605469 1.17140625 8.48460937 1.1953125 9.66796875 C1.00484152 12.91740372 0.39360127 15.08660521 -1 18 C-1.66 18 -2.32 18 -3 18 C-2.67 14.04 -2.34 10.08 -2 6 C-3.65 6.33 -5.3 6.66 -7 7 C-7 7.66 -7 8.32 -7 9 C-7.99 9 -8.98 9 -10 9 C-9.00269864 6.5067466 -8.34925469 5.22532561 -6.0625 3.75 C-4 3 -4 3 -1 3 C-0.67 2.01 -0.34 1.02 0 0 Z " fill="#4A4A48" transform="translate(276,445)"/>
<path d="M0 0 C1.48831242 0.00667405 2.97660807 0.01863442 4.46484375 0.03515625 C5.22345703 0.03966797 5.98207031 0.04417969 6.76367188 0.04882812 C8.64326246 0.06064945 10.52281274 0.07858547 12.40234375 0.09765625 C12.40234375 0.42765625 12.40234375 0.75765625 12.40234375 1.09765625 C6.46234375 1.59265625 6.46234375 1.59265625 0.40234375 2.09765625 C1.39234375 2.42765625 2.38234375 2.75765625 3.40234375 3.09765625 C3.40234375 3.75765625 3.40234375 4.41765625 3.40234375 5.09765625 C2.41234375 5.42765625 1.42234375 5.75765625 0.40234375 6.09765625 C0.07234375 9.72765625 -0.25765625 13.35765625 -0.59765625 17.09765625 C-4.1341081 13.5612044 -4.52197554 8.48513586 -4.78515625 3.66015625 C-4.49265777 -0.33732299 -4.17827718 0.11341686 0 0 Z " fill="#30336F" transform="translate(276.59765625,198.90234375)"/>
<path d="M0 0 C0.66 0 1.32 0 2 0 C1.67 3.3 1.34 6.6 1 10 C2.0209375 9.505 2.0209375 9.505 3.0625 9 C6.50840238 7.82692685 9.38397422 7.85819507 13 8 C12 10 12 10 8.9453125 11.0703125 C7.05425781 11.59238281 7.05425781 11.59238281 5.125 12.125 C3.86945313 12.47820312 2.61390625 12.83140625 1.3203125 13.1953125 C-2 14 -2 14 -5 14 C-5 13.01 -5 12.02 -5 11 C-4.01 10.67 -3.02 10.34 -2 10 C-1.34 6.7 -0.68 3.4 0 0 Z " fill="#393937" transform="translate(155,431)"/>
<path d="M0 0 C0.66 0 1.32 0 2 0 C2 1.65 2 3.3 2 5 C3.65 4.67 5.3 4.34 7 4 C7 2.68 7 1.36 7 0 C7.66 0 8.32 0 9 0 C8.85923685 1.9587043 8.7122324 3.91696093 8.5625 5.875 C8.48128906 6.96554687 8.40007812 8.05609375 8.31640625 9.1796875 C8 12 8 12 7 14 C6.34 14 5.68 14 5 14 C5 11.69 5 9.38 5 7 C3.68 7.33 2.36 7.66 1 8 C1 9.65 1 11.3 1 13 C0.34 13 -0.32 13 -1 13 C-1.07654536 8.48382401 -1.10228696 4.40914783 0 0 Z " fill="#464645" transform="translate(197,448)"/>
<path d="M0 0 C1.5 1.0625 1.5 1.0625 3 3 C3.1875 6.6875 3.1875 6.6875 3 10 C1.3125 11.125 1.3125 11.125 -1 12 C-3.75 11.125 -3.75 11.125 -6 10 C-6 9.01 -6 8.02 -6 7 C-4.67732273 5.98594743 -3.34275169 4.98731742 -2 4 C-0.7483533 1.91665365 -0.7483533 1.91665365 0 0 Z " fill="#181816" transform="translate(451,245)"/>
<path d="M0 0 C2.14413657 3.21620485 3.66081546 6.53136846 5.1875 10.0625 C5.47302734 10.69994141 5.75855469 11.33738281 6.05273438 11.99414062 C6.76427903 13.63709898 7.38897327 15.31706973 8 17 C7.67 17.66 7.34 18.32 7 19 C5.171875 18.9296875 5.171875 18.9296875 3 18 C1.86392391 15.66207499 1.02839496 13.57767844 0.25 11.125 C-0.08064453 10.16787109 -0.08064453 10.16787109 -0.41796875 9.19140625 C-1.37610794 6.34079337 -2 4.0256129 -2 1 C-1.34 1.33 -0.68 1.66 0 2 C0 1.34 0 0.68 0 0 Z " fill="#373835" transform="translate(434,200)"/>
<path d="M0 0 C0.66 0 1.32 0 2 0 C2 1.65 2 3.3 2 5 C3.32 5 4.64 5 6 5 C6 5.66 6 6.32 6 7 C4.68 7.33 3.36 7.66 2 8 C1.67 9.65 1.34 11.3 1 13 C0.34 13 -0.32 13 -1 13 C-1.33 11.68 -1.66 10.36 -2 9 C-3.423125 9.99 -3.423125 9.99 -4.875 11 C-8 13 -8 13 -10 13 C-10 9.7 -10 6.4 -10 3 C-9.67 3 -9.34 3 -9 3 C-9 5.31 -9 7.62 -9 10 C-8.4225 9.525625 -7.845 9.05125 -7.25 8.5625 C-5.07417916 7.0515133 -3.57397552 6.45963849 -1 6 C-0.67 4.02 -0.34 2.04 0 0 Z " fill="#5A5B5A" transform="translate(425,448)"/>
<path d="M0 0 C0.99 0.33 1.98 0.66 3 1 C3.22084624 7.09781001 3.01167675 12.21642935 1 18 C0.34 18 -0.32 18 -1 18 C-1.03738281 17.30132812 -1.07476562 16.60265625 -1.11328125 15.8828125 C-1.17902344 14.97273438 -1.24476563 14.06265625 -1.3125 13.125 C-1.37050781 12.22007812 -1.42851562 11.31515625 -1.48828125 10.3828125 C-1.7882039 7.63778399 -1.7882039 7.63778399 -5 6 C-3.35 6 -1.7 6 0 6 C0 4.02 0 2.04 0 0 Z " fill="#676765" transform="translate(474,446)"/>
<path d="M0 0 C0.99 0 1.98 0 3 0 C5.15305957 3.85756507 6.39253254 6.55129785 6 11 C5.34 11 4.68 11 4 11 C4 11.99 4 12.98 4 14 C3.34 14 2.68 14 2 14 C-1.62870159 4.58997722 -1.62870159 4.58997722 0 0 Z " fill="#F4F6F8" transform="translate(371,270)"/>
<path d="M0 0 C-1.875 3.875 -1.875 3.875 -3 5 C-2.01 5.66 -1.02 6.32 0 7 C-0.99 8.485 -0.99 8.485 -2 10 C-0.68 10.33 0.64 10.66 2 11 C-2.455 12.485 -2.455 12.485 -7 14 C-6.67 12.68 -6.34 11.36 -6 10 C-6 8.68 -6 7.36 -6 6 C-5.67 5.01 -5.34 4.02 -5 3 C-5.66 2.67 -6.32 2.34 -7 2 C-4.35261084 0.5393715 -3.10551666 0 0 0 Z " fill="#6E6E6C" transform="translate(441,441)"/>
<path d="M0 0 C-1.65 0.66 -3.3 1.32 -5 2 C-5 3.98 -5 5.96 -5 8 C-2.69 7.34 -0.38 6.68 2 6 C1 9 1 9 -1.8125 10.6875 C-5 12 -5 12 -9 12 C-8.34 9.03 -7.68 6.06 -7 3 C-7.66 3 -8.32 3 -9 3 C-8.67 2.01 -8.34 1.02 -8 0 C-5.04215769 -1.22393475 -3.00272755 -0.96516243 0 0 Z " fill="#484846" transform="translate(546,449)"/>
<path d="M0 0 C-0.66 5.94 -1.32 11.88 -2 18 C-4 17 -4 17 -5 14 C-5.99 14.495 -5.99 14.495 -7 15 C-6.39301257 10.87248551 -4.96189209 7.6678852 -3 4 C-4.32 4 -5.64 4 -7 4 C-7 3.34 -7 2.68 -7 2 C-4.35261084 0.5393715 -3.10551666 0 0 0 Z " fill="#5B5B5A" transform="translate(381,445)"/>
<path d="M0 0 C0.33 0 0.66 0 1 0 C1.1799928 5.21979128 0.97094808 9.07262981 -1 14 C-1.33 12.68 -1.66 11.36 -2 10 C-2.70125 10.33 -3.4025 10.66 -4.125 11 C-7.26003116 12.09044562 -9.70563182 12.15322643 -13 12 C-12.67 11.01 -12.34 10.02 -12 9 C-9.78515625 8.26171875 -9.78515625 8.26171875 -7.0625 7.6875 C-4.35541454 7.0338425 -4.35541454 7.0338425 -2 6 C-0.23902514 2.98226415 -0.23902514 2.98226415 0 0 Z " fill="#3C3D3B" transform="translate(175,443)"/>
<path d="M0 0 C-0.11344376 2.1464753 -0.24106345 4.29220592 -0.375 6.4375 C-0.44460938 7.63246094 -0.51421875 8.82742188 -0.5859375 10.05859375 C-0.72257813 11.02925781 -0.85921875 11.99992187 -1 13 C-1.99 13.495 -1.99 13.495 -3 14 C-3 10.7 -3 7.4 -3 4 C-3.7425 4.33 -4.485 4.66 -5.25 5 C-8 6 -8 6 -12 6 C-12 5.34 -12 4.68 -12 4 C-10.56570999 3.32645501 -9.12742943 2.66140299 -7.6875 2 C-6.88699219 1.62875 -6.08648438 1.2575 -5.26171875 0.875 C-3 0 -3 0 0 0 Z " fill="#4D4D4B" transform="translate(559,458)"/>
<path d="M0 0 C4.62 0 9.24 0 14 0 C14 7.26 14 14.52 14 22 C13.67 22 13.34 22 13 22 C13 15.4 13 8.8 13 2 C4.65850618 2.22919044 4.65850618 2.22919044 1 5 C0.67 3.35 0.34 1.7 0 0 Z " fill="#141313" transform="translate(506,339)"/>
<path d="M0 0 C0.66 0.99 1.32 1.98 2 3 C1.67 4.65 1.34 6.3 1 8 C-4.28 8 -9.56 8 -15 8 C-15 7.67 -15 7.34 -15 7 C-13.329375 6.87625 -13.329375 6.87625 -11.625 6.75 C-7.94246056 6.42126213 -7.94246056 6.42126213 -6.5625 3.9375 C-6.376875 3.298125 -6.19125 2.65875 -6 2 C-5.01 2 -4.02 2 -3 2 C-3 2.99 -3 3.98 -3 5 C-2.34 5 -1.68 5 -1 5 C-0.67 3.35 -0.34 1.7 0 0 Z " fill="#353974" transform="translate(372,282)"/>
<path d="M0 0 C-0.47566406 1.05767578 -0.47566406 1.05767578 -0.9609375 2.13671875 C-2.04538286 5.12505879 -2.3964359 7.65069658 -2.625 10.8125 C-2.69976562 11.78832031 -2.77453125 12.76414062 -2.8515625 13.76953125 C-2.90054687 14.50558594 -2.94953125 15.24164063 -3 16 C-5.475 15.01 -5.475 15.01 -8 14 C-7.39301257 9.87248551 -5.96189209 6.6678852 -4 3 C-4.99 3.33 -5.98 3.66 -7 4 C-7 3.34 -7 2.68 -7 2 C-2.25 0 -2.25 0 0 0 Z " fill="#4F4F4D" transform="translate(390,448)"/>
<path d="M0 0 C0.33 0 0.66 0 1 0 C0.67 3.3 0.34 6.6 0 10 C1.32 9.34 2.64 8.68 4 8 C5.32 8 6.64 8 8 8 C7.67 8.99 7.34 9.98 7 11 C3.3962102 12.52160014 0.94779314 13 -3 13 C-2.45144652 8.428721 -1.58255197 4.32564205 0 0 Z " fill="#3C3C3B" transform="translate(260,450)"/>
<path d="M0 0 C0 0.99 0 1.98 0 3 C0.66 3.66 1.32 4.32 2 5 C-9.33987281 7.70142327 -19.41035241 8.19052073 -31 7 C-31 6.67 -31 6.34 -31 6 C-30.10861328 5.97812622 -30.10861328 5.97812622 -29.19921875 5.95581055 C-26.46554366 5.88061322 -23.73299583 5.78419478 -21 5.6875 C-20.06542969 5.66494141 -19.13085938 5.64238281 -18.16796875 5.61914062 C-11.58435598 5.36592475 -4.90020298 4.90020298 0 0 Z " fill="#C6C7C6" transform="translate(495,361)"/>
<path d="M0 0 C0.66 0 1.32 0 2 0 C2.05423638 1.91635217 2.09289963 3.83314925 2.125 5.75 C2.14820313 6.81734375 2.17140625 7.8846875 2.1953125 8.984375 C2.00487687 11.92470106 1.52670104 13.52361878 0 16 C-0.66 16 -1.32 16 -2 16 C-2.2358396 10.22192976 -1.86783046 5.48675196 0 0 Z " fill="#525251" transform="translate(362,437)"/>
<path d="M0 0 C0.66 0 1.32 0 2 0 C2 1.65 2 3.3 2 5 C3.65 5 5.3 5 7 5 C6.67 5.66 6.34 6.32 6 7 C3.4375 7.625 3.4375 7.625 1 8 C1 9.98 1 11.96 1 14 C0.34 14 -0.32 14 -1 14 C-2.36986301 3.55479452 -2.36986301 3.55479452 0 0 Z " fill="#525252" transform="translate(239,450)"/>
<path d="M0 0 C0.33 0 0.66 0 1 0 C1.19401633 1.81181405 1.38004375 3.62448532 1.5625 5.4375 C1.66691406 6.44683594 1.77132813 7.45617187 1.87890625 8.49609375 C1.91886719 9.32238281 1.95882813 10.14867187 2 11 C1 12 1 12 -2.59765625 12.09765625 C-4.08596867 12.0909822 -5.57426432 12.07902183 -7.0625 12.0625 C-8.20041992 12.05573242 -8.20041992 12.05573242 -9.36132812 12.04882812 C-11.24091871 12.0370068 -13.12046899 12.01907078 -15 12 C-14.34 9.03 -13.68 6.06 -13 3 C-12.67 3 -12.34 3 -12 3 C-12 5.64 -12 8.28 -12 11 C-8.04 11 -4.08 11 0 11 C0 7.37 0 3.74 0 0 Z " fill="#35396F" transform="translate(305,281)"/>
<path d="M0 0 C0.66 0 1.32 0 2 0 C2 1.65 2 3.3 2 5 C2.8971875 4.505 2.8971875 4.505 3.8125 4 C6 3 6 3 9 3 C9 3.66 9 4.32 9 5 C7.865625 5.5775 6.73125 6.155 5.5625 6.75 C2.62689703 8.35492635 2.62689703 8.35492635 1.0625 11.25 C1.041875 11.8275 1.02125 12.405 1 13 C0.34 13 -0.32 13 -1 13 C-0.67 8.71 -0.34 4.42 0 0 Z " fill="#4B4B4A" transform="translate(496,447)"/>
<path d="M0 0 C0.66 0 1.32 0 2 0 C1.9278125 0.6290625 1.855625 1.258125 1.78125 1.90625 C1.19534084 7.30963445 0.89937081 12.56602383 1 18 C0.34 17.67 -0.32 17.34 -1 17 C-1.625 14.4375 -1.625 14.4375 -2 12 C-2.99 12.495 -2.99 12.495 -4 13 C-3.40895235 8.15340923 -2.02055843 4.39251833 0 0 Z " fill="#60605E" transform="translate(520,445)"/>
<path d="M0 0 C0.33 0.66 0.66 1.32 1 2 C1.66 2 2.32 2 3 2 C2.54705135 3.75140143 2.08741252 5.50107344 1.625 7.25 C1.36976563 8.22453125 1.11453125 9.1990625 0.8515625 10.203125 C0.09776712 12.67889331 -0.66948478 14.78586018 -2 17 C-2.66 17.33 -3.32 17.66 -4 18 C-3.41632611 11.69632197 -1.95928381 6.01339937 0 0 Z " fill="#D5D9E8" transform="translate(388,266)"/>
<path d="M0 0 C1.63001953 0.01353516 1.63001953 0.01353516 3.29296875 0.02734375 C4.12441406 0.03894531 4.95585937 0.05054688 5.8125 0.0625 C5.4825 1.3825 5.1525 2.7025 4.8125 4.0625 C2.85348546 3.94867347 0.8952662 3.82108875 -1.0625 3.6875 C-2.15304687 3.61789062 -3.24359375 3.54828125 -4.3671875 3.4765625 C-7.1875 3.0625 -7.1875 3.0625 -9.1875 1.0625 C-5.90230525 -0.03256492 -3.45086585 -0.03710608 0 0 Z M-11.1875 2.0625 C-9.1875 3.0625 -9.1875 3.0625 -9.1875 3.0625 Z " fill="#1A1919" transform="translate(332.1875,252.9375)"/>
<path d="M0 0 C1.79068573 2.6860286 2.66055791 4.6626589 3.625 7.6875 C3.88539063 8.49574219 4.14578125 9.30398437 4.4140625 10.13671875 C4.60742188 10.75160156 4.80078125 11.36648437 5 12 C4.34 12 3.68 12 3 12 C2.525625 12.825 2.05125 13.65 1.5625 14.5 C0.7890625 15.7375 0.7890625 15.7375 0 17 C-0.99 17 -1.98 17 -3 17 C-2.34 16.34 -1.68 15.68 -1 15 C-0.75746187 12.78927023 -0.75746187 12.78927023 -0.875 10.375 C-0.89304687 9.55773437 -0.91109375 8.74046875 -0.9296875 7.8984375 C-0.95289063 7.27195313 -0.97609375 6.64546875 -1 6 C-0.34 6 0.32 6 1 6 C0.67 4.02 0.34 2.04 0 0 Z " fill="#353433" transform="translate(448,234)"/>
<path d="M0 0 C0.99 0.33 1.98 0.66 3 1 C4.47666292 4.49029418 4.07164685 8.27436386 4 12 C2.68 12 1.36 12 0 12 C-0.19401633 10.18818595 -0.38004375 8.37551468 -0.5625 6.5625 C-0.66691406 5.55316406 -0.77132813 4.54382813 -0.87890625 3.50390625 C-0.91886719 2.67761719 -0.95882813 1.85132813 -1 1 C-0.67 0.67 -0.34 0.34 0 0 Z " fill="#191918" transform="translate(301,213)"/>
<path d="M0 0 C0.66 0.33 1.32 0.66 2 1 C1.67 1.99 1.34 2.98 1 4 C1.84304688 3.75443359 1.84304688 3.75443359 2.703125 3.50390625 C5.13059056 2.97135003 7.26889681 2.90101319 9.75 2.9375 C10.54921875 2.94652344 11.3484375 2.95554687 12.171875 2.96484375 C12.77515625 2.97644531 13.3784375 2.98804688 14 3 C9.09731431 6.26845713 4.86826297 7.27944109 -1 7 C-1.04254356 5.00045254 -1.04080783 2.99958364 -1 1 C-0.67 0.67 -0.34 0.34 0 0 Z " fill="#565656" transform="translate(314,463)"/>
<path d="M0 0 C0.99 0.33 1.98 0.66 3 1 C3.25 7.625 3.25 7.625 1 11 C0.01 10.67 -0.98 10.34 -2 10 C-2.17942163 6.05272412 -2.09350689 3.4019487 0 0 Z " fill="#6A6A69" transform="translate(155,449)"/>
<path d="M0 0 C0 3.57508924 -0.73119643 6.69585047 -1.5 10.1875 C-1.7784375 11.45980469 -2.056875 12.73210937 -2.34375 14.04296875 C-2.5603125 15.01878906 -2.776875 15.99460937 -3 17 C-5.35951179 14.64048821 -5.34409415 13.98074365 -5.4375 10.75 C-5.36276208 5.60969166 -3.60792138 3.51772334 0 0 Z " fill="#303231" transform="translate(453,341)"/>
<path d="M0 0 C2.97 0.33 5.94 0.66 9 1 C8 4 8 4 6.15234375 4.94921875 C5.42144531 5.19285156 4.69054687 5.43648438 3.9375 5.6875 C2.83728516 6.06455078 2.83728516 6.06455078 1.71484375 6.44921875 C1.14894531 6.63097656 0.58304688 6.81273437 0 7 C0 4.69 0 2.38 0 0 Z " fill="#EBEBE9" transform="translate(540,451)"/>
<path d="M0 0 C1.65 0 3.3 0 5 0 C4.67 4.29 4.34 8.58 4 13 C3.01 13 2.02 13 1 13 C0.67 8.71 0.34 4.42 0 0 Z " fill="#121212" transform="translate(356,342)"/>
<path d="M0 0 C0.66 0.33 1.32 0.66 2 1 C2 5.33333333 2 9.66666667 2 14 C0.68 13.67 -0.64 13.34 -2 13 C-2.16682272 8.07872966 -2.24828052 4.49656104 0 0 Z " fill="#505483" transform="translate(388,278)"/>
<path d="M0 0 C0.66 0 1.32 0 2 0 C3.85776765 3.13498292 4.20140476 5.37471432 4 9 C3.67 7.68 3.34 6.36 3 5 C1.68 4.67 0.36 4.34 -1 4 C-1.391875 4.556875 -1.78375 5.11375 -2.1875 5.6875 C-4.2692458 8.3435205 -6.58333422 10.64864951 -9 13 C-9 9.26130751 -8.09514308 8.63449295 -5.625 5.9375 C-4.99851562 5.24527344 -4.37203125 4.55304688 -3.7265625 3.83984375 C-2.50602933 2.53923035 -1.26120903 1.26120903 0 0 Z " fill="#3D3C38" transform="translate(378,197)"/>
<path d="M0 0 C0.33 0 0.66 0 1 0 C1 2.64 1 5.28 1 8 C5.58147562 7.45022293 9.64913082 6.51774506 14 5 C14.66 5 15.32 5 16 5 C16 5.66 16 6.32 16 7 C10.10323091 10.1365793 6.57440531 10.11259167 0 9 C0 6.03 0 3.06 0 0 Z " fill="#727270" transform="translate(166,458)"/>
<path d="M0 0 C0.99 0 1.98 0 3 0 C3 4.29 3 8.58 3 13 C2.01 13 1.02 13 0 13 C0 8.71 0 4.42 0 0 Z " fill="#131313" transform="translate(187,342)"/>
<path d="M0 0 C0.66 0 1.32 0 2 0 C2 1.32 2 2.64 2 4 C4.64 3.67 7.28 3.34 10 3 C10 3.66 10 4.32 10 5 C6.17679443 6.42258812 3.08718695 7.24042276 -1 7 C-0.67 4.69 -0.34 2.38 0 0 Z " fill="#565656" transform="translate(490,463)"/>
<path d="M0 0 C0.66 0 1.32 0 2 0 C2 1.32 2 2.64 2 4 C3.98 4 5.96 4 8 4 C5.4345406 6.5654594 3.52313332 6.54046087 0 7 C0 8.98 0 10.96 0 13 C-0.66 13 -1.32 13 -2 13 C-1.85851011 11.3954444 -1.71164314 9.79136233 -1.5625 8.1875 C-1.48128906 7.29417969 -1.40007812 6.40085937 -1.31640625 5.48046875 C-1 3 -1 3 0 0 Z " fill="#545452" transform="translate(394,448)"/>
<path d="M0 0 C0.66 0 1.32 0 2 0 C2 1.32 2 2.64 2 4 C2.66 4 3.32 4 4 4 C2.62845496 6.95409701 1.01136276 9.44008376 -1 12 C-1.66 11.67 -2.32 11.34 -3 11 C-2.01 7.37 -1.02 3.74 0 0 Z " fill="#363634" transform="translate(551,445)"/>
<path d="M0 0 C0.33 0 0.66 0 1 0 C1 1.65 1 3.3 1 5 C3.64 4.67 6.28 4.34 9 4 C8 6 8 6 5.1875 7.125 C2 8 2 8 -2 8 C-1.125 1.125 -1.125 1.125 0 0 Z " fill="#323230" transform="translate(526,459)"/>
<path d="M0 0 C0.33 0 0.66 0 1 0 C1.125 6.625 1.125 6.625 0 10 C-0.66 10 -1.32 10 -2 10 C-2 8.35 -2 6.7 -2 5 C-3.98 5.66 -5.96 6.32 -8 7 C-8 6.34 -8 5.68 -8 5 C-5 3 -5 3 -1 3 C-0.67 2.01 -0.34 1.02 0 0 Z " fill="#7B7C7A" transform="translate(532,447)"/>
<path d="M0 0 C0.66 0.33 1.32 0.66 2 1 C2.0270043 2.45823212 2.04639787 3.91660675 2.0625 5.375 C2.07410156 6.18710938 2.08570313 6.99921875 2.09765625 7.8359375 C2 10 2 10 1 12 C0.01 11.67 -0.98 11.34 -2 11 C-1.85957123 9.35369672 -1.71250671 7.70795821 -1.5625 6.0625 C-1.48128906 5.14597656 -1.40007812 4.22945312 -1.31640625 3.28515625 C-1 1 -1 1 0 0 Z " fill="#F5F7F8" transform="translate(366,245)"/>
<path d="M0 0 C0.33 0.99 0.66 1.98 1 3 C-0.45287661 4.33927721 -1.91247259 5.67126847 -3.375 7 C-4.59316406 8.11375 -4.59316406 8.11375 -5.8359375 9.25 C-8 11 -8 11 -10 11 C-10.66 12.32 -11.32 13.64 -12 15 C-12.99 15 -13.98 15 -15 15 C-11.3325316 10.3045291 -7.5335554 6.66618613 -2.63671875 3.26171875 C-0.85887663 2.08053657 -0.85887663 2.08053657 0 0 Z " fill="#D4D7E5" transform="translate(414,231)"/>
<path d="M0 0 C0 0.66 0 1.32 0 2 C-2.12392506 2.6700834 -4.24917524 3.33596797 -6.375 4 C-7.55835938 4.37125 -8.74171875 4.7425 -9.9609375 5.125 C-13 6 -13 6 -15 6 C-15 5.34 -15 4.68 -15 4 C-9.76117654 1.19783862 -5.929913 0 0 0 Z " fill="#60605F" transform="translate(325,456)"/>
<path d="M0 0 C0.33 0 0.66 0 1 0 C1 1.98 1 3.96 1 6 C2.98 6 4.96 6 7 6 C5.66666667 6.66666667 4.33333333 7.33333333 3 8 C1.96875 8.53625 0.9375 9.0725 -0.125 9.625 C-3 11 -3 11 -5 11 C-4.67 10.01 -4.34 9.02 -4 8 C-3.34 7.67 -2.68 7.34 -2 7 C-1.26924352 4.6859378 -0.59861742 2.35171131 0 0 Z " fill="#686867" transform="translate(486,443)"/>
<path d="M0 0 C1.32 0.33 2.64 0.66 4 1 C4.17835515 5.54805635 3.99785435 8.8794254 2 13 C1.34 13 0.68 13 0 13 C0 8.71 0 4.42 0 0 Z " fill="#7B7B7B" transform="translate(273,450)"/>
<path d="M0 0 C0.99 0.33 1.98 0.66 3 1 C3 2.98 3 4.96 3 7 C1.68 7.33 0.36 7.66 -1 8 C-1.625 5.6875 -1.625 5.6875 -2 3 C-1.34 2.01 -0.68 1.02 0 0 Z " fill="#999997" transform="translate(486,456)"/>
<path d="M0 0 C-1.81115956 1.81115956 -4.61278227 1.38199448 -7.0625 1.5625 C-8.16722656 1.64628906 -9.27195312 1.73007812 -10.41015625 1.81640625 C-11.69212891 1.90728516 -11.69212891 1.90728516 -13 2 C-13 2.99 -13 3.98 -13 5 C-14.9375 4.1875 -14.9375 4.1875 -17 3 C-17.33 2.01 -17.66 1.02 -18 0 C-15.3753399 -0.19430855 -12.75053235 -0.38073238 -10.125 -0.5625 C-9.00544922 -0.64661133 -9.00544922 -0.64661133 -7.86328125 -0.73242188 C-2.2265625 -1.11328125 -2.2265625 -1.11328125 0 0 Z " fill="#30302F" transform="translate(375,297)"/>
<path d="M0 0 C1.43859375 -0.00773438 1.43859375 -0.00773438 2.90625 -0.015625 C5.5 0.25 5.5 0.25 8.5 2.25 C-3.02164009 3.58257403 -3.02164009 3.58257403 -8.5 2.25 C-5.14802157 0.01534771 -3.92208754 -0.02108649 0 0 Z " fill="#212668" transform="translate(313.5,231.75)"/>
<path d="M0 0 C0 0.66 0 1.32 0 2 C-1.41396902 2.50757862 -2.83131729 3.00574925 -4.25 3.5 C-5.43335938 3.91765625 -5.43335938 3.91765625 -6.640625 4.34375 C-9 5 -9 5 -13 5 C-13 4.34 -13 3.68 -13 3 C-11.39743892 2.49487756 -9.79288208 1.99608373 -8.1875 1.5 C-7.29417969 1.2215625 -6.40085938 0.943125 -5.48046875 0.65625 C-3 0 -3 0 0 0 Z " fill="#434343" transform="translate(223,461)"/>
<path d="M0 0 C0.99 0 1.98 0 3 0 C4.49821059 3.37097383 5 5.20442119 5 9 C2 8 2 8 0.8125 6.1875 C0 4 0 4 0 0 Z " fill="#2B2C28" transform="translate(429,193)"/>
<path d="M0 0 C1.48831242 0.00667405 2.97660807 0.01863442 4.46484375 0.03515625 C5.22345703 0.03966797 5.98207031 0.04417969 6.76367188 0.04882812 C8.64326246 0.06064945 10.52281274 0.07858547 12.40234375 0.09765625 C12.40234375 0.42765625 12.40234375 0.75765625 12.40234375 1.09765625 C11.57089844 1.14664063 10.73945313 1.195625 9.8828125 1.24609375 C8.79613281 1.32085937 7.70945312 1.395625 6.58984375 1.47265625 C5.51089844 1.54226562 4.43195313 1.611875 3.3203125 1.68359375 C0.21608189 1.90961358 0.21608189 1.90961358 -2.59765625 4.09765625 C-3.25765625 5.08765625 -3.91765625 6.07765625 -4.59765625 7.09765625 C-4.64019981 5.09810879 -4.63846408 3.09723989 -4.59765625 1.09765625 C-3.59765625 0.09765625 -3.59765625 0.09765625 0 0 Z " fill="#575886" transform="translate(276.59765625,198.90234375)"/>
<path d="M0 0 C0.66 1.32 1.32 2.64 2 4 C0.02 6.31 -1.96 8.62 -4 11 C-5 8 -5 8 -4.00390625 5.95703125 C-3.52824219 5.24933594 -3.05257813 4.54164063 -2.5625 3.8125 C-2.08941406 3.09707031 -1.61632812 2.38164062 -1.12890625 1.64453125 C-0.75636719 1.10183594 -0.38382812 0.55914062 0 0 Z " fill="#3F403F" transform="translate(341,449)"/>
<path d="M0 0 C2.99332739 0.9977758 3.94766315 1.7522025 6 4 C4.865625 4.28875 3.73125 4.5775 2.5625 4.875 C1.386875 5.24625 0.21125 5.6175 -1 6 C-1.33 6.66 -1.66 7.32 -2 8 C-2.33 6.02 -2.66 4.04 -3 2 C-2.01 1.34 -1.02 0.68 0 0 Z " fill="#D3D3D1" transform="translate(548,456)"/>
<path d="M0 0 C0.99 0.33 1.98 0.66 3 1 C2.67 3.31 2.34 5.62 2 8 C1.01 8 0.02 8 -1 8 C-1.125 2.25 -1.125 2.25 0 0 Z " fill="#636462" transform="translate(461,443)"/>
<path d="M0 0 C0.99 0.495 0.99 0.495 2 1 C2.4140625 3.72265625 2.4140625 3.72265625 2.625 7.0625 C2.69976562 8.16722656 2.77453125 9.27195313 2.8515625 10.41015625 C2.90054687 11.26480469 2.94953125 12.11945313 3 13 C2.01 13.33 1.02 13.66 0 14 C0 9.38 0 4.76 0 0 Z " fill="#424241" transform="translate(365,224)"/>
<path d="M0 0 C1.9375 0.5 1.9375 0.5 4 2 C4.80164631 4.64599341 5.17261762 7.23811813 5 10 C4.34 10.66 3.68 11.32 3 12 C2.49440092 10.56445975 1.9957251 9.1264798 1.5 7.6875 C1.2215625 6.88699219 0.943125 6.08648437 0.65625 5.26171875 C0 3 0 3 0 0 Z " fill="#282826" transform="translate(361,223)"/>
<path d="M0 0 C4.15189873 6.2278481 4.15189873 6.2278481 3.8125 10.1875 C3 12 3 12 0 14 C0.185625 13.030625 0.37125 12.06125 0.5625 11.0625 C0.706875 10.051875 0.85125 9.04125 1 8 C0.67 7.67 0.34 7.34 0 7 C-0.04092937 4.66702567 -0.04241723 2.33294775 0 0 Z " fill="#D6D9E7" transform="translate(395,218)"/>
<path d="M0 0 C0.66 0 1.32 0 2 0 C2 2.64 2 5.28 2 8 C2.66 8 3.32 8 4 8 C3.67 8.99 3.34 9.98 3 11 C2.01 10.67 1.02 10.34 0 10 C0 6.7 0 3.4 0 0 Z " fill="#565656" transform="translate(292,450)"/>
<path d="M0 0 C-2.85276137 2.93200474 -5.65079784 5.64315404 -9 8 C-8.6875 5.125 -8.6875 5.125 -8 2 C-4.77208445 -0.1519437 -3.71599191 -0.20086443 0 0 Z " fill="#3E4279" transform="translate(377,190)"/>
<path d="M0 0 C0 0.66 0 1.32 0 2 C-6.625 5 -6.625 5 -10 5 C-9 2 -9 2 -6.6875 0.8125 C-4 0 -4 0 0 0 Z " fill="#474745" transform="translate(172,444)"/>
<path d="M0 0 C0.66 0 1.32 0 2 0 C3.03159626 3.09478879 2.97482862 4.52631393 2.5625 7.6875 C2.46066406 8.49574219 2.35882813 9.30398438 2.25390625 10.13671875 C2.17011719 10.75160156 2.08632813 11.36648438 2 12 C1.34 12 0.68 12 0 12 C0 8.04 0 4.08 0 0 Z " fill="#1C1C1C" transform="translate(361,387)"/>
<path d="M0 0 C0 4.92319379 -3.42948067 7.41651432 -6.75 10.8125 C-7.4925 11.534375 -8.235 12.25625 -9 13 C-7.47987323 7.59510481 -3.72614782 4.01507372 0 0 Z " fill="#DCDFEC" transform="translate(371,195)"/>
<path d="M0 0 C0.33 0.99 0.66 1.98 1 3 C0.67 3.33 0.34 3.66 0 4 C1.65 4.33 3.3 4.66 5 5 C4.67 5.66 4.34 6.32 4 7 C0.7 7 -2.6 7 -6 7 C-4.02 4.69 -2.04 2.38 0 0 Z " fill="#CFD0CE" transform="translate(443,465)"/>
<path d="M0 0 C-0.99 2.97 -1.98 5.94 -3 9 C-3.66 7.68 -4.32 6.36 -5 5 C-4.67 4.34 -4.34 3.68 -4 3 C-4.99 3.33 -5.98 3.66 -7 4 C-7 3.34 -7 2.68 -7 2 C-2.25 0 -2.25 0 0 0 Z " fill="#5D5D5B" transform="translate(390,448)"/>
<path d="M0 0 C0.66 0.33 1.32 0.66 2 1 C2 2.65 2 4.3 2 6 C0.02 6.99 0.02 6.99 -2 8 C-2.125 5.125 -2.125 5.125 -2 2 C-1.34 1.34 -0.68 0.68 0 0 Z " fill="#7B7B7A" transform="translate(317,445)"/>
<path d="M0 0 C0.66 0.99 1.32 1.98 2 3 C1.125 5.6875 1.125 5.6875 0 8 C-1.32 8 -2.64 8 -4 8 C-2.87548273 5.0280615 -1.77706209 2.66559313 0 0 Z " fill="#DDE0ED" transform="translate(397,249)"/>
<path d="M0 0 C0.66 0 1.32 0 2 0 C2.66 2.31 3.32 4.62 4 7 C3.01 6.67 2.02 6.34 1 6 C0.67 6.66 0.34 7.32 0 8 C-0.66 6.02 -1.32 4.04 -2 2 C-1.34 2 -0.68 2 0 2 C0 1.34 0 0.68 0 0 Z " fill="#D2D5E4" transform="translate(413,221)"/>
<path d="M0 0 C-0.33 3.3 -0.66 6.6 -1 10 C-1.33 10 -1.66 10 -2 10 C-2 7.69 -2 5.38 -2 3 C-2.99 3 -3.98 3 -5 3 C-5 2.34 -5 1.68 -5 1 C-3 0 -3 0 0 0 Z " fill="#333331" transform="translate(559,458)"/>
<path d="M0 0 C-0.309375 0.598125 -0.61875 1.19625 -0.9375 1.8125 C-2.10209704 4.08956772 -2.10209704 4.08956772 -3 7 C-4.32 6.34 -5.64 5.68 -7 5 C-6.34 4.34 -5.68 3.68 -5 3 C-5.66 3 -6.32 3 -7 3 C-7 2.34 -7 1.68 -7 1 C-4.50935112 0.31292445 -2.62113708 0 0 0 Z " fill="#71716E" transform="translate(442,459)"/>
<path d="M0 0 C0.33 0 0.66 0 1 0 C1 2.31 1 4.62 1 7 C1.99 6.34 2.98 5.68 4 5 C4.99 5.33 5.98 5.66 7 6 C2.25 10 2.25 10 0 10 C0 6.7 0 3.4 0 0 Z " fill="#424341" transform="translate(415,451)"/>
<path d="M0 0 C0.33 0.99 0.66 1.98 1 3 C1.99 3.33 2.98 3.66 4 4 C3.01 4.33 2.02 4.66 1 5 C1 6.98 1 8.96 1 11 C0.34 11 -0.32 11 -1 11 C-1.14285714 3.57142857 -1.14285714 3.57142857 0 0 Z " fill="#2F302E" transform="translate(239,453)"/>
<path d="M0 0 C0.66 0 1.32 0 2 0 C2 1.65 2 3.3 2 5 C2.8971875 4.505 2.8971875 4.505 3.8125 4 C6 3 6 3 9 3 C9 3.66 9 4.32 9 5 C7.02 5.99 5.04 6.98 3 8 C3 7.34 3 6.68 3 6 C2.34 6 1.68 6 1 6 C0.67 4.02 0.34 2.04 0 0 Z " fill="#727270" transform="translate(496,447)"/>
<path d="M0 0 C-0.33 0.66 -0.66 1.32 -1 2 C-3.06640625 2.6328125 -3.06640625 2.6328125 -5.5625 3.125 C-6.38878906 3.29257812 -7.21507812 3.46015625 -8.06640625 3.6328125 C-8.70449219 3.75398438 -9.34257812 3.87515625 -10 4 C-10 3.01 -10 2.02 -10 1 C-6.21812119 -0.83691257 -4.05431692 -1.15837626 0 0 Z " fill="#656564" transform="translate(347,439)"/>
<path d="M0 0 C-0.33 0.66 -0.66 1.32 -1 2 C-4.47325181 3.1577506 -7.36067448 3.06866652 -11 3 C-8.89427904 -1.21144191 -4.11694326 -0.07767817 0 0 Z " fill="#434442" transform="translate(168,439)"/>
<path d="M0 0 C0.33 0.99 0.66 1.98 1 3 C1.66 3 2.32 3 3 3 C3.33 4.65 3.66 6.3 4 8 C2.68 8 1.36 8 0 8 C-0.79953138 4.71303767 -1.09658936 3.28976808 0 0 Z " fill="#FBFCFA" transform="translate(378,284)"/>
<path d="M0 0 C0.66 0.33 1.32 0.66 2 1 C2.1875 3.375 2.1875 3.375 2 6 C1.01 6.66 0.02 7.32 -1 8 C-1.66 6.68 -2.32 5.36 -3 4 C-2.34 4 -1.68 4 -1 4 C-0.67 2.68 -0.34 1.36 0 0 Z " fill="#F8F8F7" transform="translate(445,239)"/>
<path d="M0 0 C0.66 0 1.32 0 2 0 C3.64284201 2.95711562 4.6442194 5.62008426 5 9 C4.34 9.66 3.68 10.32 3 11 C2.49632243 9.54293274 1.99717444 8.08429904 1.5 6.625 C1.2215625 5.81289062 0.943125 5.00078125 0.65625 4.1640625 C0 2 0 2 0 0 Z " fill="#4E5086" transform="translate(333,215)"/>
<path d="M0 0 C0.66 0 1.32 0 2 0 C1.67 2.31 1.34 4.62 1 7 C1.66 7.33 2.32 7.66 3 8 C1.35 7.67 -0.3 7.34 -2 7 C-1.34 4.69 -0.68 2.38 0 0 Z " fill="#4D4D4B" transform="translate(354,452)"/>
<path d="M0 0 C0.33 0.66 0.66 1.32 1 2 C1.66 2 2.32 2 3 2 C2.34 3.98 1.68 5.96 1 8 C0.01 8 -0.98 8 -2 8 C-1.34 5.36 -0.68 2.72 0 0 Z " fill="#C3C7DB" transform="translate(388,266)"/>
<path d="M0 0 C0.33 0.66 0.66 1.32 1 2 C0.67 2.99 0.34 3.98 0 5 C0.99 5.33 1.98 5.66 3 6 C2.01 6 1.02 6 0 6 C-0.33 6.99 -0.66 7.98 -1 9 C-1.66 8.67 -2.32 8.34 -3 8 C-3 7.01 -3 6.02 -3 5 C-2.34 5 -1.68 5 -1 5 C-0.67 3.35 -0.34 1.7 0 0 Z " fill="#C1C1BF" transform="translate(537,456)"/>
<path d="M0 0 C0.33 0 0.66 0 1 0 C1 3.63 1 7.26 1 11 C0.34 10.67 -0.32 10.34 -1 10 C-1.86159454 6.76902047 -2.30597523 4.77513726 -1.0625 1.625 C-0.5365625 0.820625 -0.5365625 0.820625 0 0 Z " fill="#6C6C6A" transform="translate(378,452)"/>
<path d="M0 0 C0 0.66 0 1.32 0 2 C-4.455 3.485 -4.455 3.485 -9 5 C-6.42453433 -0.15093135 -5.59847872 0 0 0 Z " fill="#6F6F6E" transform="translate(267,444)"/>
<path d="M0 0 C0 1.32 0 2.64 0 4 C-2.64 4 -5.28 4 -8 4 C-6.4425489 0.88509781 -3.40085499 0 0 0 Z " fill="#AAAAA9" transform="translate(506,374)"/>
<path d="M0 0 C0.66 0.33 1.32 0.66 2 1 C2.625 3.5625 2.625 3.5625 3 6 C-0.75 7.125 -0.75 7.125 -3 6 C-3 5.34 -3 4.68 -3 4 C-2.34 4 -1.68 4 -1 4 C-0.67 2.68 -0.34 1.36 0 0 Z " fill="#DBDEE8" transform="translate(368,253)"/>
<path d="M0 0 C1.9451 2.91765 2.45276317 4.62537285 3 8 C2.34 8 1.68 8 1 8 C1 9.65 1 11.3 1 13 C0.67 13 0.34 13 0 13 C-0.33 10.69 -0.66 8.38 -1 6 C-0.34 6 0.32 6 1 6 C0.67 4.02 0.34 2.04 0 0 Z " fill="#50504F" transform="translate(448,234)"/>
<path d="M0 0 C1.65 0 3.3 0 5 0 C4.625 2.4375 4.625 2.4375 4 5 C3.01 5.495 3.01 5.495 2 6 C1.34 4.02 0.68 2.04 0 0 Z " fill="#E9ECF4" transform="translate(381,240)"/>
<path d="M0 0 C0.66 0.33 1.32 0.66 2 1 C-2.75 5.875 -2.75 5.875 -5 7 C-5.66 6.34 -6.32 5.68 -7 5 C-4.69 3.35 -2.38 1.7 0 0 Z " fill="#46487C" transform="translate(374,176)"/>
<path d="M0 0 C2.67927341 4.01891012 2.15601248 6.24161923 2 11 C1.34 10.67 0.68 10.34 0 10 C-0.77811718 6.18015204 -1.24386556 3.73159669 0 0 Z " fill="#7B7B79" transform="translate(519,452)"/>
<path d="M0 0 C0 0.66 0 1.32 0 2 C-2.64 2.66 -5.28 3.32 -8 4 C-7.67 3.01 -7.34 2.02 -7 1 C-4 0 -4 0 0 0 Z " fill="#797A78" transform="translate(544,443)"/>
<path d="M0 0 C0.99 0.33 1.98 0.66 3 1 C3.1875 3.375 3.1875 3.375 3 6 C2.01 6.66 1.02 7.32 0 8 C0 5.36 0 2.72 0 0 Z " fill="#282B69" transform="translate(389,282)"/>
<path d="M0 0 C1.32 0 2.64 0 4 0 C2.25 5.75 2.25 5.75 0 8 C0 5.36 0 2.72 0 0 Z " fill="#F9FCF5" transform="translate(301,250)"/>
<path d="M0 0 C-0.33 0.99 -0.66 1.98 -1 3 C-3.5625 4.1875 -3.5625 4.1875 -6 5 C-6.33 4.01 -6.66 3.02 -7 2 C-2.25 0 -2.25 0 0 0 Z " fill="#595957" transform="translate(548,455)"/>
<path d="M0 0 C0.33 1.32 0.66 2.64 1 4 C1.66 4.33 2.32 4.66 3 5 C2.01 6.32 1.02 7.64 0 9 C-0.66 8.67 -1.32 8.34 -2 8 C-1.34 5.36 -0.68 2.72 0 0 Z " fill="#444442" transform="translate(550,448)"/>
<path d="M0 0 C0.66 0 1.32 0 2 0 C2.66 2.31 3.32 4.62 4 7 C1.525 6.01 1.525 6.01 -1 5 C-0.67 3.35 -0.34 1.7 0 0 Z " fill="#121210" transform="translate(404,281)"/>
<path d="M0 0 C0.66 0.33 1.32 0.66 2 1 C1.360625 1.103125 0.72125 1.20625 0.0625 1.3125 C-0.9584375 1.6528125 -0.9584375 1.6528125 -2 2 C-2.33 2.99 -2.66 3.98 -3 5 C-3.99 5.33 -4.98 5.66 -6 6 C-6.66 5.34 -7.32 4.68 -8 4 C-6.71349294 3.30289269 -5.42059335 2.61757124 -4.125 1.9375 C-3.40570313 1.55464844 -2.68640625 1.17179688 -1.9453125 0.77734375 C-1.30335938 0.52082031 -0.66140625 0.26429688 0 0 Z " fill="#545784" transform="translate(384,171)"/>
<path d="M0 0 C0.33 0 0.66 0 1 0 C1 1.65 1 3.3 1 5 C1.66 5.33 2.32 5.66 3 6 C2.01 6 1.02 6 0 6 C-0.66 6.66 -1.32 7.32 -2 8 C-1.125 1.125 -1.125 1.125 0 0 Z " fill="#626361" transform="translate(526,459)"/>
<path d="M0 0 C0.33 0 0.66 0 1 0 C1 2.97 1 5.94 1 9 C0.34 7.68 -0.32 6.36 -1 5 C-1.66 5 -2.32 5 -3 5 C-1.125 1.125 -1.125 1.125 0 0 Z " fill="#C0C1BF" transform="translate(343,452)"/>
<path d="M0 0 C2.6875 0.3125 2.6875 0.3125 5 1 C4.67 1.99 4.34 2.98 4 4 C4 3.34 4 2.68 4 2 C1.69 2.33 -0.62 2.66 -3 3 C-1.8125 1.4375 -1.8125 1.4375 0 0 Z " fill="#666766" transform="translate(186,445)"/>
<path d="M0 0 C-0.66 1.32 -1.32 2.64 -2 4 C-2.99 4 -3.98 4 -5 4 C-5 3.67 -5 3.34 -5 3 C-5.66 2.67 -6.32 2.34 -7 2 C-4.35261084 0.5393715 -3.10551666 0 0 0 Z " fill="#959695" transform="translate(441,441)"/>
<path d="M0 0 C1.74627478 2.61941217 2.38722388 4.03824877 3 7 C1.35 6.67 -0.3 6.34 -2 6 C-1.34 4.02 -0.68 2.04 0 0 Z " fill="#52524F" transform="translate(439,212)"/>
</svg>
