<svg width="694" height="692" xmlns="http://www.w3.org/2000/svg" version="1.1">

 <g>
  <title>Layer 1</title>
  <path stroke="null" id="svg_1" fill="#F0F0F0" d="m138.99999,149c143.22,0 286.44,0 434,0c0,131.34001 0,262.68001 0,398.00002c-143.22,0 -286.44,0 -434,0c0,-131.34001 0,-262.68001 0,-398.00002z"/>
  <path id="svg_2" fill="#2C3072" d="m390,171c3.04975,5.88165 5.61911,11.82019 8,18c0.58781,1.5198 0.58781,1.5198 1.1875,3.07031c1.71173,4.4398 3.41569,8.88235 5.10156,13.33203c2.75532,7.24329 5.68522,14.35329 9.02344,21.34766c0.88993,2.91251 0.63787,4.35549 -0.3125,7.25c-2.1875,1.96484 -2.1875,1.96484 -5,3.9375c-14.69487,11.531 -20.87079,30.24795 -24,48.0625c-1.32,0 -2.64,0 -4,0c-2.75886,-6.50094 -4.97543,-13.04817 -6.98438,-19.81641c-1.19267,-3.73857 -2.66545,-7.29378 -4.28125,-10.86718c-1.46046,-4.60669 -1.19018,-7.42311 1.01563,-11.7461c0.7364,-1.1572 1.48677,-2.30562 2.25,-3.44531c0.57234,-0.88945 0.57234,-0.88945 1.15625,-1.79687c0.93585,-1.45057 1.88817,-2.89049 2.84375,-4.32813c1.89453,0.21875 1.89453,0.21875 4,1c1.01172,2.03125 1.01172,2.03125 1.6875,4.5c0.68079,3.0184 0.68079,3.0184 2.3125,5.5c0.4241,-0.56848 0.8482,-1.13695 1.28516,-1.72266c3.53651,-4.65575 7.07366,-8.77323 11.52734,-12.57421c1.42917,-1.6715 1.42917,-1.6715 1.03516,-3.99219c-0.99561,-3.18412 -2.1525,-6.2449 -3.41016,-9.33594c-0.25668,-0.63519 -0.51337,-1.27037 -0.77783,-1.9248c-1.57216,-3.86778 -3.19334,-7.7132 -4.83545,-11.55176c-0.36473,-0.85513 -0.72945,-1.71027 -1.10523,-2.59131c-0.72082,-1.68487 -1.44678,-3.36756 -2.17822,-5.04785c-0.49584,-1.15702 -0.49584,-1.15702 -1.00171,-2.3374c-0.29697,-0.68482 -0.59393,-1.36963 -0.8999,-2.0752c-0.63916,-1.84668 -0.63916,-1.84668 -0.63916,-4.84668c-0.66,0 -1.32,0 -2,0c-1.41377,2.63904 -2.3724,5.07121 -3,8c0.66,0.33 1.32,0.66 2,1c1.72667,3.45334 2.38064,6.15846 2,10c-1.35547,1.92188 -1.35547,1.92188 -3.1875,3.75c-3.31729,3.52503 -5.53121,7.04064 -7.67188,11.36719c-1.14062,1.88281 -1.14062,1.88281 -4.14062,3.88281c0.495,5.94 0.495,5.94 1,12c-1.485,0.495 -1.485,0.495 -3,1c-0.39832,-1.28197 -0.39832,-1.28197 -0.80469,-2.58984c-0.3532,-1.10473 -0.7064,-2.20946 -1.07031,-3.34766c-0.34805,-1.10215 -0.69609,-2.2043 -1.05469,-3.33984c-0.77055,-2.85145 -0.77055,-2.85145 -3.07031,-3.72266c-1.13461,6.84164 -0.75428,11.53076 1.4375,18.0625c0.26716,0.842 0.53432,1.684 0.80957,2.55151c0.89672,2.80262 1.82199,5.59456 2.75293,8.38599c0.3437,1.03963 0.68739,2.07926 1.0415,3.15039c1.7241,5.21235 3.46442,10.41871 5.22412,15.61914c0.57928,1.74311 1.15753,3.48656 1.73438,5.23047c0.23525,0.68498 0.47051,1.36995 0.71289,2.07568c1.30576,4.04938 1.17682,5.47579 0.28711,9.92432c-5.28,0 -10.56,0 -16,0c-2.60013,-6.71158 -4.82275,-13.51584 -7,-20.375c-0.34289,-1.0725 -0.68578,-2.145 -1.03906,-3.25c-2.05247,-6.43941 -4.04436,-12.89385 -5.96094,-19.375c-9.93767,-0.22904 -19.61511,0.08346 -29.4895,1.28857c-0.74854,0.0904 -1.49709,0.1808 -2.26831,0.27393c-0.65114,0.08379 -1.30228,0.16758 -1.97315,0.25391c-3.09252,0.25022 -6.16808,0.2098 -9.26904,0.18359c0.21205,1.12495 0.4241,2.2499 0.64258,3.40894c0.78726,4.18307 1.56859,8.36724 2.34814,12.55175c0.33791,1.80923 0.67741,3.61815 1.01856,5.42676c0.49073,2.60315 0.97565,5.20733 1.45947,7.81177c0.15312,0.8054 0.30623,1.61079 0.46399,2.4406c0.70308,3.81485 1.37364,7.46282 1.06726,11.36018c-1,1 -1,1 -4.59766,1.09766c-1.48831,-0.00668 -2.9766,-0.01864 -4.46484,-0.03516c-0.75861,-0.00451 -1.51723,-0.00902 -2.29883,-0.01367c-1.87959,-0.01182 -3.75914,-0.02976 -5.63867,-0.04883c-0.47697,-1.66939 -0.95338,-3.33894 -1.427,-5.00928c-0.52013,-1.80703 -1.06659,-3.60643 -1.61597,-5.40478c-1.06113,-3.97599 -1.68926,-7.8934 -2.26953,-11.96094c-2.10066,-13.92117 -5.00205,-27.68958 -7.92049,-41.45898c-0.42088,-1.98682 -0.83963,-3.97408 -1.25798,-5.96143c-0.53749,-2.54644 -1.08041,-5.09175 -1.62939,-7.63574c-0.24516,-1.16096 -0.49033,-2.32193 -0.74292,-3.51807c-0.21954,-1.0244 -0.43909,-2.0488 -0.66528,-3.10425c-0.48744,-3.04654 -0.62467,-5.8666 -0.47144,-8.94653c1,-1 1,-1 4.59766,-1.09766c1.48831,0.00668 2.9766,0.01864 4.46484,0.03516c0.75861,0.00451 1.51723,0.00902 2.29883,0.01367c1.87959,0.01182 3.75914,0.02976 5.63867,0.04883c1.38981,3.9694 2.471,7.86027 3.28906,11.98438c0.21914,1.09957 0.43828,2.19914 0.66406,3.33203c0.22172,1.13308 0.44344,2.26617 0.67188,3.43359c0.22945,1.14855 0.45891,2.29711 0.69531,3.48047c1.67969,8.48842 1.67969,8.48842 1.67969,10.76953c0.85042,-0.09088 0.85042,-0.09088 1.71802,-0.18359c13.14422,-1.37539 26.0678,-2.09107 39.28198,-1.81641c-0.24234,-0.76143 -0.48469,-1.52287 -0.73438,-2.30737c-1.09594,-3.45775 -2.18088,-6.91885 -3.26562,-10.38013c-0.57234,-1.79728 -0.57234,-1.79728 -1.15625,-3.63086c-0.36094,-1.15693 -0.72187,-2.31387 -1.09375,-3.50586c-0.33516,-1.06307 -0.67031,-2.12615 -1.01563,-3.22143c-0.69788,-2.80755 -0.96146,-5.07866 -0.73437,-7.95435c1.97796,-1.97796 5.62047,-1.27473 8.3125,-1.3125c1.0161,-0.04351 1.0161,-0.04351 2.05273,-0.08789c3.5843,-0.04555 5.29517,0.1239 8.11524,2.41992c0.50144,0.65356 1.00289,1.30711 1.51953,1.98047c0.495,-1.155 0.99,-2.31 1.5,-3.5c5.84854,-11.53518 25.69936,-29.31587 39.5,-27.5z"/>
  <path id="svg_3" fill="#2D3071" d="m390,171c3.04975,5.88165 5.61911,11.82019 8,18c0.58781,1.5198 0.58781,1.5198 1.1875,3.07031c1.71173,4.4398 3.41569,8.88235 5.10156,13.33203c2.75532,7.24329 5.68522,14.35329 9.02344,21.34766c0.88993,2.91251 0.63787,4.35549 -0.3125,7.25c-2.1875,1.96484 -2.1875,1.96484 -5,3.9375c-14.69487,11.531 -20.87079,30.24795 -24,48.0625c-1.32,0 -2.64,0 -4,0c-2.75886,-6.50094 -4.97543,-13.04817 -6.98438,-19.81641c-1.19267,-3.73857 -2.66545,-7.29378 -4.28125,-10.86718c-1.46046,-4.60669 -1.19018,-7.42311 1.01563,-11.7461c0.7364,-1.1572 1.48677,-2.30562 2.25,-3.44531c0.38156,-0.59297 0.76312,-1.18594 1.15625,-1.79687c0.93585,-1.45057 1.88817,-2.89049 2.84375,-4.32813c1.89453,0.21875 1.89453,0.21875 4,1c1.01172,2.03125 1.01172,2.03125 1.6875,4.5c0.68079,3.0184 0.68079,3.0184 2.3125,5.5c0.4241,-0.56848 0.8482,-1.13695 1.28516,-1.72266c3.53651,-4.65575 7.07366,-8.77323 11.52734,-12.57421c1.42917,-1.6715 1.42917,-1.6715 1.03516,-3.99219c-0.99561,-3.18412 -2.1525,-6.2449 -3.41016,-9.33594c-0.25668,-0.63519 -0.51337,-1.27037 -0.77783,-1.9248c-1.57216,-3.86778 -3.19334,-7.7132 -4.83545,-11.55176c-0.36473,-0.85513 -0.72945,-1.71027 -1.10523,-2.59131c-0.72082,-1.68487 -1.44678,-3.36756 -2.17822,-5.04785c-0.33056,-0.77135 -0.66113,-1.54269 -1.00171,-2.3374c-0.29697,-0.68482 -0.59393,-1.36963 -0.8999,-2.0752c-0.63916,-1.84668 -0.63916,-1.84668 -0.63916,-4.84668c-0.66,0 -1.32,0 -2,0c-1.41377,2.63904 -2.3724,5.07121 -3,8c0.66,0.33 1.32,0.66 2,1c1.72667,3.45334 2.38064,6.15846 2,10c-1.35547,1.92188 -1.35547,1.92188 -3.1875,3.75c-3.31729,3.52503 -5.53121,7.04064 -7.67188,11.36719c-1.14062,1.88281 -1.14062,1.88281 -4.14062,3.88281c0.33,3.96 0.66,7.92 1,12c-1.485,0.495 -1.485,0.495 -3,1c-0.26555,-0.85465 -0.53109,-1.7093 -0.80469,-2.58984c-0.3532,-1.10473 -0.7064,-2.20946 -1.07031,-3.34766c-0.34805,-1.10215 -0.69609,-2.2043 -1.05469,-3.33984c-0.77055,-2.85145 -0.77055,-2.85145 -3.07031,-3.72266c-0.66,2.31 -1.32,4.62 -2,7c-3.23732,-4.85598 -4.48193,-10.45167 -6.1875,-16c-0.38092,-1.20141 -0.76184,-2.40281 -1.1543,-3.64062c-0.35513,-1.14985 -0.71027,-2.29969 -1.07617,-3.48438c-0.32766,-1.05445 -0.65533,-2.10891 -0.99292,-3.19531c-0.58911,-2.67969 -0.58911,-2.67969 0.41089,-5.67969c0.33,0.66 0.66,1.32 1,2c0.495,-1.155 0.99,-2.31 1.5,-3.5c5.84854,-11.53518 25.69936,-29.31587 39.5,-27.5z"/>
  <path id="svg_4" fill="#2E3273" d="m398,178c5.61,0 11.22,0 17,0c6.15632,14.37328 12.1987,28.79203 18.11008,43.26773c0.67454,1.64979 1.35123,3.2987 2.03009,4.94672c0.96206,2.3375 1.91587,4.67821 2.86764,7.01993c0.28807,0.69593 0.57614,1.39187 0.87294,2.1089c1.56235,3.87351 2.60318,7.51042 3.11925,11.65672c-0.82178,0.16822 -0.82178,0.16822 -1.66016,0.33984c-19.15025,4.76421 -35.0078,19.62078 -45.60547,35.72266c-1.72425,2.92036 -3.26185,5.88339 -4.73437,8.9375c-1.32,-0.33 -2.64,-0.66 -4,-1c-0.57061,-15.69181 5.7404,-29.33749 15.83984,-41.15234c5.03762,-5.36728 10.8405,-9.13021 17.16016,-12.84766c-0.61256,-5.19447 -2.26852,-9.49357 -4.3125,-14.25c-0.60085,-1.42162 -1.20111,-2.8435 -1.80078,-4.26562c-0.30785,-0.72671 -0.61569,-1.45342 -0.93286,-2.20215c-1.34798,-3.22521 -2.63792,-6.47266 -3.92969,-9.72071c-1.02893,-2.57343 -2.07683,-5.1384 -3.12964,-7.70214c-0.69401,-1.70313 -1.38802,-3.40625 -2.08203,-5.10938c-0.53271,-1.28777 -0.53271,-1.28777 -1.07617,-2.60156c-0.5095,-1.25684 -0.5095,-1.25684 -1.0293,-2.53906c-0.30446,-0.74283 -0.60892,-1.48565 -0.92261,-2.25098c-0.78442,-2.3584 -0.78442,-2.3584 -1.78442,-8.3584z"/>
  <path id="svg_5" fill="#1D1D1D" d="m372,337c5.94,0 11.88,0 18,0c0,1.32 0,2.64 0,4c4.62,0 9.24,0 14,0c0,4.95 0,9.9 0,15c-0.99,0 -1.98,0 -3,0c0.32355,0.56977 0.64711,1.13953 0.98047,1.72656c2.12555,4.73974 1.55856,9.71625 -0.10547,14.52344c-2.92387,4.28835 -6.55801,6.87201 -10.875,9.75c-3.37894,0.48348 -6.77764,0.41647 -10.1875,0.4375c-0.92104,0.03287 -1.84207,0.06574 -2.79102,0.09961c-6.56493,0.05125 -10.9904,-1.22443 -16.02148,-5.53711c-4.21319,-4.82944 -4.40277,-9.36796 -4.23828,-15.64453c0.23828,-2.35547 0.23828,-2.35547 1.23828,-4.35547c-0.99,-0.33 -1.98,-0.66 -3,-1c0,-4.95 0,-9.9 0,-15c5.28,0 10.56,0 16,0c0,-1.32 0,-2.64 0,-4z"/>
  <path id="svg_6" fill="#1D1D1C" d="m506,338c4.95,0 9.9,0 15,0c0,17.49 0,34.98 0,53c-5.28,0 -10.56,0 -16,0c0,-0.99 0,-1.98 0,-3c-4.29,0 -8.58,0 -13,0c0,-2.97 0,-5.94 0,-9c-4.95,0.495 -4.95,0.495 -10,1c0,2.64 0,5.28 0,8c-5.28,0 -10.56,0 -16,0c0,-1.65 0,-3.3 0,-5c-0.60586,0.14437 -1.21172,0.28875 -1.83594,0.4375c-6.15061,1.3626 -11.8742,1.80339 -18.16406,1.5625c-0.3382,-1.5823 -0.67036,-3.16589 -1,-4.75c-0.18563,-0.88172 -0.37125,-1.76344 -0.5625,-2.67187c-0.4375,-2.57813 -0.4375,-2.57813 -0.4375,-6.57813c0.77376,-0.04488 1.54752,-0.08975 2.34473,-0.13599c27.85862,-1.13955 27.85862,-1.13955 54.87793,-7.31323c1.77734,-0.55078 1.77734,-0.55078 4.77734,-0.55078c0,-8.25 0,-16.5 0,-25z"/>
  <path id="svg_7" fill="#201F1F" d="m202,336c5.94,0 11.88,0 18,0c0,1.65 0,3.3 0,5c4.62,0 9.24,0 14,0c0,4.95 0,9.9 0,15c-1.32,0.33 -2.64,0.66 -4,1c0.495,0.99 0.495,0.99 1,2c0.1224,1.7677 0.17551,3.5406 0.1875,5.3125c0.01418,0.94488 0.02836,1.88977 0.04297,2.86328c-0.39925,4.89252 -2.02802,8.2856 -5.60547,11.63672c-4.99906,3.74725 -9.78141,3.85045 -15.8125,3.875c-0.86738,0.00685 -1.73476,0.0137 -2.62842,0.02075c-5.51398,-0.15531 -8.82188,-1.06073 -13.18408,-4.70825c-4.02763,-4.47514 -6.28672,-7.97674 -6.25,-14.0625c-0.00516,-0.85723 -0.01031,-1.71445 -0.01563,-2.59766c0.26563,-2.33984 0.26563,-2.33984 2.26563,-5.33984c-1.32,0 -2.64,0 -4,0c0,-4.95 0,-9.9 0,-15c5.28,0 10.56,0 16,0c0,-1.65 0,-3.3 0,-5z"/>
  <path id="svg_8" fill="#1D1C1C" d="m275,339c15.18,0 30.36,0 46,0c0,4.62 0,9.24 0,14c-4.29,0 -8.58,0 -13,0c-0.64895,5.70466 -0.64895,5.70466 1.8125,8.125c4.49461,2.64389 9.24751,4.24852 14.1875,5.875c-0.68887,3.38891 -1.98716,6.18012 -3.5625,9.25c-0.45504,0.89203 -0.91008,1.78406 -1.37891,2.70313c-0.524,1.0132 -0.524,1.0132 -1.05859,2.04687c-6.98201,-0.99743 -10.73439,-2.88973 -15.95703,-7.63672c-1.89512,-1.55286 -1.89512,-1.55286 -3.92578,-1.29297c-4.00008,1.7565 -7.6245,4.15111 -11.33985,6.4336c-2.77734,1.49609 -2.77734,1.49609 -5.77734,1.49609c0,0.66 0,1.32 0,2c-1.65,0 -3.3,0 -5,0c-2.84887,-4.65315 -4.58185,-8.67876 -6,-14c1.10859,-0.53109 2.21719,-1.06219 3.35937,-1.60937c1.46376,-0.71311 2.92729,-1.42668 4.39063,-2.14063c0.72961,-0.34805 1.45922,-0.69609 2.21094,-1.05469c3.9559,-1.94198 7.22159,-3.69482 10.03906,-7.19531c0.33,-0.99 0.66,-1.98 1,-3c-5.28,0 -10.56,0 -16,0c0,-4.62 0,-9.24 0,-14z"/>
  <path id="svg_9" fill="#2E3272" d="m402,202c2.31273,2.31273 2.82707,3.98367 3.875,7.0625c1.29078,3.67488 2.65028,7.26089 4.25,10.8125c0.4892,1.08668 0.4892,1.08668 0.98828,2.19531c0.71966,1.56613 1.45683,3.12421 2.19922,4.67969c0.88993,2.91251 0.63787,4.35549 -0.3125,7.25c-2.1875,1.96484 -2.1875,1.96484 -5,3.9375c-14.69487,11.531 -20.87079,30.24795 -24,48.0625c-1.32,0 -2.64,0 -4,0c-2.75886,-6.50094 -4.97543,-13.04817 -6.98438,-19.81641c-1.19267,-3.73857 -2.66545,-7.29378 -4.28125,-10.86718c-1.46046,-4.60669 -1.19018,-7.42311 1.01563,-11.7461c0.7364,-1.1572 1.48677,-2.30562 2.25,-3.44531c0.38156,-0.59297 0.76312,-1.18594 1.15625,-1.79687c0.93585,-1.45057 1.88817,-2.89049 2.84375,-4.32813c1.89453,0.21875 1.89453,0.21875 4,1c1.01172,2.03125 1.01172,2.03125 1.6875,4.5c0.68079,3.0184 0.68079,3.0184 2.3125,5.5c0.4241,-0.56848 0.8482,-1.13695 1.28516,-1.72266c3.02943,-3.98819 6.00807,-7.64873 9.71484,-11.02734c2.53477,-2.35216 2.53477,-2.35216 3.1875,-5.625c-0.71417,-1.57868 -1.43578,-3.15408 -2.17188,-4.72266c-0.53367,-1.15822 -0.53367,-1.15822 -1.07812,-2.33984c-0.53561,-1.15629 -0.53561,-1.15629 -1.08203,-2.33594c-1.08509,-2.8242 -1.16246,-5.23336 -0.85547,-8.22656c2,-1 2,-1 3.9375,-0.5c2.23915,0.73602 2.23915,0.73602 5.0625,-0.5c0,-1.98 0,-3.96 0,-6z"/>
  <path id="svg_10" fill="#1E1E1D" d="m472.3125,336.5625c0.98162,-0.01998 1.96324,-0.03996 2.97461,-0.06055c8.05429,0.00533 14.65895,1.65479 21.30273,6.31446c3.06214,4.74164 2.1309,10.80036 1.41016,16.18359c-3.03164,4.83168 -7.60161,6.59915 -13,8c-4.02953,0.41779 -8.01458,0.41989 -12.0625,0.375c-1.04994,0.0116 -2.09988,0.0232 -3.18164,0.03516c-6.70833,-0.02533 -12.25538,-0.32566 -17.49805,-4.94532c-3.46464,-4.67129 -4.73848,-7.30144 -4.66406,-13.07812c0.71076,-4.17569 3.08507,-6.87796 6.40625,-9.38672c6.05783,-3.35934 11.47244,-3.48633 18.3125,-3.4375z"/>
  <path id="svg_11" fill="#232321" d="m422,178c5.18756,2.30824 6.65989,5.78362 8.62891,10.81641c0.31638,0.77109 0.63275,1.54219 0.95872,2.33665c1.00683,2.46395 1.99104,4.93623 2.97487,7.40944c0.66455,1.63667 1.33055,3.27274 1.99805,4.9082c1.83262,4.50207 3.64043,9.01372 5.43945,13.5293c0.74468,1.86593 1.48945,3.73182 2.23438,5.59766c0.29849,0.74789 0.59699,1.49579 0.90454,2.26635c1.7847,4.42709 3.63226,8.82873 5.48022,13.22974c0.29455,0.70898 0.5891,1.41797 0.89258,2.14844c0.26256,0.62761 0.52513,1.25522 0.79565,1.90185c1.61819,4.3361 2.10733,8.21136 1.69263,12.85596c-2.64894,3.26442 -4.88297,4.54085 -8.875,5.6875c-19.4095,6.66798 -34.97532,22.66872 -44.11719,40.63281c-1.00781,1.67969 -1.00781,1.67969 -3.00781,2.67969c-7.32365,0.46499 -7.32365,0.46499 -10,-1.375c-1,-1.625 -1,-1.625 -1,-3.625c-1.45406,0.99 -1.45406,0.99 -2.9375,2c-4.52661,2.27959 -8.77798,2.44909 -13.75,2.5c-0.73662,0.01805 -1.47324,0.03609 -2.23218,0.05469c-3.74255,-0.04071 -5.9124,-0.44868 -9.09985,-2.46094c-1.98047,-2.09375 -1.98047,-2.09375 -1.98047,-4.09375c1.09699,-0.03738 2.19398,-0.07477 3.32422,-0.11328c1.45446,-0.06569 2.90888,-0.13213 4.36328,-0.19922c0.72123,-0.02256 1.44246,-0.04512 2.18555,-0.06836c4.57308,-0.2297 7.24778,-1.01206 11.12695,-3.61914c0.99,0 1.98,0 3,0c0.5775,0.66 1.155,1.32 1.75,2c2.19621,2.3129 2.19621,2.3129 5.75,2.5625c3.59429,-0.20546 3.59429,-0.20546 5.51953,-2.77344c1.84905,-2.60399 3.52895,-5.23677 5.16797,-7.97656c10.51862,-16.68625 24.90717,-27.23774 42.90625,-34.51562c2.96168,-1.11392 2.96168,-1.11392 4.90625,-3.29688c0.57558,-5.56394 -0.03143,-8.65108 -2.79687,-13.61719c-1.49738,-2.96557 -2.55096,-5.99484 -3.64063,-9.13281c-1.94193,-5.57561 -4.07187,-11.01973 -6.37891,-16.45312c-1.09478,-2.58702 -2.14823,-5.18562 -3.18359,-7.79688c-3.73134,-9.73806 -3.73134,-9.73806 -8.14844,-19.16406c-0.85156,-1.83594 -0.85156,-1.83594 -0.85156,-4.83594z"/>
  <path id="svg_12" fill="#242423" d="m193,387c5.94,0 11.88,0 18,0c0,2.64 0,5.28 0,8c15.84,0 31.68,0 48,0c0,4.95 0,9.9 0,15c-21.78,0 -43.56,0 -66,0c0,-7.59 0,-15.18 0,-23z"/>
  <path id="svg_13" fill="#171717" d="m453,389c2.94937,-0.02063 5.89875,-0.04125 8.9375,-0.0625c0.93062,-0.0091 1.86125,-0.01821 2.82007,-0.02759c0.7284,-0.0025 1.4568,-0.00499 2.20727,-0.00757c0.74887,-0.00523 1.49773,-0.01047 2.26929,-0.01587c1.76587,0.11353 1.76587,0.11353 2.76587,1.11353c0,1.65 0,3.3 0,5c16.17,0 32.34,0 49,0c0,4.95 0,9.9 0,15c-22.44,0 -44.88,0 -68,0c0,-6.93 0,-13.86 0,-21z"/>
  <path id="svg_14" fill="#272727" d="m279,385c5.94,0 11.88,0 18,0c0,3.3 0,6.6 0,10c14.85,0 29.7,0 45,0c0,4.95 0,9.9 0,15c-20.79,0 -41.58,0 -63,0c0,-8.25 0,-16.5 0,-25z"/>
  <path id="svg_15" fill="#1D1C1C" d="m360,386c21.78,0 43.56,0 66,0c0,7.92 0,15.84 0,24c-5.28,0 -10.56,0 -16,0c0,-3.3 0,-6.6 0,-10c-16.5,0 -33,0 -50,0c0,-4.62 0,-9.24 0,-14z"/>
  <path id="svg_16" fill="#222121" d="m243,338c5.28,0 10.56,0 16,0c0,16.17 0,32.34 0,49c-5.28,0 -10.56,0 -16,0c0,-2.64 0,-5.28 0,-8c-2.31,0 -4.62,0 -7,0c0,-4.95 0,-9.9 0,-15c2.31,0 4.62,0 7,0c0,-1.65 0,-3.3 0,-5c-2.31,0 -4.62,0 -7,0c0,-4.95 0,-9.9 0,-15c2.31,0 4.62,0 7,0c0,-1.98 0,-3.96 0,-6z"/>
  <path id="svg_17" fill="#F6F6F7" d="m381,187c0.66,0 1.32,0 2,0c12.793,30.46112 12.793,30.46112 15,37c0.30035,0.83402 0.6007,1.66805 0.91016,2.52734c0.08984,2.47266 0.08984,2.47266 -1.82422,4.90235c-0.89461,0.80695 -1.78922,1.6139 -2.71094,2.44531c-4.07242,3.82075 -7.33143,7.4582 -10.375,12.125c-2.96052,-3.36423 -3.9229,-6.69159 -5,-11c-0.99,0 -1.98,0 -3,0c-0.33,0.66 -0.66,1.32 -1,2c-0.66,0 -1.32,0 -2,0c-0.66,0.66 -1.32,1.32 -2,2c-0.10313,-0.59813 -0.20625,-1.19625 -0.3125,-1.8125c-0.49949,-2.25275 -0.49949,-2.25275 -2.1875,-3.5c-2.4485,-2.75457 -2.5,-5.07916 -2.5,-8.6875c2.0625,-2.3125 2.0625,-2.3125 5,-5c1.59112,-2.4841 3.03887,-5.02003 4.47266,-7.59766c1.52734,-2.40234 1.52734,-2.40234 3.6914,-4.55859c2.06979,-1.70384 2.06979,-1.70384 2.14844,-4.28125c-0.31226,-2.56057 -0.73775,-5.04797 -1.3125,-7.5625c-0.99,-0.33 -1.98,-0.66 -3,-1c0.59687,-3.3425 1.73604,-5.46436 4,-8z"/>
  <path id="svg_18" fill="#1E1E1D" d="m410,338c5.28,0 10.56,0 16,0c0,4.95 0,9.9 0,15c2.64,0 5.28,0 8,0c0,4.95 0,9.9 0,15c-2.64,0 -5.28,0 -8,0c0,4.62 0,9.24 0,14c-5.28,0 -10.56,0 -16,0c0,-14.52 0,-29.04 0,-44z"/>
  <path id="svg_19" fill="#181818" d="m327,338c4.95,0 9.9,0 15,0c0,15.84 0,31.68 0,48c-4.95,0 -9.9,0 -15,0c0,-15.84 0,-31.68 0,-48z"/>
  <path id="svg_20" fill="#EAECEF" d="m379,188c0.66,0.33 1.32,0.66 2,1c-0.495,0.43312 -0.99,0.86625 -1.5,1.3125c-1.83218,1.6849 -1.83218,1.6849 -1.5,4.6875c0.66,0.33 1.32,0.66 2,1c1.72667,3.45334 2.38064,6.15846 2,10c-1.35547,1.92188 -1.35547,1.92188 -3.1875,3.75c-3.31729,3.52503 -5.53121,7.04064 -7.67188,11.36719c-1.14062,1.88281 -1.14062,1.88281 -4.14062,3.88281c0.33,3.96 0.66,7.92 1,12c-1.485,0.495 -1.485,0.495 -3,1c-0.26555,-0.85465 -0.53109,-1.7093 -0.80469,-2.58984c-0.3532,-1.10473 -0.7064,-2.20946 -1.07031,-3.34766c-0.34805,-1.10215 -0.69609,-2.2043 -1.05469,-3.33984c-0.77055,-2.85145 -0.77055,-2.85145 -3.07031,-3.72266c-0.66,2.31 -1.32,4.62 -2,7c-3.23732,-4.85598 -4.48193,-10.45167 -6.1875,-16c-0.38092,-1.20141 -0.76184,-2.40281 -1.1543,-3.64062c-0.35513,-1.14985 -0.71027,-2.29969 -1.07617,-3.48438c-0.32766,-1.05445 -0.65533,-2.10891 -0.99292,-3.19531c-0.58911,-2.67969 -0.58911,-2.67969 0.41089,-5.67969c0.33,0.66 0.66,1.32 1,2c0.66,-0.99 1.32,-1.98 2,-3c0.66,0 1.32,0 2,0c0.67058,1.79021 1.33635,3.58221 2,5.375c0.55688,1.4966 0.55688,1.4966 1.125,3.02344c0.875,2.60156 0.875,2.60156 0.875,4.60156c0.99,0 1.98,0 3,0c0.11215,-0.57234 0.2243,-1.14469 0.33984,-1.73437c2.66735,-9.15422 11.17209,-16.84094 18.66016,-22.26563z"/>
  <path id="svg_21" fill="#272726" d="m339,253c0.495,2.97 0.495,2.97 1,6c-9.01814,1.14516 -17.92806,1.09472 -27,1c0.18176,0.75281 0.36352,1.50563 0.55078,2.28125c7.87801,33.28965 7.87801,33.28965 5.19922,39.71875c-2.04902,2.34174 -3.71115,3.85717 -6.86304,4.29053c-2.60868,0.04906 -5.21528,0.08078 -7.82446,0.08447c-0.90686,0.02449 -1.81371,0.04898 -2.74805,0.07422c-6.65172,0.02937 -6.65172,0.02937 -9.94336,-2.34766c-1.37109,-2.10156 -1.37109,-2.10156 -1.37109,-4.10156c1.75377,-0.02127 1.75377,-0.02127 3.54297,-0.04297c1.54821,-0.04691 3.09639,-0.09516 4.64453,-0.14453c0.76893,-0.0058 1.53785,-0.0116 2.33008,-0.01758c4.05452,-0.15661 6.08852,-0.53014 9.5332,-2.8457c4.38959,-6.64156 1.33187,-15.56732 0.01172,-22.94922c-1.16578,-6.65691 -2.29566,-13.28411 -3.0625,-20c10.67911,-0.6315 21.29836,-1.17292 32,-1z"/>
  <path id="svg_22" fill="#E8EBF2" d="m394,178c1.32,0 2.64,0 4,0c3.53742,8.94821 7.00577,17.89643 10.125,27c1.87735,5.45434 4.00726,10.5446 6.70313,15.65625c5.28431,10.56862 5.28431,10.56862 5.08593,15.46484c-1.34668,2.76818 -3.25419,3.57023 -5.91406,5.06641c-13.53352,8.27438 -21.05839,19.79734 -25.17578,35c-0.73156,2.4963 -1.48178,4.59053 -2.82422,6.8125c-0.99,0.495 -0.99,0.495 -2,1c1.29587,-16.84628 9.66609,-35.06648 22.50781,-46.16797c2.12819,-1.67119 4.27481,-3.28192 6.49219,-4.83203c-0.65904,-7.57894 -3.48152,-14.07258 -6.94922,-20.78516c-2.42003,-4.79672 -4.07455,-9.77005 -5.76172,-14.85937c-1.50361,-4.42192 -3.27165,-8.50034 -5.49511,-12.61133c-1.05046,-2.30764 -1.10591,-4.24845 -0.79395,-6.74414z"/>
  <path id="svg_23" fill="#1E1E1C" d="m380,197c1.86762,3.15161 2.36898,5.34879 2,9c-1.35547,1.92188 -1.35547,1.92188 -3.1875,3.75c-3.31729,3.52503 -5.53121,7.04064 -7.67188,11.36719c-1.14062,1.88281 -1.14062,1.88281 -4.14062,3.88281c0.33,3.96 0.66,7.92 1,12c-1.485,0.495 -1.485,0.495 -3,1c-0.84277,-2.39288 -1.67437,-4.78871 -2.5,-7.1875c-0.23848,-0.67354 -0.47695,-1.34707 -0.72266,-2.04102c-1.25111,-3.66398 -2.30727,-6.89012 -1.77734,-10.77148c0.70125,-0.55688 1.4025,-1.11375 2.125,-1.6875c2.89022,-2.32474 3.96459,-3.94773 5.75,-7.125c6.96944,-12.1875 6.96944,-12.1875 12.125,-12.1875z"/>
  <path id="svg_24" fill="#E6E7E5" d="m560,443c0.66,0 1.32,0 2,0c-0.673,6.35828 -1.47604,12.679 -2.4375,19c-0.12182,0.85723 -0.24363,1.71445 -0.36914,2.59766c-0.1244,0.81339 -0.24879,1.62679 -0.37695,2.46484c-0.10885,0.73348 -0.21769,1.46695 -0.32984,2.22266c-0.24085,0.84884 -0.24085,0.84884 -0.48657,1.71484c-0.66,0.33 -1.32,0.66 -2,1c0,-3.3 0,-6.6 0,-10c-0.72187,0.33 -1.44375,0.66 -2.1875,1c-2.82947,1.00604 -4.84145,1.16977 -7.8125,1c0,-1.65 0,-3.3 0,-5c-0.7425,0.33 -1.485,0.66 -2.25,1c-2.75,1 -2.75,1 -6.75,1c0.66,-2.97 1.32,-5.94 2,-9c-0.66,0 -1.32,0 -2,0c0.33,-0.99 0.66,-1.98 1,-3c2.64,-0.33 5.28,-0.66 8,-1c-0.33,0.66 -0.66,1.32 -1,2c-2.0625,0.625 -2.0625,0.625 -4,1c0,1.98 0,3.96 0,6c2.91393,-1.03004 5.51084,-2.15091 8,-4c1.30988,-2.74551 1.5914,-4.93552 2,-8c0.66,0 1.32,0 2,0c0,1.32 0,2.64 0,4c0.78375,-0.495 1.5675,-0.99 2.375,-1.5c2.625,-1.5 2.625,-1.5 4.625,-1.5c0,-0.99 0,-1.98 0,-3z"/>
  <path id="svg_25" fill="#363633" d="m422,178c5.18756,2.30824 6.65989,5.78362 8.62891,10.81641c0.47457,1.15664 0.47457,1.15664 0.95872,2.33665c1.00683,2.46395 1.99104,4.93623 2.97487,7.40944c0.66455,1.63667 1.33055,3.27274 1.99805,4.9082c2.24733,5.52095 4.45506,11.0574 6.6604,16.59522c1.5419,3.86991 3.10415,7.72612 4.73608,11.55908c0.30744,0.72574 0.61488,1.45148 0.93164,2.19922c0.63012,1.48403 1.26578,2.96572 1.90625,4.44531c0.7937,1.88653 1.50682,3.80657 2.20508,5.73047c-1.34173,2.68346 -3.0018,4.76672 -5,7c-0.99,0 -1.98,0 -3,0c0.99,-0.99 0.99,-0.99 2,-2c0.57558,-5.56394 -0.03143,-8.65108 -2.79687,-13.61719c-1.49738,-2.96557 -2.55096,-5.99484 -3.64063,-9.13281c-1.94193,-5.57561 -4.07187,-11.01973 -6.37891,-16.45312c-1.09478,-2.58702 -2.14823,-5.18562 -3.18359,-7.79688c-3.73134,-9.73806 -3.73134,-9.73806 -8.14844,-19.16406c-0.85156,-1.83594 -0.85156,-1.83594 -0.85156,-4.83594z"/>
  <path id="svg_26" fill="#606060" d="m453,389c2.94937,-0.02063 5.89875,-0.04125 8.9375,-0.0625c0.93062,-0.0091 1.86125,-0.01821 2.82007,-0.02759c0.7284,-0.0025 1.4568,-0.00499 2.20727,-0.00757c0.74887,-0.00523 1.49773,-0.01047 2.26929,-0.01587c1.76587,0.11353 1.76587,0.11353 2.76587,1.11353c0,1.65 0,3.3 0,5c16.17,0 32.34,0 49,0c0,4.95 0,9.9 0,15c-22.44,0 -44.88,0 -68,0c0,-6.93 0,-13.86 0,-21zm1,1c-0.02063,1.67063 -0.04125,3.34125 -0.0625,5.0625c-0.0116,0.93973 -0.0232,1.87945 -0.03516,2.84766c0.10688,3.38143 0.61921,6.74072 1.09766,10.08984c21.45,0 42.9,0 65,0c0,-3.96 0,-7.92 0,-12c-16.17,0 -32.34,0 -49,0c0,-1.98 0,-3.96 0,-6c-5.61,0 -11.22,0 -17,0z"/>
  <path id="svg_27" fill="#E8E8E6" d="m381,445c0,1.32 0,2.64 0,4c4.455,-0.495 4.455,-0.495 9,-1c-0.31711,0.70512 -0.63422,1.41023 -0.96094,2.13672c-1.08444,2.98834 -1.4355,5.51398 -1.66406,8.67578c-0.07477,0.97582 -0.14953,1.95164 -0.22656,2.95703c-0.04899,0.73606 -0.09797,1.47211 -0.14844,2.23047c-0.7773,-0.34805 -1.55461,-0.69609 -2.35547,-1.05469c-2.59479,-1.24966 -2.59479,-1.24966 -4.95703,-0.07031c-0.83531,0.55688 -0.83531,0.55688 -1.6875,1.125c-0.66,-1.65 -1.32,-3.3 -2,-5c-0.99,0.495 -0.99,0.495 -2,1c0.60699,-4.12751 2.03811,-7.33211 4,-11c-1.32,0 -2.64,0 -4,0c0,-0.66 0,-1.32 0,-2c2.64739,-1.46063 3.89448,-2 7,-2z"/>
  <path id="svg_28" fill="#393938" d="m351,436c-0.6395,5.49972 -0.6395,5.49972 -2.53125,8.125c-2.08689,4.08498 -1.79514,7.67533 -1.65625,12.1875c0.01354,0.83596 0.02707,1.67191 0.04102,2.5332c0.03517,2.05171 0.08897,4.10309 0.14648,6.1543c-0.66,0 -1.32,0 -2,0c-1.21694,-2.43388 -1.3196,-4.41839 -1.5625,-7.125c-0.08379,-0.91008 -0.16758,-1.82016 -0.25391,-2.75781c-0.06058,-0.69867 -0.12117,-1.39735 -0.18359,-2.11719c-2.97,3.465 -2.97,3.465 -6,7c-0.33,-0.99 -0.66,-1.98 -1,-3c1.19276,-2.25889 2.41124,-4.31545 3.8125,-6.4375c2.23302,-3.4645 4.33905,-6.86561 6.1875,-10.5625c-4.455,1.485 -4.455,1.485 -9,3c0,-0.99 0,-1.98 0,-3c1.57968,-0.67528 3.16392,-1.3399 4.75,-2c0.88172,-0.37125 1.76344,-0.7425 2.67187,-1.125c2.57813,-0.875 2.57813,-0.875 6.57813,-0.875z"/>
  <path id="svg_29" fill="#434442" d="m560,443c0.66,0 1.32,0 2,0c-0.14231,1.41703 -0.28901,2.83361 -0.4375,4.25c-0.08121,0.78891 -0.16242,1.57781 -0.24609,2.39063c-0.29276,2.18302 -0.73705,4.23669 -1.31641,6.35937c-0.66,0 -1.32,0 -2,0c0.33,-2.31 0.66,-4.62 1,-7c-4.21764,2.57055 -4.21764,2.57055 -7.5625,6.125c-1.85868,2.42436 -3.57898,2.89892 -6.4375,3.875c-0.68062,0.37125 -1.36125,0.7425 -2.0625,1.125c-1.9375,0.875 -1.9375,0.875 -5.9375,0.875c0.66,-2.97 1.32,-5.94 2,-9c-0.66,0 -1.32,0 -2,0c0.33,-0.99 0.66,-1.98 1,-3c2.64,-0.33 5.28,-0.66 8,-1c-0.33,0.66 -0.66,1.32 -1,2c-2.0625,0.625 -2.0625,0.625 -4,1c0,1.98 0,3.96 0,6c2.91393,-1.03004 5.51084,-2.15091 8,-4c1.30988,-2.74551 1.5914,-4.93552 2,-8c0.66,0 1.32,0 2,0c0,1.32 0,2.64 0,4c0.78375,-0.495 1.5675,-0.99 2.375,-1.5c2.625,-1.5 2.625,-1.5 4.625,-1.5c0,-0.99 0,-1.98 0,-3z"/>
  <path id="svg_30" fill="#4F4F4D" d="m474,446c0.99,0.33 1.98,0.66 3,1c0.22085,6.09781 0.01168,11.21643 -2,17c-0.66,0 -1.32,0 -2,0c-0.33,-2.97 -0.66,-5.94 -1,-9c-2.31,0.66 -4.62,1.32 -7,2c-0.04898,0.84305 -0.09797,1.68609 -0.14844,2.55469c-0.07476,1.0957 -0.14953,2.1914 -0.22656,3.32031c-0.06961,1.09055 -0.13922,2.18109 -0.21094,3.30469c-0.41406,2.82031 -0.41406,2.82031 -2.41406,4.82031c-0.14286,-8.57143 -0.14286,-8.57143 1,-12c-1.98,0.33 -3.96,0.66 -6,1c1.01403,-2.69651 1.66966,-3.81056 4.20703,-5.26562c0.85981,-0.32485 1.71961,-0.64969 2.60547,-0.98438c1.27811,-0.50273 1.27811,-0.50273 2.58203,-1.01562c2.66618,-0.75149 4.851,-0.87285 7.60547,-0.73438c0,-1.98 0,-3.96 0,-6z"/>
  <path id="svg_31" fill="#323231" d="m316,281c3.41645,5.12467 4.10239,10.84977 3.8125,16.9375c-0.80103,3.01928 -1.33652,4.23243 -3.8125,6.0625c0,-0.99 0,-1.98 0,-3c-0.78375,-0.12375 -1.5675,-0.2475 -2.375,-0.375c-2.625,-0.625 -2.625,-0.625 -4.625,-2.625c0.49113,-0.53109 0.98227,-1.06219 1.48828,-1.60937c1.94182,-3.07078 1.81664,-5.03984 1.69922,-8.64063c-0.02707,-1.07766 -0.05414,-2.15531 -0.08203,-3.26562c-0.03481,-0.81985 -0.06961,-1.63969 -0.10547,-2.48438c0.33,0.66 0.66,1.32 1,2c0.99,-0.99 1.98,-1.98 3,-3z"/>
  <path id="svg_32" fill="#EDEFEE" d="m378.05859,357.73438c0.78504,0.00516 1.57008,0.01031 2.37891,0.01562c1.17369,-0.00773 1.17369,-0.00773 2.37109,-0.01562c2.19141,0.26563 2.19141,0.26563 5.19141,2.26563c0.375,3 0.375,3 0,6c-3.13412,2.0894 -3.97451,2.27364 -7.5625,2.25c-1.17756,0.00773 -1.17756,0.00773 -2.37891,0.01562c-2.05859,-0.26562 -2.05859,-0.26562 -4.05859,-2.26562c-0.25,-3 -0.25,-3 0,-6c2,-2 2,-2 4.05859,-2.26563z"/>
  <path id="svg_33" fill="#E9EAEA" d="m209.9375,357.6875c2.6088,0.07589 3.83497,0.1815 6.125,1.5c0.9375,1.8125 0.9375,1.8125 0.75,4.375c-0.8125,2.4375 -0.8125,2.4375 -2.8125,4.4375c-1.875,0.26563 -1.875,0.26563 -4,0.25c-0.70125,0.00516 -1.4025,0.01031 -2.125,0.01563c-1.875,-0.26563 -1.875,-0.26563 -3.875,-2.26563c-0.25,-3 -0.25,-3 0,-6c2,-2 2,-2 5.9375,-2.3125z"/>
  <path id="svg_34" fill="#ECEDEC" d="m473.5,347.75c1.43859,-0.00773 1.43859,-0.00773 2.90625,-0.01562c2.59375,0.26562 2.59375,0.26562 5.59375,2.26562c-0.33,1.65 -0.66,3.3 -1,5c-4.95,0 -9.9,0 -15,0c-0.33,-1.65 -0.66,-3.3 -1,-5c3.35198,-2.23465 4.57791,-2.27109 8.5,-2.25z"/>
  <path id="svg_35" fill="#2C2D2A" d="m297,200c2.73765,1.0038 3.79258,1.56151 5.0625,4.24609c2.286,6.71513 3.25189,13.68008 2.9375,20.75391c-1.32,0 -2.64,0 -4,0c-0.67684,-3.03949 -1.33962,-6.08189 -2,-9.125c-0.19078,-0.85594 -0.38156,-1.71187 -0.57812,-2.59375c-0.97108,-4.50858 -1.66548,-8.63771 -1.42188,-13.28125z"/>
  <path id="svg_36" fill="#121110" d="m341,396c0,3.96 0,7.92 0,12c-0.66,0 -1.32,0 -2,0c0,-2.97 0,-5.94 0,-9c-13.86,0 -27.72,0 -42,0c0.33,-0.66 0.66,-1.32 1,-2c5.8024,-0.14273 11.60481,-0.28513 17.40723,-0.42725c1.97493,-0.04841 3.94987,-0.09691 5.9248,-0.1455c2.83463,-0.06973 5.66927,-0.13915 8.50391,-0.2085c0.8865,-0.02187 1.773,-0.04375 2.68637,-0.06628c6.24995,-0.15247 6.24995,-0.15247 8.47769,-0.15247z"/>
  <path id="svg_37" fill="#E4E9F2" d="m397,249c0.66,0.99 1.32,1.98 2,3c-0.66983,2.53047 -1.77689,4.6258 -3.11328,6.86719c-3.2835,5.55043 -5.24906,11.00635 -6.99219,17.21484c-0.77159,2.51694 -1.53692,4.66927 -2.89453,6.91797c-0.99,0.495 -0.99,0.495 -2,1c0.82265,-10.6945 5.06016,-27.06016 13,-35z"/>
  <path id="svg_38" fill="#121212" d="m280,386c4.95,0 9.9,0 15,0c-0.33,1.32 -0.66,2.64 -1,4c-3.63,-0.33 -7.26,-0.66 -11,-1c0,6.27 0,12.54 0,19c-0.99,0 -1.98,0 -3,0c0,-7.26 0,-14.52 0,-22z"/>
  <path id="svg_39" fill="#7A7A79" d="m217,442c0.66,0 1.32,0 2,0c-0.66,5.28 -1.32,10.56 -2,16c-0.66,0 -1.32,0 -2,0c-0.33,1.65 -0.66,3.3 -1,5c2.97,-0.66 5.94,-1.32 9,-2c0,0.66 0,1.32 0,2c-1.41397,0.50758 -2.83132,1.00575 -4.25,1.5c-0.78891,0.27844 -1.57781,0.55688 -2.39063,0.84375c-2.35937,0.65625 -2.35937,0.65625 -6.35937,0.65625c0,-0.66 0,-1.32 0,-2c0.66,0 1.32,0 2,0c0.88452,-4.59949 1.17047,-6.91441 -1,-11c-0.07773,-2.33204 -0.08968,-4.66839 0,-7c0.66,0 1.32,0 2,0c0,1.98 0,3.96 0,6c0.66,-0.33 1.32,-0.66 2,-1c0.68729,-2.11846 0.68729,-2.11846 1.125,-4.5625c0.16758,-0.82629 0.33516,-1.65258 0.50781,-2.50391c0.12117,-0.63808 0.24235,-1.27617 0.36719,-1.93359z"/>
  <path id="svg_40" fill="#5A5B5A" d="m228,450c0.33,0 0.66,0 1,0c0.33,2.97 0.66,5.94 1,9c1.31588,-1.12105 2.6276,-2.24697 3.9375,-3.375c0.7309,-0.62648 1.4618,-1.25297 2.21484,-1.89844c1.93147,-1.60404 1.93147,-1.60404 2.84766,-3.72656c0.66,0 1.32,0 2,0c0,1.65 0,3.3 0,5c1.65,0 3.3,0 5,0c-0.33,0.66 -0.66,1.32 -1,2c-2.5625,0.625 -2.5625,0.625 -5,1c0,1.98 0,3.96 0,6c-0.66,0 -1.32,0 -2,0c-0.33,-2.64 -0.66,-5.28 -1,-8c-0.5427,0.51691 -1.08539,1.03383 -1.64453,1.56641c-1.07315,0.98806 -1.07315,0.98806 -2.16797,1.99609c-1.06154,0.99193 -1.06154,0.99193 -2.14453,2.00391c-0.67418,0.47308 -1.34836,0.94617 -2.04297,1.43359c-0.99,-0.33 -1.98,-0.66 -3,-1c0.14095,-1.62543 0.28792,-3.25034 0.4375,-4.875c0.08121,-0.90492 0.16242,-1.80984 0.24609,-2.74219c0.31641,-2.38281 0.31641,-2.38281 1.31641,-4.38281z"/>
  <path id="svg_41" fill="#E5E7EE" d="m368,253c3.49124,1.74562 3.96577,5.89881 5.1875,9.4375c0.28553,0.78955 0.57105,1.5791 0.86523,2.39258c0.26491,0.75603 0.52981,1.51207 0.80274,2.29101c0.24387,0.69537 0.48775,1.39074 0.73901,2.10718c0.40552,1.77173 0.40552,1.77173 -0.59448,3.77173c-0.33,-0.99 -0.66,-1.98 -1,-3c-0.99,0 -1.98,0 -3,0c0,0.66 0,1.32 0,2c-0.66,0 -1.32,0 -2,0c-0.67008,-2.12393 -1.33597,-4.24918 -2,-6.375c-0.37125,-1.18336 -0.7425,-2.36672 -1.125,-3.58594c-0.875,-3.03906 -0.875,-3.03906 -0.875,-5.03906c0.66,0 1.32,0 2,0c0.33,-1.32 0.66,-2.64 1,-4z"/>
  <path id="svg_42" fill="#474745" d="m442,459c-1.875,3.875 -1.875,3.875 -3,5c1.32,0.33 2.64,0.66 4,1c-1.36984,3.16116 -1.98906,3.99271 -5,6c2.97,0 5.94,0 9,0c-5.15401,3.43601 -8.77702,4.24404 -15,4c0.33,-0.99 0.66,-1.98 1,-3c0.66,0 1.32,0 2,0c0,-0.66 0,-1.32 0,-2c0.66,-0.66 1.32,-1.32 2,-2c-1.32,0 -2.64,0 -4,0c1.15173,-2.468 2.04784,-4.04784 4,-6c-0.66,0 -1.32,0 -2,0c0,-0.66 0,-1.32 0,-2c2.49065,-0.68708 4.37886,-1 7,-1z"/>
  <path id="svg_43" fill="#3A3A39" d="m165,458c0.66,0 1.32,0 2,0c0,2.64 0,5.28 0,8c4.58148,-0.54978 8.64913,-1.48225 13,-3c0.66,0 1.32,0 2,0c0,0.66 0,1.32 0,2c-2.57861,1.03444 -5.16175,2.05272 -7.75,3.0625c-0.72961,0.29455 -1.45922,0.5891 -2.21094,0.89258c-0.70898,0.27392 -1.41797,0.54785 -2.14843,0.83008c-0.64937,0.2566 -1.29874,0.5132 -1.96778,0.77758c-2.28918,0.52056 -3.71542,0.1609 -5.92285,-0.56274c0.85714,-8.57143 0.85714,-8.57143 3,-12z"/>
  <path id="svg_44" fill="#545452" d="m193,444c-0.91,6.63 -0.91,6.63 -1.5625,9.3125c-0.68579,4.21271 -0.51192,8.42889 -0.4375,12.6875c-0.99,-0.33 -1.98,-0.66 -3,-1c-0.33,-1.98 -0.66,-3.96 -1,-6c-0.33,0.66 -0.66,1.32 -1,2c-0.66,0 -1.32,0 -2,0c0.53395,-4.5386 2.41974,-7.29088 5,-11c0.33,-0.99 0.66,-1.98 1,-3c-2.31,0.33 -4.62,0.66 -7,1c3.04139,-3.4976 5.44652,-4 10,-4z"/>
  <path id="svg_45" fill="#F6F6F3" d="m367,201c1.32,0 2.64,0 4,0c-0.3469,6.7645 -4.31517,12.31517 -9,17c-0.99,0 -1.98,0 -3,0c-0.33,0.66 -0.66,1.32 -1,2c-0.25,-2.75 -0.25,-2.75 0,-6c1.875,-2.125 1.875,-2.125 4,-4c1.09166,-1.93331 1.09166,-1.93331 2,-4c1.375,-2.75 1.375,-2.75 3,-5z"/>
  <path id="svg_46" fill="#121211" d="m276,339c9.57,0.33 19.14,0.66 29,1c0,0.66 0,1.32 0,2c-6.2117,0.9216 -12.22609,1.12177 -18.5,1.0625c-0.91781,-0.00451 -1.83563,-0.00902 -2.78125,-0.01367c-2.23965,-0.01167 -4.47917,-0.02803 -6.71875,-0.04883c0,2.31 0,4.62 0,7c-0.33,0 -0.66,0 -1,0c0,-3.63 0,-7.26 0,-11z"/>
  <path id="svg_47" fill="#5F5F5E" d="m303,448c0.66,0.33 1.32,0.66 2,1c0,1.32 0,2.64 0,4c1.65,-0.33 3.3,-0.66 5,-1c0,0.66 0,1.32 0,2c-0.80438,0.22687 -1.60875,0.45375 -2.4375,0.6875c-0.84563,0.43313 -1.69125,0.86625 -2.5625,1.3125c-0.89386,2.54775 -0.89386,2.54775 -1,5c-0.66,0 -1.32,0 -2,0c-0.33,-1.32 -0.66,-2.64 -1,-4c-0.92813,0.68062 -1.85625,1.36125 -2.8125,2.0625c-1.05187,0.63937 -2.10375,1.27875 -3.1875,1.9375c-0.99,-0.33 -1.98,-0.66 -3,-1c0,-3.3 0,-6.6 0,-10c0.66,0 1.32,0 2,0c0,2.64 0,5.28 0,8c1.11375,-0.66 2.2275,-1.32 3.375,-2c3.375,-2 3.375,-2 5.625,-2c0,-1.98 0,-3.96 0,-6z"/>
  <path id="svg_48" fill="#3E3E3D" d="m354,452c0.66,0 1.32,0 2,0c-0.33,2.31 -0.66,4.62 -1,7c0.56203,-0.16371 1.12406,-0.32742 1.70313,-0.49609c2.42746,-0.53256 4.56577,-0.6029 7.04687,-0.56641c0.79922,0.00902 1.59844,0.01805 2.42188,0.02734c0.60328,0.01161 1.20656,0.02321 1.82812,0.03516c0,0.66 0,1.32 0,2c-1.89385,0.50744 -3.79019,1.00565 -5.6875,1.5c-1.05574,0.27844 -2.11148,0.55687 -3.19922,0.84375c-2.82471,0.59542 -5.24165,0.78411 -8.11328,0.65625c0.55106,-3.94926 1.38935,-7.3492 3,-11z"/>
  <path id="svg_49" fill="#40403E" d="m351,436c-0.51472,4.42656 -1.55927,7.2901 -4,11c-0.68096,1.32609 -1.35331,2.65687 -2,4c0,-0.99 0,-1.98 0,-3c-0.66,0 -1.32,0 -2,0c1.875,-5.75 1.875,-5.75 3,-8c-4.455,1.485 -4.455,1.485 -9,3c0,-0.99 0,-1.98 0,-3c1.57968,-0.67528 3.16392,-1.3399 4.75,-2c0.88172,-0.37125 1.76344,-0.7425 2.67187,-1.125c2.57813,-0.875 2.57813,-0.875 6.57813,-0.875z"/>
  <path id="svg_50" fill="#4A4A48" d="m276,445c0.33,0 0.66,0 1,0c0.05435,2.0622 0.09295,4.12483 0.125,6.1875c0.0232,1.14855 0.04641,2.29711 0.07031,3.48047c-0.19047,3.24943 -0.80171,5.41864 -2.19531,8.33203c-0.66,0 -1.32,0 -2,0c0.33,-3.96 0.66,-7.92 1,-12c-1.65,0.33 -3.3,0.66 -5,1c0,0.66 0,1.32 0,2c-0.99,0 -1.98,0 -3,0c0.9973,-2.49325 1.65075,-3.77467 3.9375,-5.25c2.0625,-0.75 2.0625,-0.75 5.0625,-0.75c0.33,-0.99 0.66,-1.98 1,-3z"/>
  <path id="svg_51" fill="#30336F" d="m276.59766,198.90234c1.48831,0.00667 2.97661,0.01863 4.46484,0.03516c0.75862,0.00451 1.51723,0.00902 2.29883,0.01367c1.87959,0.01182 3.75914,0.02976 5.63867,0.04883c0,0.33 0,0.66 0,1c-5.94,0.495 -5.94,0.495 -12,1c0.99,0.33 1.98,0.66 3,1c0,0.66 0,1.32 0,2c-0.99,0.33 -1.98,0.66 -3,1c-0.33,3.63 -0.66,7.26 -1,11c-3.53645,-3.53646 -3.92432,-8.61252 -4.1875,-13.4375c0.2925,-3.99748 0.60688,-3.54674 4.78516,-3.66016z"/>
  <path id="svg_52" fill="#393937" d="m155,431c0.66,0 1.32,0 2,0c-0.33,3.3 -0.66,6.6 -1,10c1.02094,-0.495 1.02094,-0.495 2.0625,-1c3.4459,-1.17307 6.32147,-1.1418 9.9375,-1c-1,2 -1,2 -4.05469,3.07031c-1.89105,0.52207 -1.89105,0.52207 -3.82031,1.05469c-1.25555,0.3532 -2.51109,0.70641 -3.80469,1.07031c-3.32031,0.80469 -3.32031,0.80469 -6.32031,0.80469c0,-0.99 0,-1.98 0,-3c0.99,-0.33 1.98,-0.66 3,-1c0.66,-3.3 1.32,-6.6 2,-10z"/>
  <path id="svg_53" fill="#464645" d="m197,448c0.66,0 1.32,0 2,0c0,1.65 0,3.3 0,5c1.65,-0.33 3.3,-0.66 5,-1c0,-1.32 0,-2.64 0,-4c0.66,0 1.32,0 2,0c-0.14076,1.9587 -0.28777,3.91696 -0.4375,5.875c-0.08121,1.09055 -0.16242,2.18109 -0.24609,3.30469c-0.31641,2.82031 -0.31641,2.82031 -1.31641,4.82031c-0.66,0 -1.32,0 -2,0c0,-2.31 0,-4.62 0,-7c-1.32,0.33 -2.64,0.66 -4,1c0,1.65 0,3.3 0,5c-0.66,0 -1.32,0 -2,0c-0.07655,-4.51618 -0.10229,-8.59085 1,-13z"/>
  <path id="svg_54" fill="#181816" d="m451,245c1.5,1.0625 1.5,1.0625 3,3c0.1875,3.6875 0.1875,3.6875 0,7c-1.6875,1.125 -1.6875,1.125 -4,2c-2.75,-0.875 -2.75,-0.875 -5,-2c0,-0.99 0,-1.98 0,-3c1.32268,-1.01405 2.65725,-2.01268 4,-3c1.25165,-2.08335 1.25165,-2.08335 2,-4z"/>
  <path id="svg_55" fill="#373835" d="m434,200c2.14414,3.2162 3.66082,6.53137 5.1875,10.0625c0.28553,0.63744 0.57105,1.27488 0.86523,1.93164c0.71155,1.64296 1.33624,3.32293 1.94727,5.00586c-0.33,0.66 -0.66,1.32 -1,2c-1.82812,-0.07031 -1.82812,-0.07031 -4,-1c-1.13608,-2.33793 -1.97161,-4.42232 -2.75,-6.875c-0.33064,-0.95713 -0.33064,-0.95713 -0.66797,-1.93359c-0.95814,-2.85062 -1.58203,-5.1658 -1.58203,-8.19141c0.66,0.33 1.32,0.66 2,1c0,-0.66 0,-1.32 0,-2z"/>
  <path id="svg_56" fill="#5A5B5A" d="m425,448c0.66,0 1.32,0 2,0c0,1.65 0,3.3 0,5c1.32,0 2.64,0 4,0c0,0.66 0,1.32 0,2c-1.32,0.33 -2.64,0.66 -4,1c-0.33,1.65 -0.66,3.3 -1,5c-0.66,0 -1.32,0 -2,0c-0.33,-1.32 -0.66,-2.64 -1,-4c-1.42313,0.99 -1.42313,0.99 -2.875,2c-3.125,2 -3.125,2 -5.125,2c0,-3.3 0,-6.6 0,-10c0.33,0 0.66,0 1,0c0,2.31 0,4.62 0,7c0.5775,-0.47438 1.155,-0.94875 1.75,-1.4375c2.17582,-1.51099 3.67602,-2.10286 6.25,-2.5625c0.33,-1.98 0.66,-3.96 1,-6z"/>
  <path id="svg_57" fill="#676765" d="m474,446c0.99,0.33 1.98,0.66 3,1c0.22085,6.09781 0.01168,11.21643 -2,17c-0.66,0 -1.32,0 -2,0c-0.03738,-0.69867 -0.07477,-1.39734 -0.11328,-2.11719c-0.06574,-0.91008 -0.13149,-1.82015 -0.19922,-2.75781c-0.05801,-0.90492 -0.11602,-1.80984 -0.17578,-2.74219c-0.29992,-2.74503 -0.29992,-2.74503 -3.51172,-4.38281c1.65,0 3.3,0 5,0c0,-1.98 0,-3.96 0,-6z"/>
  <path id="svg_58" fill="#F4F6F8" d="m371,270c0.99,0 1.98,0 3,0c2.15306,3.85757 3.39253,6.5513 3,11c-0.66,0 -1.32,0 -2,0c0,0.99 0,1.98 0,3c-0.66,0 -1.32,0 -2,0c-3.6287,-9.41002 -3.6287,-9.41002 -2,-14z"/>
  <path id="svg_59" fill="#6E6E6C" d="m441,441c-1.875,3.875 -1.875,3.875 -3,5c0.99,0.66 1.98,1.32 3,2c-0.99,1.485 -0.99,1.485 -2,3c1.32,0.33 2.64,0.66 4,1c-4.455,1.485 -4.455,1.485 -9,3c0.33,-1.32 0.66,-2.64 1,-4c0,-1.32 0,-2.64 0,-4c0.33,-0.99 0.66,-1.98 1,-3c-0.66,-0.33 -1.32,-0.66 -2,-1c2.64739,-1.46063 3.89448,-2 7,-2z"/>
  <path id="svg_60" fill="#484846" d="m546,449c-1.65,0.66 -3.3,1.32 -5,2c0,1.98 0,3.96 0,6c2.31,-0.66 4.62,-1.32 7,-2c-1,3 -1,3 -3.8125,4.6875c-3.1875,1.3125 -3.1875,1.3125 -7.1875,1.3125c0.66,-2.97 1.32,-5.94 2,-9c-0.66,0 -1.32,0 -2,0c0.33,-0.99 0.66,-1.98 1,-3c2.95784,-1.22393 4.99727,-0.96516 8,0z"/>
  <path id="svg_61" fill="#5B5B5A" d="m381,445c-0.66,5.94 -1.32,11.88 -2,18c-2,-1 -2,-1 -3,-4c-0.99,0.495 -0.99,0.495 -2,1c0.60699,-4.12751 2.03811,-7.33211 4,-11c-1.32,0 -2.64,0 -4,0c0,-0.66 0,-1.32 0,-2c2.64739,-1.46063 3.89448,-2 7,-2z"/>
  <path id="svg_62" fill="#3C3D3B" d="m175,443c0.33,0 0.66,0 1,0c0.17999,5.21979 -0.02905,9.07263 -2,14c-0.33,-1.32 -0.66,-2.64 -1,-4c-0.70125,0.33 -1.4025,0.66 -2.125,1c-3.13503,1.09045 -5.58063,1.15323 -8.875,1c0.33,-0.99 0.66,-1.98 1,-3c2.21484,-0.73828 2.21484,-0.73828 4.9375,-1.3125c2.70709,-0.65366 2.70709,-0.65366 5.0625,-1.6875c1.76097,-3.01774 1.76097,-3.01774 2,-6z"/>
  <path id="svg_63" fill="#4D4D4B" d="m559,458c-0.11344,2.14648 -0.24106,4.29221 -0.375,6.4375c-0.06961,1.19496 -0.13922,2.38992 -0.21094,3.62109c-0.13664,0.97067 -0.27328,1.94133 -0.41406,2.94141c-0.99,0.495 -0.99,0.495 -2,1c0,-3.3 0,-6.6 0,-10c-0.7425,0.33 -1.485,0.66 -2.25,1c-2.75,1 -2.75,1 -6.75,1c0,-0.66 0,-1.32 0,-2c1.43429,-0.67354 2.87257,-1.3386 4.3125,-2c0.80051,-0.37125 1.60102,-0.7425 2.42578,-1.125c2.26172,-0.875 2.26172,-0.875 5.26172,-0.875z"/>
  <path id="svg_64" fill="#141313" d="m506,339c4.62,0 9.24,0 14,0c0,7.26 0,14.52 0,22c-0.33,0 -0.66,0 -1,0c0,-6.6 0,-13.2 0,-20c-8.34149,0.22919 -8.34149,0.22919 -12,3c-0.33,-1.65 -0.66,-3.3 -1,-5z"/>
  <path id="svg_65" fill="#353974" d="m372,282c0.66,0.99 1.32,1.98 2,3c-0.33,1.65 -0.66,3.3 -1,5c-5.28,0 -10.56,0 -16,0c0,-0.33 0,-0.66 0,-1c1.67062,-0.12375 1.67062,-0.12375 3.375,-0.25c3.68254,-0.32874 3.68254,-0.32874 5.0625,-2.8125c0.18562,-0.63937 0.37125,-1.27875 0.5625,-1.9375c0.99,0 1.98,0 3,0c0,0.99 0,1.98 0,3c0.66,0 1.32,0 2,0c0.33,-1.65 0.66,-3.3 1,-5z"/>
  <path id="svg_66" fill="#4F4F4D" d="m390,448c-0.47566,1.05768 -0.47566,1.05768 -0.96094,2.13672c-1.08444,2.98834 -1.4355,5.51398 -1.66406,8.67578c-0.07477,0.97582 -0.14953,1.95164 -0.22656,2.95703c-0.04899,0.73606 -0.09797,1.47211 -0.14844,2.23047c-2.475,-0.99 -2.475,-0.99 -5,-2c0.60699,-4.12751 2.03811,-7.33211 4,-11c-0.99,0.33 -1.98,0.66 -3,1c0,-0.66 0,-1.32 0,-2c4.75,-2 4.75,-2 7,-2z"/>
  <path id="svg_67" fill="#3C3C3B" d="m260,450c0.33,0 0.66,0 1,0c-0.33,3.3 -0.66,6.6 -1,10c1.32,-0.66 2.64,-1.32 4,-2c1.32,0 2.64,0 4,0c-0.33,0.99 -0.66,1.98 -1,3c-3.60379,1.5216 -6.05221,2 -10,2c0.54855,-4.57128 1.41745,-8.67436 3,-13z"/>
  <path id="svg_68" fill="#C6C7C6" d="m495,361c0,0.99 0,1.98 0,3c0.66,0.66 1.32,1.32 2,2c-11.33987,2.70142 -21.41035,3.19052 -33,2c0,-0.33 0,-0.66 0,-1c0.89139,-0.02187 0.89139,-0.02187 1.80078,-0.04419c2.73368,-0.0752 5.46622,-0.17162 8.19922,-0.26831c0.93457,-0.02256 1.86914,-0.04512 2.83203,-0.06836c6.58361,-0.25322 13.26777,-0.71894 18.16797,-5.61914z"/>
  <path id="svg_69" fill="#525251" d="m362,437c0.66,0 1.32,0 2,0c0.05424,1.91635 0.0929,3.83315 0.125,5.75c0.0232,1.06734 0.04641,2.13469 0.07031,3.23438c-0.19043,2.94032 -0.66861,4.53924 -2.19531,7.01562c-0.66,0 -1.32,0 -2,0c-0.23584,-5.77807 0.13217,-10.51325 2,-16z"/>
  <path id="svg_70" fill="#525252" d="m239,450c0.66,0 1.32,0 2,0c0,1.65 0,3.3 0,5c1.65,0 3.3,0 5,0c-0.33,0.66 -0.66,1.32 -1,2c-2.5625,0.625 -2.5625,0.625 -5,1c0,1.98 0,3.96 0,6c-0.66,0 -1.32,0 -2,0c-1.36986,-10.44521 -1.36986,-10.44521 1,-14z"/>
  <path id="svg_71" fill="#35396F" d="m305,281c0.33,0 0.66,0 1,0c0.19402,1.81181 0.38004,3.62449 0.5625,5.4375c0.10441,1.00934 0.20883,2.01867 0.31641,3.05859c0.03996,0.82629 0.07992,1.65258 0.12109,2.50391c-1,1 -1,1 -4.59766,1.09766c-1.48831,-0.00668 -2.9766,-0.01864 -4.46484,-0.03516c-1.13792,-0.00677 -1.13792,-0.00677 -2.29883,-0.01367c-1.87959,-0.01182 -3.75914,-0.02976 -5.63867,-0.04883c0.66,-2.97 1.32,-5.94 2,-9c0.33,0 0.66,0 1,0c0,2.64 0,5.28 0,8c3.96,0 7.92,0 12,0c0,-3.63 0,-7.26 0,-11z"/>
  <path id="svg_72" fill="#4B4B4A" d="m496,447c0.66,0 1.32,0 2,0c0,1.65 0,3.3 0,5c0.89719,-0.495 0.89719,-0.495 1.8125,-1c2.1875,-1 2.1875,-1 5.1875,-1c0,0.66 0,1.32 0,2c-1.13437,0.5775 -2.26875,1.155 -3.4375,1.75c-2.9356,1.60493 -2.9356,1.60493 -4.5,4.5c-0.02062,0.5775 -0.04125,1.155 -0.0625,1.75c-0.66,0 -1.32,0 -2,0c0.33,-4.29 0.66,-8.58 1,-13z"/>
  <path id="svg_73" fill="#60605E" d="m520,445c0.66,0 1.32,0 2,0c-0.07219,0.62906 -0.14437,1.25812 -0.21875,1.90625c-0.58591,5.40338 -0.88188,10.65977 -0.78125,16.09375c-0.66,-0.33 -1.32,-0.66 -2,-1c-0.625,-2.5625 -0.625,-2.5625 -1,-5c-0.99,0.495 -0.99,0.495 -2,1c0.59105,-4.84659 1.97944,-8.60748 4,-13z"/>
  <path id="svg_74" fill="#D5D9E8" d="m388,266c0.33,0.66 0.66,1.32 1,2c0.66,0 1.32,0 2,0c-0.45295,1.7514 -0.91259,3.50107 -1.375,5.25c-0.25523,0.97453 -0.51047,1.94906 -0.77344,2.95313c-0.75379,2.47576 -1.52104,4.58273 -2.85156,6.79687c-0.66,0.33 -1.32,0.66 -2,1c0.58367,-6.30368 2.04072,-11.9866 4,-18z"/>
  <path id="svg_75" fill="#1A1919" d="m332.1875,252.9375c1.63002,0.01354 1.63002,0.01354 3.29297,0.02734c0.83144,0.01161 1.66289,0.02321 2.51953,0.03516c-0.33,1.32 -0.66,2.64 -1,4c-1.95901,-0.11383 -3.91723,-0.24141 -5.875,-0.375c-1.09055,-0.06961 -2.18109,-0.13922 -3.30469,-0.21094c-2.82031,-0.41406 -2.82031,-0.41406 -4.82031,-2.41406c3.28519,-1.09506 5.73663,-1.09961 9.1875,-1.0625zm-11.1875,2.0625c2,1 2,1 2,1l-2,-1z"/>
  <path id="svg_76" fill="#353433" d="m448,234c1.79069,2.68603 2.66056,4.66266 3.625,7.6875c0.26039,0.80824 0.52078,1.61648 0.78906,2.44922c0.19336,0.61488 0.38672,1.22976 0.58594,1.86328c-0.66,0 -1.32,0 -2,0c-0.47437,0.825 -0.94875,1.65 -1.4375,2.5c-0.77344,1.2375 -0.77344,1.2375 -1.5625,2.5c-0.99,0 -1.98,0 -3,0c0.66,-0.66 1.32,-1.32 2,-2c0.24254,-2.21073 0.24254,-2.21073 0.125,-4.625c-0.01805,-0.81727 -0.03609,-1.63453 -0.05469,-2.47656c-0.0232,-0.62649 -0.0464,-1.25297 -0.07031,-1.89844c0.66,0 1.32,0 2,0c-0.33,-1.98 -0.66,-3.96 -1,-6z"/>
  <path id="svg_77" fill="#191918" d="m301,213c0.99,0.33 1.98,0.66 3,1c1.47666,3.49029 1.07165,7.27436 1,11c-1.32,0 -2.64,0 -4,0c-0.19402,-1.81181 -0.38004,-3.62449 -0.5625,-5.4375c-0.10441,-1.00934 -0.20883,-2.01867 -0.31641,-3.05859c-0.03996,-0.82629 -0.07992,-1.65258 -0.12109,-2.50391c0.33,-0.33 0.66,-0.66 1,-1z"/>
  <path id="svg_78" fill="#565656" d="m314,463c0.66,0.33 1.32,0.66 2,1c-0.33,0.99 -0.66,1.98 -1,3c0.84305,-0.24557 0.84305,-0.24557 1.70313,-0.49609c2.42746,-0.53256 4.56577,-0.6029 7.04687,-0.56641c0.79922,0.00902 1.59844,0.01805 2.42188,0.02734c0.60328,0.01161 1.20656,0.02321 1.82812,0.03516c-4.90269,3.26846 -9.13174,4.27944 -15,4c-0.04254,-1.99955 -0.04081,-4.00042 0,-6c0.33,-0.33 0.66,-0.66 1,-1z"/>
  <path id="svg_79" fill="#6A6A69" d="m155,449c0.99,0.33 1.98,0.66 3,1c0.25,6.625 0.25,6.625 -2,10c-0.99,-0.33 -1.98,-0.66 -3,-1c-0.17942,-3.94728 -0.09351,-6.59805 2,-10z"/>
  <path id="svg_80" fill="#303231" d="m453,341c0,3.57509 -0.7312,6.69585 -1.5,10.1875c-0.27844,1.2723 -0.55687,2.54461 -0.84375,3.85547c-0.21656,0.97582 -0.43312,1.95164 -0.65625,2.95703c-2.35951,-2.35951 -2.34409,-3.01926 -2.4375,-6.25c0.07474,-5.14031 1.82958,-7.23228 5.4375,-10.75z"/>
  <path id="svg_81" fill="#EBEBE9" d="m540,451c2.97,0.33 5.94,0.66 9,1c-1,3 -1,3 -2.84766,3.94922c-0.73089,0.24363 -1.46179,0.48726 -2.21484,0.73828c-1.10021,0.37705 -1.10021,0.37705 -2.22266,0.76172c-0.56589,0.18176 -1.13179,0.36351 -1.71484,0.55078c0,-2.31 0,-4.62 0,-7z"/>
  <path id="svg_82" fill="#121212" d="m356,342c1.65,0 3.3,0 5,0c-0.33,4.29 -0.66,8.58 -1,13c-0.99,0 -1.98,0 -3,0c-0.33,-4.29 -0.66,-8.58 -1,-13z"/>
  <path id="svg_83" fill="#505483" d="m388,278c0.66,0.33 1.32,0.66 2,1c0,4.33333 0,8.66667 0,13c-1.32,-0.33 -2.64,-0.66 -4,-1c-0.16682,-4.92127 -0.24828,-8.50344 2,-13z"/>
  <path id="svg_84" fill="#3D3C38" d="m378,197c0.66,0 1.32,0 2,0c1.85777,3.13498 2.2014,5.37471 2,9c-0.33,-1.32 -0.66,-2.64 -1,-4c-1.32,-0.33 -2.64,-0.66 -4,-1c-0.39187,0.55687 -0.78375,1.11375 -1.1875,1.6875c-2.08175,2.65602 -4.39583,4.96115 -6.8125,7.3125c0,-3.73869 0.90486,-4.36551 3.375,-7.0625c0.62648,-0.69223 1.25297,-1.38445 1.89844,-2.09766c1.22053,-1.30061 2.46535,-2.57863 3.72656,-3.83984z"/>
  <path id="svg_85" fill="#727270" d="m166,458c0.33,0 0.66,0 1,0c0,2.64 0,5.28 0,8c4.58148,-0.54978 8.64913,-1.48225 13,-3c0.66,0 1.32,0 2,0c0,0.66 0,1.32 0,2c-5.89677,3.13658 -9.42559,3.11259 -16,2c0,-2.97 0,-5.94 0,-9z"/>
  <path id="svg_86" fill="#131313" d="m187,342c0.99,0 1.98,0 3,0c0,4.29 0,8.58 0,13c-0.99,0 -1.98,0 -3,0c0,-4.29 0,-8.58 0,-13z"/>
  <path id="svg_87" fill="#565656" d="m490,463c0.66,0 1.32,0 2,0c0,1.32 0,2.64 0,4c2.64,-0.33 5.28,-0.66 8,-1c0,0.66 0,1.32 0,2c-3.82321,1.42259 -6.91281,2.24042 -11,2c0.33,-2.31 0.66,-4.62 1,-7z"/>
  <path id="svg_88" fill="#545452" d="m394,448c0.66,0 1.32,0 2,0c0,1.32 0,2.64 0,4c1.98,0 3.96,0 6,0c-2.56546,2.56546 -4.47687,2.54046 -8,3c0,1.98 0,3.96 0,6c-0.66,0 -1.32,0 -2,0c0.14149,-1.60456 0.28836,-3.20864 0.4375,-4.8125c0.08121,-0.89332 0.16242,-1.78664 0.24609,-2.70703c0.31641,-2.48047 0.31641,-2.48047 1.31641,-5.48047z"/>
  <path id="svg_89" fill="#363634" d="m551,445c0.66,0 1.32,0 2,0c0,1.32 0,2.64 0,4c0.66,0 1.32,0 2,0c-1.37155,2.9541 -2.98864,5.44008 -5,8c-0.66,-0.33 -1.32,-0.66 -2,-1c0.99,-3.63 1.98,-7.26 3,-11z"/>
  <path id="svg_90" fill="#323230" d="m526,459c0.33,0 0.66,0 1,0c0,1.65 0,3.3 0,5c2.64,-0.33 5.28,-0.66 8,-1c-1,2 -1,2 -3.8125,3.125c-3.1875,0.875 -3.1875,0.875 -7.1875,0.875c0.875,-6.875 0.875,-6.875 2,-8z"/>
  <path id="svg_91" fill="#7B7C7A" d="m532,447c0.33,0 0.66,0 1,0c0.125,6.625 0.125,6.625 -1,10c-0.66,0 -1.32,0 -2,0c0,-1.65 0,-3.3 0,-5c-1.98,0.66 -3.96,1.32 -6,2c0,-0.66 0,-1.32 0,-2c3,-2 3,-2 7,-2c0.33,-0.99 0.66,-1.98 1,-3z"/>
  <path id="svg_92" fill="#F5F7F8" d="m366,245c0.66,0.33 1.32,0.66 2,1c0.027,1.45823 0.0464,2.91661 0.0625,4.375c0.0116,0.81211 0.0232,1.62422 0.03516,2.46094c-0.09766,2.16406 -0.09766,2.16406 -1.09766,4.16406c-0.99,-0.33 -1.98,-0.66 -3,-1c0.14043,-1.6463 0.28749,-3.29204 0.4375,-4.9375c0.08121,-0.91652 0.16242,-1.83305 0.24609,-2.77734c0.31641,-2.28516 0.31641,-2.28516 1.31641,-3.28516z"/>
  <path id="svg_93" fill="#D4D7E5" d="m414,231c0.33,0.99 0.66,1.98 1,3c-1.45288,1.33928 -2.91247,2.67127 -4.375,4c-1.21816,1.11375 -1.21816,1.11375 -2.46094,2.25c-2.16406,1.75 -2.16406,1.75 -4.16406,1.75c-0.66,1.32 -1.32,2.64 -2,4c-0.99,0 -1.98,0 -3,0c3.66747,-4.69547 7.46644,-8.33381 12.36328,-11.73828c1.77784,-1.18118 1.77784,-1.18118 2.63672,-3.26172z"/>
  <path id="svg_94" fill="#60605F" d="m325,456c0,0.66 0,1.32 0,2c-2.12393,0.67008 -4.24918,1.33597 -6.375,2c-1.18336,0.37125 -2.36672,0.7425 -3.58594,1.125c-3.03906,0.875 -3.03906,0.875 -5.03906,0.875c0,-0.66 0,-1.32 0,-2c5.23882,-2.80216 9.07009,-4 15,-4z"/>
  <path id="svg_95" fill="#686867" d="m486,443c0.33,0 0.66,0 1,0c0,1.98 0,3.96 0,6c1.98,0 3.96,0 6,0c-1.33333,0.66667 -2.66667,1.33333 -4,2c-1.03125,0.53625 -2.0625,1.0725 -3.125,1.625c-2.875,1.375 -2.875,1.375 -4.875,1.375c0.33,-0.99 0.66,-1.98 1,-3c0.66,-0.33 1.32,-0.66 2,-1c0.73076,-2.31406 1.40138,-4.64829 2,-7z"/>
  <path id="svg_96" fill="#7B7B7B" d="m273,450c1.32,0.33 2.64,0.66 4,1c0.17836,4.54806 -0.00215,7.87943 -2,12c-0.66,0 -1.32,0 -2,0c0,-4.29 0,-8.58 0,-13z"/>
  <path id="svg_97" fill="#999997" d="m486,456c0.99,0.33 1.98,0.66 3,1c0,1.98 0,3.96 0,6c-1.32,0.33 -2.64,0.66 -4,1c-0.625,-2.3125 -0.625,-2.3125 -1,-5c0.66,-0.99 1.32,-1.98 2,-3z"/>
  <path id="svg_98" fill="#30302F" d="m375,297c-1.81116,1.81116 -4.61278,1.38199 -7.0625,1.5625c-1.10473,0.08379 -2.20945,0.16758 -3.34766,0.25391c-1.28197,0.09088 -1.28197,0.09088 -2.58984,0.18359c0,0.99 0,1.98 0,3c-1.9375,-0.8125 -1.9375,-0.8125 -4,-2c-0.33,-0.99 -0.66,-1.98 -1,-3c2.62466,-0.19431 5.24947,-0.38073 7.875,-0.5625c1.11955,-0.08411 1.11955,-0.08411 2.26172,-0.16992c5.63672,-0.38086 5.63672,-0.38086 7.86328,0.73242z"/>
  <path id="svg_99" fill="#212668" d="m313.5,231.75c1.43859,-0.00773 1.43859,-0.00773 2.90625,-0.01562c2.59375,0.26562 2.59375,0.26562 5.59375,2.26562c-11.52164,1.33257 -11.52164,1.33257 -17,0c3.35198,-2.23465 4.57791,-2.27109 8.5,-2.25z"/>
  <path id="svg_100" fill="#434343" d="m223,461c0,0.66 0,1.32 0,2c-1.41397,0.50758 -2.83132,1.00575 -4.25,1.5c-1.18336,0.41766 -1.18336,0.41766 -2.39063,0.84375c-2.35937,0.65625 -2.35937,0.65625 -6.35937,0.65625c0,-0.66 0,-1.32 0,-2c1.60256,-0.50512 3.20712,-1.00392 4.8125,-1.5c0.89332,-0.27844 1.78664,-0.55687 2.70703,-0.84375c2.48047,-0.65625 2.48047,-0.65625 5.48047,-0.65625z"/>
  <path id="svg_101" fill="#2B2C28" d="m429,193c0.99,0 1.98,0 3,0c1.49821,3.37097 2,5.20442 2,9c-3,-1 -3,-1 -4.1875,-2.8125c-0.8125,-2.1875 -0.8125,-2.1875 -0.8125,-6.1875z"/>
  <path id="svg_102" fill="#575886" d="m276.59766,198.90234c1.48831,0.00667 2.97661,0.01863 4.46484,0.03516c0.75862,0.00451 1.51723,0.00902 2.29883,0.01367c1.87959,0.01182 3.75914,0.02976 5.63867,0.04883c0,0.33 0,0.66 0,1c-0.83144,0.04898 -1.66289,0.09796 -2.51953,0.14843c-1.08668,0.07477 -2.17336,0.14953 -3.29297,0.22657c-1.07894,0.06961 -2.15789,0.13921 -3.26953,0.21093c-3.10423,0.22602 -3.10423,0.22602 -5.91797,2.41407c-0.66,0.99 -1.32,1.98 -2,3c-0.04254,-1.99955 -0.0408,-4.00042 0,-6c1,-1 1,-1 4.59766,-1.09766z"/>
  <path id="svg_103" fill="#3F403F" d="m341,449c0.66,1.32 1.32,2.64 2,4c-1.98,2.31 -3.96,4.62 -6,7c-1,-3 -1,-3 -0.00391,-5.04297c0.47567,-0.70769 0.95133,-1.41539 1.44141,-2.14453c0.47309,-0.71543 0.94617,-1.43086 1.43359,-2.16797c0.37254,-0.54269 0.74508,-1.08539 1.12891,-1.64453z"/>
  <path id="svg_104" fill="#D3D3D1" d="m548,456c2.99333,0.99778 3.94766,1.7522 6,4c-1.13437,0.28875 -2.26875,0.5775 -3.4375,0.875c-1.17562,0.37125 -2.35125,0.7425 -3.5625,1.125c-0.33,0.66 -0.66,1.32 -1,2c-0.33,-1.98 -0.66,-3.96 -1,-6c0.99,-0.66 1.98,-1.32 3,-2z"/>
  <path id="svg_105" fill="#636462" d="m461,443c0.99,0.33 1.98,0.66 3,1c-0.33,2.31 -0.66,4.62 -1,7c-0.99,0 -1.98,0 -3,0c-0.125,-5.75 -0.125,-5.75 1,-8z"/>
  <path id="svg_106" fill="#424241" d="m365,224c0.99,0.495 0.99,0.495 2,1c0.41406,2.72266 0.41406,2.72266 0.625,6.0625c0.07477,1.10473 0.14953,2.20945 0.22656,3.34766c0.04899,0.85464 0.09797,1.70929 0.14844,2.58984c-0.99,0.33 -1.98,0.66 -3,1c0,-4.62 0,-9.24 0,-14z"/>
  <path id="svg_107" fill="#282826" d="m361,223c1.9375,0.5 1.9375,0.5 4,2c0.80165,2.64599 1.17262,5.23812 1,8c-0.66,0.66 -1.32,1.32 -2,2c-0.5056,-1.43554 -1.00427,-2.87352 -1.5,-4.3125c-0.27844,-0.80051 -0.55687,-1.60102 -0.84375,-2.42578c-0.65625,-2.26172 -0.65625,-2.26172 -0.65625,-5.26172z"/>
  <path id="svg_108" fill="#D6D9E7" d="m395,218c4.1519,6.22785 4.1519,6.22785 3.8125,10.1875c-0.8125,1.8125 -0.8125,1.8125 -3.8125,3.8125c0.18562,-0.96937 0.37125,-1.93875 0.5625,-2.9375c0.14438,-1.01062 0.28875,-2.02125 0.4375,-3.0625c-0.33,-0.33 -0.66,-0.66 -1,-1c-0.04093,-2.33297 -0.04242,-4.66705 0,-7z"/>
  <path id="svg_109" fill="#565656" d="m292,450c0.66,0 1.32,0 2,0c0,2.64 0,5.28 0,8c0.66,0 1.32,0 2,0c-0.33,0.99 -0.66,1.98 -1,3c-0.99,-0.33 -1.98,-0.66 -3,-1c0,-3.3 0,-6.6 0,-10z"/>
  <path id="svg_110" fill="#3E4279" d="m377,190c-2.85276,2.932 -5.6508,5.64315 -9,8c0.3125,-2.875 0.3125,-2.875 1,-6c3.22792,-2.15194 4.28401,-2.20086 8,-2z"/>
  <path id="svg_111" fill="#474745" d="m172,444c0,0.66 0,1.32 0,2c-6.625,3 -6.625,3 -10,3c1,-3 1,-3 3.3125,-4.1875c2.6875,-0.8125 2.6875,-0.8125 6.6875,-0.8125z"/>
  <path id="svg_112" fill="#1C1C1C" d="m361,387c0.66,0 1.32,0 2,0c1.0316,3.09479 0.97483,4.52631 0.5625,7.6875c-0.10184,0.80824 -0.20367,1.61648 -0.30859,2.44922c-0.08379,0.61488 -0.16758,1.22976 -0.25391,1.86328c-0.66,0 -1.32,0 -2,0c0,-3.96 0,-7.92 0,-12z"/>
  <path id="svg_113" fill="#DCDFEC" d="m371,195c0,4.92319 -3.42948,7.41651 -6.75,10.8125c-0.7425,0.72188 -1.485,1.44375 -2.25,2.1875c1.52013,-5.4049 5.27385,-8.98493 9,-13z"/>
  <path id="svg_114" fill="#CFD0CE" d="m443,465c0.33,0.99 0.66,1.98 1,3c-0.33,0.33 -0.66,0.66 -1,1c1.65,0.33 3.3,0.66 5,1c-0.33,0.66 -0.66,1.32 -1,2c-3.3,0 -6.6,0 -10,0c1.98,-2.31 3.96,-4.62 6,-7z"/>
  <path id="svg_115" fill="#5D5D5B" d="m390,448c-0.99,2.97 -1.98,5.94 -3,9c-0.66,-1.32 -1.32,-2.64 -2,-4c0.33,-0.66 0.66,-1.32 1,-2c-0.99,0.33 -1.98,0.66 -3,1c0,-0.66 0,-1.32 0,-2c4.75,-2 4.75,-2 7,-2z"/>
  <path id="svg_116" fill="#7B7B7A" d="m317,445c0.66,0.33 1.32,0.66 2,1c0,1.65 0,3.3 0,5c-1.98,0.99 -1.98,0.99 -4,2c-0.125,-2.875 -0.125,-2.875 0,-6c0.66,-0.66 1.32,-1.32 2,-2z"/>
  <path id="svg_117" fill="#DDE0ED" d="m397,249c0.66,0.99 1.32,1.98 2,3c-0.875,2.6875 -0.875,2.6875 -2,5c-1.32,0 -2.64,0 -4,0c1.12452,-2.97194 2.22294,-5.33441 4,-8z"/>
  <path id="svg_118" fill="#D2D5E4" d="m413,221c0.66,0 1.32,0 2,0c0.66,2.31 1.32,4.62 2,7c-0.99,-0.33 -1.98,-0.66 -3,-1c-0.33,0.66 -0.66,1.32 -1,2c-0.66,-1.98 -1.32,-3.96 -2,-6c0.66,0 1.32,0 2,0c0,-0.66 0,-1.32 0,-2z"/>
  <path id="svg_119" fill="#333331" d="m559,458c-0.33,3.3 -0.66,6.6 -1,10c-0.33,0 -0.66,0 -1,0c0,-2.31 0,-4.62 0,-7c-0.99,0 -1.98,0 -3,0c0,-0.66 0,-1.32 0,-2c2,-1 2,-1 5,-1z"/>
  <path id="svg_120" fill="#71716E" d="m442,459c-0.30938,0.59813 -0.61875,1.19625 -0.9375,1.8125c-1.1646,2.27707 -1.1646,2.27707 -2.0625,5.1875c-1.32,-0.66 -2.64,-1.32 -4,-2c0.66,-0.66 1.32,-1.32 2,-2c-0.66,0 -1.32,0 -2,0c0,-0.66 0,-1.32 0,-2c2.49065,-0.68708 4.37886,-1 7,-1z"/>
  <path id="svg_121" fill="#424341" d="m415,451c0.33,0 0.66,0 1,0c0,2.31 0,4.62 0,7c0.99,-0.66 1.98,-1.32 3,-2c0.99,0.33 1.98,0.66 3,1c-4.75,4 -4.75,4 -7,4c0,-3.3 0,-6.6 0,-10z"/>
  <path id="svg_122" fill="#2F302E" d="m239,453c0.33,0.99 0.66,1.98 1,3c0.99,0.33 1.98,0.66 3,1c-0.99,0.33 -1.98,0.66 -3,1c0,1.98 0,3.96 0,6c-0.66,0 -1.32,0 -2,0c-0.14286,-7.42857 -0.14286,-7.42857 1,-11z"/>
  <path id="svg_123" fill="#727270" d="m496,447c0.66,0 1.32,0 2,0c0,1.65 0,3.3 0,5c0.89719,-0.495 0.89719,-0.495 1.8125,-1c2.1875,-1 2.1875,-1 5.1875,-1c0,0.66 0,1.32 0,2c-1.98,0.99 -3.96,1.98 -6,3c0,-0.66 0,-1.32 0,-2c-0.66,0 -1.32,0 -2,0c-0.33,-1.98 -0.66,-3.96 -1,-6z"/>
  <path id="svg_124" fill="#656564" d="m347,439c-0.33,0.66 -0.66,1.32 -1,2c-2.06641,0.63281 -2.06641,0.63281 -4.5625,1.125c-0.82629,0.16758 -1.65258,0.33516 -2.50391,0.50781c-0.63808,0.12117 -1.27617,0.24235 -1.93359,0.36719c0,-0.99 0,-1.98 0,-3c3.78188,-1.83691 5.94568,-2.15838 10,-1z"/>
  <path id="svg_125" fill="#434442" d="m168,439c-0.33,0.66 -0.66,1.32 -1,2c-3.47325,1.15775 -6.36067,1.06867 -10,1c2.10572,-4.21144 6.88306,-3.07768 11,-3z"/>
  <path id="svg_126" fill="#FBFCFA" d="m378,284c0.33,0.99 0.66,1.98 1,3c0.66,0 1.32,0 2,0c0.33,1.65 0.66,3.3 1,5c-1.32,0 -2.64,0 -4,0c-0.79953,-3.28696 -1.09659,-4.71023 0,-8z"/>
  <path id="svg_127" fill="#F8F8F7" d="m445,239c0.66,0.33 1.32,0.66 2,1c0.1875,2.375 0.1875,2.375 0,5c-0.99,0.66 -1.98,1.32 -3,2c-0.66,-1.32 -1.32,-2.64 -2,-4c0.66,0 1.32,0 2,0c0.33,-1.32 0.66,-2.64 1,-4z"/>
  <path id="svg_128" fill="#4E5086" d="m333,215c0.66,0 1.32,0 2,0c1.64284,2.95712 2.64422,5.62008 3,9c-0.66,0.66 -1.32,1.32 -2,2c-0.50368,-1.45707 -1.00283,-2.9157 -1.5,-4.375c-0.27844,-0.81211 -0.55687,-1.62422 -0.84375,-2.46094c-0.65625,-2.16406 -0.65625,-2.16406 -0.65625,-4.16406z"/>
  <path id="svg_129" fill="#4D4D4B" d="m354,452c0.66,0 1.32,0 2,0c-0.33,2.31 -0.66,4.62 -1,7c0.66,0.33 1.32,0.66 2,1c-1.65,-0.33 -3.3,-0.66 -5,-1c0.66,-2.31 1.32,-4.62 2,-7z"/>
  <path id="svg_130" fill="#C3C7DB" d="m388,266c0.33,0.66 0.66,1.32 1,2c0.66,0 1.32,0 2,0c-0.66,1.98 -1.32,3.96 -2,6c-0.99,0 -1.98,0 -3,0c0.66,-2.64 1.32,-5.28 2,-8z"/>
  <path id="svg_131" fill="#C1C1BF" d="m537,456c0.33,0.66 0.66,1.32 1,2c-0.33,0.99 -0.66,1.98 -1,3c0.99,0.33 1.98,0.66 3,1c-0.99,0 -1.98,0 -3,0c-0.33,0.99 -0.66,1.98 -1,3c-0.66,-0.33 -1.32,-0.66 -2,-1c0,-0.99 0,-1.98 0,-3c0.66,0 1.32,0 2,0c0.33,-1.65 0.66,-3.3 1,-5z"/>
  <path id="svg_132" fill="#6C6C6A" d="m378,452c0.33,0 0.66,0 1,0c0,3.63 0,7.26 0,11c-0.66,-0.33 -1.32,-0.66 -2,-1c-0.86159,-3.23098 -1.30598,-5.22486 -0.0625,-8.375c0.52594,-0.80437 0.52594,-0.80437 1.0625,-1.625z"/>
  <path id="svg_133" fill="#6F6F6E" d="m267,444c0,0.66 0,1.32 0,2c-4.455,1.485 -4.455,1.485 -9,3c2.57547,-5.15093 3.40152,-5 9,-5z"/>
  <path id="svg_134" fill="#AAAAA9" d="m506,374c0,1.32 0,2.64 0,4c-2.64,0 -5.28,0 -8,0c1.55745,-3.1149 4.59915,-4 8,-4z"/>
  <path id="svg_135" fill="#DBDEE8" d="m368,253c0.66,0.33 1.32,0.66 2,1c0.625,2.5625 0.625,2.5625 1,5c-3.75,1.125 -3.75,1.125 -6,0c0,-0.66 0,-1.32 0,-2c0.66,0 1.32,0 2,0c0.33,-1.32 0.66,-2.64 1,-4z"/>
  <path id="svg_136" fill="#50504F" d="m448,234c1.9451,2.91765 2.45276,4.62537 3,8c-0.66,0 -1.32,0 -2,0c0,1.65 0,3.3 0,5c-0.33,0 -0.66,0 -1,0c-0.33,-2.31 -0.66,-4.62 -1,-7c0.66,0 1.32,0 2,0c-0.33,-1.98 -0.66,-3.96 -1,-6z"/>
  <path id="svg_137" fill="#E9ECF4" d="m381,240c1.65,0 3.3,0 5,0c-0.375,2.4375 -0.375,2.4375 -1,5c-0.99,0.495 -0.99,0.495 -2,1c-0.66,-1.98 -1.32,-3.96 -2,-6z"/>
  <path id="svg_138" fill="#46487C" d="m374,176c0.66,0.33 1.32,0.66 2,1c-4.75,4.875 -4.75,4.875 -7,6c-0.66,-0.66 -1.32,-1.32 -2,-2c2.31,-1.65 4.62,-3.3 7,-5z"/>
  <path id="svg_139" fill="#7B7B79" d="m519,452c2.67927,4.01891 2.15601,6.24162 2,11c-0.66,-0.33 -1.32,-0.66 -2,-1c-0.77812,-3.81985 -1.24387,-6.2684 0,-10z"/>
  <path id="svg_140" fill="#797A78" d="m544,443c0,0.66 0,1.32 0,2c-2.64,0.66 -5.28,1.32 -8,2c0.33,-0.99 0.66,-1.98 1,-3c3,-1 3,-1 7,-1z"/>
  <path id="svg_141" fill="#282B69" d="m389,282c0.99,0.33 1.98,0.66 3,1c0.1875,2.375 0.1875,2.375 0,5c-0.99,0.66 -1.98,1.32 -3,2c0,-2.64 0,-5.28 0,-8z"/>
  <path id="svg_142" fill="#F9FCF5" d="m301,250c1.32,0 2.64,0 4,0c-1.75,5.75 -1.75,5.75 -4,8c0,-2.64 0,-5.28 0,-8z"/>
  <path id="svg_143" fill="#595957" d="m548,455c-0.33,0.99 -0.66,1.98 -1,3c-2.5625,1.1875 -2.5625,1.1875 -5,2c-0.33,-0.99 -0.66,-1.98 -1,-3c4.75,-2 4.75,-2 7,-2z"/>
  <path id="svg_144" fill="#444442" d="m550,448c0.33,1.32 0.66,2.64 1,4c0.66,0.33 1.32,0.66 2,1c-0.99,1.32 -1.98,2.64 -3,4c-0.66,-0.33 -1.32,-0.66 -2,-1c0.66,-2.64 1.32,-5.28 2,-8z"/>
  <path id="svg_145" fill="#121210" d="m404,281c0.66,0 1.32,0 2,0c0.66,2.31 1.32,4.62 2,7c-2.475,-0.99 -2.475,-0.99 -5,-2c0.33,-1.65 0.66,-3.3 1,-5z"/>
  <path id="svg_146" fill="#545784" d="m384,171c0.66,0.33 1.32,0.66 2,1c-0.63938,0.10312 -1.27875,0.20625 -1.9375,0.3125c-1.02094,0.34031 -1.02094,0.34031 -2.0625,0.6875c-0.33,0.99 -0.66,1.98 -1,3c-0.99,0.33 -1.98,0.66 -3,1c-0.66,-0.66 -1.32,-1.32 -2,-2c1.28651,-0.69711 2.57941,-1.38243 3.875,-2.0625c0.7193,-0.38285 1.43859,-0.7657 2.17969,-1.16016c0.64195,-0.25652 1.2839,-0.51304 1.94531,-0.77734z"/>
  <path id="svg_147" fill="#626361" d="m526,459c0.33,0 0.66,0 1,0c0,1.65 0,3.3 0,5c0.66,0.33 1.32,0.66 2,1c-0.99,0 -1.98,0 -3,0c-0.66,0.66 -1.32,1.32 -2,2c0.875,-6.875 0.875,-6.875 2,-8z"/>
  <path id="svg_148" fill="#C0C1BF" d="m343,452c0.33,0 0.66,0 1,0c0,2.97 0,5.94 0,9c-0.66,-1.32 -1.32,-2.64 -2,-4c-0.66,0 -1.32,0 -2,0c1.875,-3.875 1.875,-3.875 3,-5z"/>
  <path id="svg_149" fill="#666766" d="m186,445c2.6875,0.3125 2.6875,0.3125 5,1c-0.33,0.99 -0.66,1.98 -1,3c0,-0.66 0,-1.32 0,-2c-2.31,0.33 -4.62,0.66 -7,1c1.1875,-1.5625 1.1875,-1.5625 3,-3z"/>
  <path id="svg_150" fill="#959695" d="m441,441c-0.66,1.32 -1.32,2.64 -2,4c-0.99,0 -1.98,0 -3,0c0,-0.33 0,-0.66 0,-1c-0.66,-0.33 -1.32,-0.66 -2,-1c2.64739,-1.46063 3.89448,-2 7,-2z"/>
  <path id="svg_151" fill="#52524F" d="m439,212c1.74627,2.61941 2.38722,4.03825 3,7c-1.65,-0.33 -3.3,-0.66 -5,-1c0.66,-1.98 1.32,-3.96 2,-6z"/>
 </g>
</svg>